<?xml version="1.0" encoding="UTF-8"?>
<!-- Generator: Adobe Illustrator 21.0.2, SVG Export Plug-In . SVG Version: 6.00 Build 0)  -->
<svg version="1.1" id="Layer_1" xmlns="http://www.w3.org/2000/svg" xmlns:xlink="http://www.w3.org/1999/xlink" x="0px" y="0px" viewBox="0 0 500 500" style="enable-background:new 0 0 500 500;" xml:space="preserve">
<style type="text/css">
	.st0{fill:#666E79;}
	.st1{fill:#444A54;}
	.st2{fill:#ED5765;}
	.st3{fill:#CDD2D9;}
	.st4{fill:#E7E9ED;}
	.st5{fill:#71B3E2;}
	.st6{fill:#BDBDBD;}
	.st7{fill:#434343;}
	.st8{fill:#EEEDEE;}
	.st9{fill:#95C8EC;}
	.st10{fill:#616262;}
	.st11{fill:#303030;}
</style>
<g>
	<path d="M76.5,161.1l7.4,19.6l7.4-19.6H97v25.6h-4.4v-8.4L93,167l-7.6,19.7h-3.2L74.8,167l0.4,11.3v8.4h-4.4v-25.6H76.5z"/>
	<path d="M101.1,177c0-1.9,0.4-3.5,1.1-5s1.8-2.6,3.1-3.4s2.9-1.2,4.6-1.2c2.6,0,4.6,0.8,6.2,2.5s2.5,3.8,2.6,6.6l0,1   c0,1.9-0.4,3.6-1.1,5s-1.8,2.6-3.1,3.4s-2.9,1.2-4.6,1.2c-2.7,0-4.8-0.9-6.4-2.7s-2.4-4.2-2.4-7.1V177z M105.3,177.4   c0,2,0.4,3.5,1.2,4.6s1.9,1.7,3.4,1.7s2.6-0.6,3.4-1.7s1.2-2.8,1.2-4.9c0-1.9-0.4-3.4-1.2-4.6s-1.9-1.7-3.4-1.7   c-1.4,0-2.5,0.6-3.3,1.7S105.3,175.2,105.3,177.4z"/>
	<path d="M121.2,183.3c1.2-1.3,2-2.6,2.4-3.8s0.6-2.7,0.7-4.6l0.2-7.3h13.2v15.6h2.6v9.1h-4.3v-5.7h-12.2v5.7h-4.3l0-9.1H121.2z    M126.2,183.3h7.3v-11.9h-4.8l-0.1,3.6C128.4,178.5,127.6,181.2,126.2,183.3z"/>
	<path d="M150.1,180.6l3.9-12.9h4.6l-7.6,21.9c-1.2,3.2-3.1,4.8-5.9,4.8c-0.6,0-1.3-0.1-2.1-0.3v-3.3l0.8,0.1c1.1,0,1.9-0.2,2.4-0.6   c0.5-0.4,1-1.1,1.3-2l0.6-1.6l-6.7-18.9h4.6L150.1,180.6z"/>
	<path d="M176.4,167.7v19h-4.3v-15.6h-5.4l-0.4,6.6c-0.2,3.2-0.8,5.5-1.8,6.9s-2.5,2.1-4.6,2.1h-1.3l0-3.6l0.9-0.1   c0.9-0.1,1.6-0.7,2-1.7c0.4-1,0.7-2.9,0.8-5.5l0.4-8.1H176.4z"/>
	<path d="M185.5,173.7h4.2c1.6,0,2.9,0.3,4.1,0.8s2,1.3,2.6,2.3s0.9,2.1,0.9,3.4c0,2-0.7,3.5-2.1,4.7s-3.2,1.8-5.5,1.8h-8.5v-19h4.3   V173.7z M185.5,177.1v6.1h4.2c1,0,1.9-0.3,2.5-0.8s0.9-1.3,0.9-2.2s-0.3-1.7-0.9-2.3s-1.4-0.8-2.4-0.9H185.5z"/>
	<path d="M210.1,186.7v-19h7.7c2.6,0,4.6,0.5,5.9,1.4s2,2.2,2,3.9c0,0.9-0.3,1.7-0.8,2.4s-1.4,1.2-2.4,1.6c1.2,0.3,2.2,0.8,3,1.6   s1.1,1.7,1.1,2.8c0,1.8-0.7,3.1-2,4s-3.2,1.4-5.6,1.4H210.1z M214.3,175.5h3.5c2.4,0,3.6-0.7,3.6-2.1c0-1.5-1.1-2.3-3.4-2.3h-3.7   V175.5z M214.3,178.6v4.7h4.7c2.2,0,3.3-0.8,3.3-2.4c0-1.6-1.1-2.4-3.3-2.4H214.3z"/>
	<path d="M255.9,177.4c0,2.9-0.7,5.3-2,7s-3.1,2.6-5.4,2.6c-2.1,0-3.8-0.7-5-2.1v9h-4.3v-26.3h3.9l0.2,1.9c1.3-1.5,3-2.3,5.1-2.3   c2.3,0,4.1,0.9,5.5,2.6s2,4.1,2,7.2V177.4z M251.6,177c0-1.9-0.4-3.4-1.1-4.5s-1.8-1.7-3.2-1.7c-1.7,0-3,0.7-3.8,2.2v8.4   c0.8,1.5,2,2.2,3.8,2.2c1.4,0,2.4-0.5,3.2-1.6S251.6,179.2,251.6,177z"/>
	<path d="M270.8,186.7c-0.2-0.4-0.4-1-0.5-1.8c-1.4,1.4-3,2.1-5,2.1c-1.9,0-3.5-0.5-4.7-1.6s-1.8-2.4-1.8-4c0-2,0.8-3.6,2.3-4.7   s3.7-1.6,6.5-1.6h2.6v-1.2c0-1-0.3-1.8-0.8-2.4s-1.4-0.9-2.5-0.9c-1,0-1.8,0.2-2.4,0.7s-0.9,1.1-0.9,1.9h-4.3c0-1,0.3-2,1-2.9   s1.6-1.6,2.8-2.1s2.5-0.8,4-0.8c2.2,0,4,0.6,5.3,1.7s2,2.7,2,4.7v8.6c0,1.7,0.2,3.1,0.7,4.1v0.3H270.8z M266.1,183.6   c0.8,0,1.6-0.2,2.4-0.6s1.3-1,1.7-1.7v-3.6h-2.3c-1.6,0-2.8,0.3-3.6,0.8s-1.2,1.3-1.2,2.3c0,0.8,0.3,1.5,0.8,2   S265.2,183.6,266.1,183.6z"/>
	<path d="M293.4,172.9c0,0.8-0.3,1.6-0.8,2.3s-1.2,1.3-2.2,1.7c2.2,0.8,3.3,2.2,3.3,4.4c0,1.7-0.7,3.1-2.1,4.2s-3.3,1.6-5.7,1.6   c-1.5,0-2.8-0.2-4-0.7s-2.1-1.2-2.8-2.1s-1-2-1-3.2h4.3c0,0.8,0.3,1.4,1,1.9s1.6,0.8,2.6,0.8c1,0,1.9-0.2,2.5-0.7s0.9-1.1,0.9-1.9   c0-0.9-0.3-1.6-0.8-2s-1.4-0.6-2.5-0.6h-3.1v-3.1h3.2c1.9,0,2.9-0.8,2.9-2.4c0-0.8-0.3-1.4-0.8-1.8s-1.3-0.7-2.3-0.7   c-0.9,0-1.7,0.2-2.4,0.7s-1,1-1,1.7h-4.3c0-1.7,0.7-3,2.1-4.1s3.2-1.6,5.4-1.6c2.4,0,4.2,0.5,5.5,1.4S293.4,171.1,293.4,172.9z"/>
	<path d="M314,177.4c0,2.9-0.7,5.3-2,7s-3.1,2.6-5.4,2.6c-2.1,0-3.8-0.7-5-2.1v9h-4.3v-26.3h3.9l0.2,1.9c1.3-1.5,3-2.3,5.1-2.3   c2.3,0,4.1,0.9,5.5,2.6s2,4.1,2,7.2V177.4z M309.7,177c0-1.9-0.4-3.4-1.1-4.5s-1.8-1.7-3.2-1.7c-1.7,0-3,0.7-3.8,2.2v8.4   c0.8,1.5,2,2.2,3.8,2.2c1.4,0,2.4-0.5,3.2-1.6S309.7,179.2,309.7,177z"/>
	<path d="M329,186.7c-0.2-0.4-0.4-1-0.5-1.8c-1.4,1.4-3,2.1-5,2.1c-1.9,0-3.5-0.5-4.7-1.6s-1.8-2.4-1.8-4c0-2,0.8-3.6,2.3-4.7   s3.7-1.6,6.5-1.6h2.6v-1.2c0-1-0.3-1.8-0.8-2.4s-1.4-0.9-2.5-0.9c-1,0-1.8,0.2-2.4,0.7s-0.9,1.1-0.9,1.9h-4.3c0-1,0.3-2,1-2.9   s1.6-1.6,2.8-2.1s2.5-0.8,4-0.8c2.2,0,4,0.6,5.3,1.7s2,2.7,2,4.7v8.6c0,1.7,0.2,3.1,0.7,4.1v0.3H329z M324.3,183.6   c0.8,0,1.6-0.2,2.4-0.6s1.3-1,1.7-1.7v-3.6H326c-1.6,0-2.8,0.3-3.6,0.8s-1.2,1.3-1.2,2.3c0,0.8,0.3,1.5,0.8,2   S323.4,183.6,324.3,183.6z"/>
	<path d="M346,168.7c2.4,0,4.3,0.8,5.7,2.4s2.2,3.8,2.2,6.5v0.2c0,2.7-0.8,5-2.3,6.7s-3.7,2.5-6.4,2.5c-2.6,0-4.7-0.9-6.3-2.6   s-2.4-4.1-2.4-7.1v-1.2c0-4.1,0.7-7.3,2.2-9.7s3.6-3.9,6.5-4.5c1.6-0.3,2.7-0.7,3.1-1s0.7-0.9,0.7-1.5h3.4c0,1.2-0.2,2.1-0.6,2.9   s-1,1.3-1.8,1.8s-2.2,0.9-4.1,1.3c-1.8,0.4-3.1,1-4.1,2s-1.6,2.3-1.9,4C341.8,169.6,343.8,168.7,346,168.7z M345.2,172.1   c-1.4,0-2.5,0.5-3.3,1.4s-1.2,2.4-1.2,4.3c0,1.8,0.4,3.3,1.2,4.3s1.9,1.5,3.3,1.5c1.4,0,2.5-0.5,3.3-1.5s1.2-2.6,1.2-4.6   c0-1.6-0.4-2.9-1.2-3.9S346.6,172.1,345.2,172.1z"/>
	<path d="M356.5,177c0-1.9,0.4-3.5,1.1-5s1.8-2.6,3.1-3.4s2.9-1.2,4.6-1.2c2.6,0,4.6,0.8,6.2,2.5s2.5,3.8,2.6,6.6l0,1   c0,1.9-0.4,3.6-1.1,5s-1.8,2.6-3.1,3.4s-2.9,1.2-4.6,1.2c-2.7,0-4.8-0.9-6.4-2.7s-2.4-4.2-2.4-7.1V177z M360.8,177.4   c0,2,0.4,3.5,1.2,4.6s1.9,1.7,3.4,1.7s2.6-0.6,3.4-1.7s1.2-2.8,1.2-4.9c0-1.9-0.4-3.4-1.2-4.6s-1.9-1.7-3.4-1.7   c-1.4,0-2.5,0.6-3.3,1.7S360.8,175.2,360.8,177.4z"/>
	<path d="M392.2,171H386v15.6h-4.3V171h-6.1v-3.4h16.5V171z"/>
	<path d="M401.8,179.2h-2.2v7.5h-4.3v-19h4.3v7.6h1.9l5.3-7.6h5.3l-6.9,9.1l7.5,9.9h-5.6L401.8,179.2z"/>
	<path d="M423.1,187c-2.7,0-4.9-0.9-6.6-2.6s-2.5-4-2.5-6.8v-0.5c0-1.9,0.4-3.6,1.1-5.1s1.8-2.7,3.1-3.5s2.8-1.2,4.4-1.2   c2.6,0,4.6,0.8,6,2.5s2.1,4,2.1,7v1.7h-12.4c0.1,1.6,0.7,2.8,1.6,3.7s2.1,1.4,3.5,1.4c2,0,3.6-0.8,4.8-2.4l2.3,2.2   c-0.8,1.1-1.8,2-3,2.6S424.7,187,423.1,187z M422.6,170.7c-1.2,0-2.1,0.4-2.8,1.2s-1.2,2-1.4,3.4h8.1v-0.3   c-0.1-1.4-0.5-2.5-1.1-3.2S423.8,170.7,422.6,170.7z"/>
</g>
<g>
	<path class="st0" d="M287.2,322.2c0,3.3-11.5,6-25.7,6c-14.2,0-25.7-2.7-25.7-6c0-3.3,11.5-6,25.7-6   C275.7,316.2,287.2,318.9,287.2,322.2z"/>
	<path class="st1" d="M261.5,330.2c-7,0-13.6-0.6-18.6-1.8c-6.1-1.4-9-3.4-9-6.2c0-2.7,3-4.7,9-6.2c5-1.2,11.6-1.8,18.6-1.8   c7,0,13.6,0.6,18.6,1.8c6.1,1.4,9,3.4,9,6.2c0,2.7-3,4.7-9,6.2C275.1,329.5,268.5,330.2,261.5,330.2z M237.9,322.2   c0.5,0.5,2.4,1.6,6.9,2.6c4.6,1,10.5,1.5,16.7,1.5c6.2,0,12.1-0.5,16.7-1.5c4.6-1,6.4-2,6.9-2.6c-0.5-0.5-2.4-1.6-6.9-2.6   c-4.6-1-10.5-1.5-16.7-1.5c-6.2,0-12.1,0.5-16.7,1.5C240.3,320.6,238.4,321.7,237.9,322.2z"/>
</g>
<g>
	<polygon class="st2" points="112.8,298.3 102.9,298.3 99,320 116.7,320  "/>
	<polygon class="st3" points="99,320 116.7,320 115.3,312.1 100.4,312.1  "/>
	<polygon class="st3" points="113.9,304.2 112.8,298.3 102.9,298.3 101.8,304.2  "/>
	<path class="st4" d="M116.7,322H99c-1.1,0-2-0.9-2-2c0-1.1,0.9-2,2-2h17.8c1.1,0,2,0.9,2,2C118.7,321.1,117.8,322,116.7,322z"/>
</g>
<g>
	<polygon class="st2" points="397.1,320.4 387.2,320.4 383.3,342.1 401,342.1  "/>
	<polygon class="st3" points="383.3,342.1 401,342.1 399.6,334.3 384.7,334.3  "/>
	<polygon class="st3" points="398.2,326.4 397.1,320.4 387.2,320.4 386.1,326.4  "/>
	<path class="st4" d="M401,344.1h-17.8c-1.1,0-2-0.9-2-2c0-1.1,0.9-2,2-2H401c1.1,0,2,0.9,2,2C403,343.2,402.1,344.1,401,344.1z"/>
</g>
<g>
	<g>
		<path class="st1" d="M143.7,296.8h-2v-13.8c0-1.1-0.9-2-2-2c-1.1,0-2,0.9-2,2v13.8h-2c-1.1,0-2,0.9-2,2c0,1.1,0.9,2,2,2h7.9    c1.1,0,2-0.9,2-2C145.7,297.7,144.8,296.8,143.7,296.8z"/>
		<path class="st1" d="M202.9,296.8h-2v-13.8c0-1.1-0.9-2-2-2c-1.1,0-2,0.9-2,2v13.8h-2c-1.1,0-2,0.9-2,2c0,1.1,0.9,2,2,2h7.9    c1.1,0,2-0.9,2-2C204.9,297.7,204,296.8,202.9,296.8z"/>
	</g>
	<path class="st2" d="M208.8,284.9h-79v-39.5h79L208.8,284.9L208.8,284.9z"/>
	<g>
		<polygon class="st4" points="200.3,245.4 177.9,245.4 138.5,284.9 160.8,284.9   "/>
		<polygon class="st4" points="183.1,284.9 208.8,284.9 208.8,259.2   "/>
		<polygon class="st4" points="155.6,245.4 129.9,245.4 129.9,271.1   "/>
	</g>
</g>
<g id="truck">
	<g>
		<path class="st5" d="M325.1,194.8v-12.3c0-1.9-1.2-3.6-3-4.2L282.3,165c-2.9-0.9-5.8,1.2-5.8,4.2v25.6H325.1z"/>
		<rect x="179.3" y="275.8" class="st6" width="178.2" height="32.4"/>
		<circle class="st7" cx="227.9" cy="300.1" r="24.3"/>
		<circle class="st8" cx="227.9" cy="300.1" r="12.2"/>
		<circle class="st7" cx="179.3" cy="300.1" r="24.3"/>
		<circle class="st8" cx="179.3" cy="300.1" r="12.2"/>
		<path class="st9" d="M357.5,292H317v-16.2h-40.5v-89.1h65.8c4.1,0,7.5,3.1,8,7.1l5.6,45.2c1.1,8.3,1.6,16.7,1.6,25.1V292    L357.5,292z"/>
		<rect x="317" y="275.8" class="st5" width="40.5" height="16.2"/>
		<g>
			<path class="st5" d="M317,202.9h-20.3c-2.2,0-4.1,1.8-4.1,4.1v23.5c0,2.8,2,5.3,4.8,5.9l19.6,4.3V202.9z"/>
			<path class="st5" d="M355.9,239l-4.5-36.1h-54.7c-2.2,0-4.1,1.8-4.1,4.1v23.5c0,2.8,2,5.3,4.8,5.9l59.5,13.2     C356.7,246,356.4,242.5,355.9,239z"/>
		</g>
		<path class="st10" d="M317,240.7l39.9,8.9c-0.2-3.5-0.5-7.1-1-10.6l-4.5-36.1H317V240.7z"/>
	</g>
</g>
<path class="st11" d="M320.9,276.3c-14.3,0-25.9,11.6-25.9,25.9c0,2,0.2,4,0.7,5.9h50.4c0.4-1.9,0.7-3.9,0.7-5.9  C346.8,287.9,335.2,276.3,320.9,276.3z"/>
<g>
	<ellipse class="st7" cx="320.9" cy="312.3" rx="24.3" ry="18.1"/>
	<ellipse class="st8" cx="320.9" cy="312.3" rx="12.2" ry="9"/>
</g>
</svg>