<?xml version="1.0" encoding="UTF-8"?>
<svg width="24px" height="24px" viewBox="0 0 24 24" version="1.1" xmlns="http://www.w3.org/2000/svg" xmlns:xlink="http://www.w3.org/1999/xlink">
    <!-- Generator: Sketch 42 (36781) - http://www.bohemiancoding.com/sketch -->
    <title>adv</title>
    <desc>Created with Sketch.</desc>
    <defs></defs>
    <g id="Symbols" stroke="none" stroke-width="1" fill="none" fill-rule="evenodd">
        <g id="adv" fill-rule="nonzero" fill="#666666">
            <g id="icon" transform="translate(2.000000, 2.000000)">
                <g id="Capa_1">
                    <g id="Group">
                        <path d="M5.902,5.069 L3.163,5.074 C3.163,5.074 0.998,5.172 1.002,7.266 L1.002,7.324 C0.548,7.635 0.249,8.157 0.249,8.749 C0.249,9.343 0.55,9.867 1.006,10.178 C1.009,10.435 1.094,12.568 3.087,12.565 C3.087,12.565 3.912,12.595 3.841,13.916 L3.849,19.127 C3.849,19.127 3.718,19.964 4.557,19.963 C4.557,19.963 7.007,19.609 5.788,17.108 C6.705,16.159 5.394,15.605 5.916,14.051 C5.916,14.051 6.622,13.073 6.621,12.515 L6.653,5.861 C6.655,5.859 6.787,5.067 5.902,5.069 Z" id="Shape"></path>
                        <path d="M18.452,6.413 L18.442,0.331 C18.44,-0.464 17.77,0.421 17.77,0.421 C14.59,5.375 8.013,4.989 8.013,4.989 C7.237,4.99 7.361,5.652 7.361,5.652 L7.372,11.396 C7.372,12.058 8.067,12.057 8.067,12.057 C15.419,12.043 17.932,16.687 17.932,16.687 C17.932,16.687 18.512,17.407 18.471,16.656 L18.459,10.587 C19.203,10.186 19.717,9.404 19.715,8.497 C19.715,7.589 19.198,6.813 18.452,6.413 Z M11.215,5.598 C11.215,5.598 15.539,4.992 17.631,1.744 C17.631,1.744 16.819,5.541 11.215,5.598 Z M19.256,9.175 C19.256,9.175 19.479,8.14 18.647,6.921 C18.647,6.921 19.764,7.571 19.256,9.175 Z" id="Shape"></path>
                    </g>
                </g>
            </g>
        </g>
    </g>
</svg>