<?xml version="1.0" encoding="UTF-8"?>
<svg width="24px" height="24px" viewBox="0 0 24 24" version="1.1" xmlns="http://www.w3.org/2000/svg" xmlns:xlink="http://www.w3.org/1999/xlink">
    <!-- Generator: Sketch 42 (36781) - http://www.bohemiancoding.com/sketch -->
    <title>analitics_item</title>
    <desc>Created with Sketch.</desc>
    <defs></defs>
    <g id="Symbols" stroke="none" stroke-width="1" fill="none" fill-rule="evenodd">
        <g id="analitics_item" fill-rule="nonzero" fill="#666666">
            <g id="analitics_dark" transform="translate(3.000000, 2.000000)">
                <g id="Capa_1">
                    <g id="Layer_1_163_">
                        <g id="Group">
                            <path d="M18.1255319,0.909361702 C18.1255319,0.407234043 17.7182979,0 17.2165957,0 L1.30808511,0 C0.805957447,0 0.399148936,0.407234043 0.399148936,0.909361702 C0.399148936,1.24510638 0.582978723,1.53489362 0.853617021,1.69234043 L0.853617021,12.1638298 C1.09957447,11.9391489 1.3987234,11.6655319 1.76255319,11.332766 L1.76255319,1.81829787 L16.7617021,1.81829787 L16.7617021,11.8178723 L5.04723404,11.8178723 C4.74297872,12.1502128 4.46510638,12.4544681 4.21574468,12.7276596 L5.01787234,12.7276596 L3.38382979,18.8561702 C3.25446809,19.3412766 3.54297872,19.8395745 4.02808511,19.9685106 C4.5106383,20.0970213 5.01106383,19.8093617 5.14042553,19.3242553 L6.7787234,13.1808511 L11.7451064,13.1808511 L13.3838298,19.3242553 C13.4923404,19.7306383 13.8595745,19.9991489 14.2612766,19.9991489 C14.3395745,19.9991489 14.4178723,19.9897872 14.4961702,19.9685106 C14.9817021,19.8387234 15.2697872,19.3404255 15.1408511,18.8561702 L13.506383,12.727234 L17.2170213,12.727234 C17.4680851,12.727234 17.6710638,12.5238298 17.6710638,12.272766 L17.6710638,1.69234043 C17.9421277,1.53446809 18.1255319,1.24510638 18.1255319,0.909361702 Z" id="Shape"></path>
                            <path d="M9.94425532,10.1140426 L9.94425532,6.70510638 C9.94425532,6.20297872 9.53702128,5.79574468 9.03531915,5.79574468 C8.53361702,5.79574468 8.12638298,6.20297872 8.12638298,6.70510638 L8.12638298,10.1140426 C8.12638298,10.6170213 8.53361702,11.0238298 9.03531915,11.0238298 C9.53702128,11.0234043 9.94425532,10.6161702 9.94425532,10.1140426 Z" id="Shape"></path>
                            <path d="M12.8987234,10.1140426 L12.8987234,3.52255319 C12.8987234,3.02042553 12.4914894,2.61361702 11.9893617,2.61361702 C11.487234,2.61361702 11.0808511,3.02042553 11.0808511,3.52255319 L11.0808511,10.1140426 C11.0808511,10.6165957 11.4880851,11.0234043 11.9897872,11.0234043 C12.4914894,11.0229787 12.8987234,10.6161702 12.8987234,10.1140426 Z" id="Shape"></path>
                            <path d="M15.852766,10.1140426 L15.852766,5.34085106 C15.852766,4.83829787 15.4455319,4.43148936 14.9438298,4.43148936 C14.4417021,4.43148936 14.0344681,4.83829787 14.0344681,5.34085106 L14.0344681,10.1140426 C14.0344681,10.6170213 14.4417021,11.0238298 14.9438298,11.0238298 C15.4455319,11.0234043 15.852766,10.6161702 15.852766,10.1140426 Z" id="Shape"></path>
                            <path d="M6.77319149,8.27021277 C6.68680851,8.18425532 6.54595745,8.18382979 6.45957447,8.27021277 C6.45957447,8.27021277 0.374468085,13.8331915 0.345106383,13.8625532 C0.114468085,14.0931915 0.114468085,14.4676596 0.345106383,14.6987234 C0.576170213,14.9297872 0.950638298,14.9297872 1.1812766,14.6987234 C1.2106383,14.6702128 6.77319149,8.58468085 6.77319149,8.58468085 C6.86,8.49744681 6.85957447,8.35702128 6.77319149,8.27021277 Z" id="Shape"></path>
                        </g>
                    </g>
                </g>
            </g>
        </g>
    </g>
</svg>