<?xml version="1.0" encoding="UTF-8"?>
<svg width="32px" height="32px" viewBox="0 0 32 32" version="1.1" xmlns="http://www.w3.org/2000/svg" xmlns:xlink="http://www.w3.org/1999/xlink">
    <!-- Generator: Sketch 42 (36781) - http://www.bohemiancoding.com/sketch -->
    <title>Material/Icons white/analitics</title>
    <desc>Created with Sketch.</desc>
    <defs></defs>
    <g id="Symbols" stroke="none" stroke-width="1" fill="none" fill-rule="evenodd">
        <g id="Material/Icons-white/analitics" fill-rule="nonzero" fill="#666666">
            <g id="analitics_light" transform="translate(9.000000, 8.000000)">
                <g id="Capa_1">
                    <g id="Layer_1_163_">
                        <g id="Group">
                            <path d="M14.5004255,0.727489362 C14.5004255,0.325787234 14.1746383,0 13.7732766,0 L1.04646809,0 C0.644765957,0 0.319319149,0.325787234 0.319319149,0.727489362 C0.319319149,0.996085106 0.466382979,1.22791489 0.682893617,1.35387234 L0.682893617,9.73106383 C0.879659574,9.55131915 1.11897872,9.33242553 1.41004255,9.06621277 L1.41004255,1.4546383 L13.4093617,1.4546383 L13.4093617,9.45429787 L4.03778723,9.45429787 C3.79438298,9.72017021 3.57208511,9.96357447 3.37259574,10.1821277 L4.01429787,10.1821277 L2.70706383,15.0849362 C2.60357447,15.4730213 2.83438298,15.8716596 3.22246809,15.9748085 C3.60851064,16.077617 4.00885106,15.8474894 4.11234043,15.4594043 L5.42297872,10.5446809 L9.39608511,10.5446809 L10.7070638,15.4594043 C10.7938723,15.7845106 11.0876596,15.9993191 11.4090213,15.9993191 C11.4716596,15.9993191 11.5342979,15.9918298 11.5969362,15.9748085 C11.9853617,15.8709787 12.2158298,15.4723404 12.1126809,15.0849362 L10.8051064,10.1817872 L13.773617,10.1817872 C13.9744681,10.1817872 14.1368511,10.0190638 14.1368511,9.81821277 L14.1368511,1.35387234 C14.3537021,1.22757447 14.5004255,0.996085106 14.5004255,0.727489362 Z" id="Shape"></path>
                            <path d="M7.95540426,8.09123404 L7.95540426,5.36408511 C7.95540426,4.96238298 7.62961702,4.63659574 7.22825532,4.63659574 C6.82689362,4.63659574 6.50110638,4.96238298 6.50110638,5.36408511 L6.50110638,8.09123404 C6.50110638,8.49361702 6.82689362,8.81906383 7.22825532,8.81906383 C7.62961702,8.8187234 7.95540426,8.49293617 7.95540426,8.09123404 Z" id="Shape"></path>
                            <path d="M10.3189787,8.09123404 L10.3189787,2.81804255 C10.3189787,2.41634043 9.99319149,2.09089362 9.59148936,2.09089362 C9.18978723,2.09089362 8.86468085,2.41634043 8.86468085,2.81804255 L8.86468085,8.09123404 C8.86468085,8.4932766 9.19046809,8.8187234 9.59182979,8.8187234 C9.99319149,8.81838298 10.3189787,8.49293617 10.3189787,8.09123404 Z" id="Shape"></path>
                            <path d="M12.6822128,8.09123404 L12.6822128,4.27268085 C12.6822128,3.8706383 12.3564255,3.54519149 11.9550638,3.54519149 C11.5533617,3.54519149 11.2275745,3.8706383 11.2275745,4.27268085 L11.2275745,8.09123404 C11.2275745,8.49361702 11.5533617,8.81906383 11.9550638,8.81906383 C12.3564255,8.8187234 12.6822128,8.49293617 12.6822128,8.09123404 Z" id="Shape"></path>
                            <path d="M5.41855319,6.61617021 C5.34944681,6.54740426 5.23676596,6.54706383 5.16765957,6.61617021 C5.16765957,6.61617021 0.299574468,11.0665532 0.276085106,11.0900426 C0.0915744681,11.2745532 0.0915744681,11.5741277 0.276085106,11.7589787 C0.46093617,11.9438298 0.760510638,11.9438298 0.945021277,11.7589787 C0.968510638,11.7361702 5.41855319,6.86774468 5.41855319,6.86774468 C5.488,6.79795745 5.48765957,6.68561702 5.41855319,6.61617021 Z" id="Shape"></path>
                        </g>
                    </g>
                </g>
            </g>
        </g>
    </g>
</svg>