<?xml version="1.0" encoding="UTF-8"?>
<svg width="24px" height="24px" viewBox="0 0 24 24" version="1.1" xmlns="http://www.w3.org/2000/svg" xmlns:xlink="http://www.w3.org/1999/xlink">
    <!-- Generator: Sketch 42 (36781) - http://www.bohemiancoding.com/sketch -->
    <title>banks</title>
    <desc>Created with Sketch.</desc>
    <defs></defs>
    <g id="Symbols" stroke="none" stroke-width="1" fill="none" fill-rule="evenodd">
        <g id="banks" fill-rule="nonzero" fill="#666666">
            <g id="banks-copy" transform="translate(2.000000, 2.000000)">
                <g id="Capa_1">
                    <g id="Layer_1_78_">
                        <g id="Group">
                            <path d="M18.6854167,17.7991667 L0.89,17.7991667 C0.398333333,17.7991667 0,18.1975 0,18.6895833 C0,19.1808333 0.398333333,19.5791667 0.89,19.5791667 L18.685,19.5791667 C19.1766667,19.5791667 19.575,19.1808333 19.575,18.6895833 C19.5745833,18.1975 19.17625,17.7991667 18.6854167,17.7991667 Z" id="Shape"></path>
                            <path d="M2.00208333,15.4854167 C1.51041667,15.4854167 1.11208333,15.88375 1.11208333,16.3754167 C1.11208333,16.8670833 1.51041667,17.2658333 2.00208333,17.2658333 L17.5729167,17.2658333 C18.0645833,17.2658333 18.4629167,16.8670833 18.4629167,16.3754167 C18.4629167,15.88375 18.0645833,15.4854167 17.5729167,15.4854167 L17.3508333,15.4854167 L17.3508333,7.47708333 L17.5729167,7.47708333 C17.8191667,7.47708333 18.0175,7.27791667 18.0175,7.0325 C18.0175,6.78708333 17.8183333,6.58791667 17.5729167,6.58791667 L2.00208333,6.58791667 C1.75625,6.58791667 1.5575,6.78708333 1.5575,7.0325 C1.5575,7.27791667 1.75666667,7.47708333 2.00208333,7.47708333 L2.22458333,7.47708333 L2.22458333,15.485 L2.00208333,15.485 L2.00208333,15.4854167 Z M15.5708333,7.47708333 L15.5708333,15.485 L12.9016667,15.485 L12.9016667,7.47708333 L15.5708333,7.47708333 Z M11.1216667,7.47708333 L11.1216667,15.485 L8.4525,15.485 L8.4525,7.47708333 L11.1216667,7.47708333 Z M4.00375,7.47708333 L6.67291667,7.47708333 L6.67291667,15.485 L4.00375,15.485 L4.00375,7.47708333 Z" id="Shape"></path>
                            <path d="M0.89,5.78791667 L18.685,5.78791667 L18.69375,5.78791667 C19.1858333,5.78791667 19.58375,5.38958333 19.58375,4.89791667 C19.58375,4.50708333 19.3320833,4.17583333 18.9825,4.05583333 L10.1533333,0.0829166667 C9.92125,-0.02125 9.65583333,-0.02125 9.42333333,0.0829166667 L0.525,4.08666667 C0.142083333,4.25916667 -0.0683333333,4.675 0.02,5.085 C0.107916667,5.495 0.470416667,5.78791667 0.89,5.78791667 Z" id="Shape"></path>
                        </g>
                    </g>
                </g>
            </g>
        </g>
    </g>
</svg>