<?xml version="1.0" encoding="UTF-8"?>
<svg width="24px" height="24px" viewBox="0 0 24 24" version="1.1" xmlns="http://www.w3.org/2000/svg" xmlns:xlink="http://www.w3.org/1999/xlink">
    <!-- Generator: Sketch 42 (36781) - http://www.bohemiancoding.com/sketch -->
    <title>calendar</title>
    <desc>Created with Sketch.</desc>
    <defs></defs>
    <g id="Symbols" stroke="none" stroke-width="1" fill="none" fill-rule="evenodd">
        <g id="calendar" fill-rule="nonzero" fill="#666666">
            <g id="calendar-with-a-clock-time-tools" transform="translate(2.000000, 2.000000)">
                <g id="Capa_1">
                    <path d="M2.49596708,3.12 L2.49596708,0.62399177 C2.49596708,0.279053498 2.77502058,0 3.12004115,0 C3.46489712,0 3.74395062,0.279053498 3.74395062,0.62399177 L3.74395062,3.12 C3.74395062,3.46485597 3.46489712,3.74390947 3.12004115,3.74390947 C2.77502058,3.74395062 2.49596708,3.46485597 2.49596708,3.12 Z M13.1038683,3.74395062 C13.448642,3.74395062 13.7278601,3.46489712 13.7278601,3.12004115 L13.7278601,0.62399177 C13.7278601,0.279053498 13.448642,0 13.1038683,0 C12.75893,0 12.4796708,0.279053498 12.4796708,0.62399177 L12.4796708,3.12 C12.4796708,3.46485597 12.75893,3.74395062 13.1038683,3.74395062 Z M19.967572,14.9755556 C19.967572,17.7325926 17.7325103,19.9676132 14.975679,19.9676132 C12.2190535,19.9676132 9.98382716,17.7325926 9.98382716,14.9755556 C9.98382716,12.21893 12.2190123,9.98378601 14.975679,9.98378601 C17.7325103,9.98378601 19.967572,12.2188889 19.967572,14.9755556 Z M18.7197531,14.9755556 C18.7197531,12.9113169 17.0403292,11.2316872 14.9757202,11.2316872 C12.9112757,11.2316872 11.2318519,12.9112757 11.2318519,14.9755556 C11.2318519,17.0402058 12.9112757,18.7195885 14.9757202,18.7195885 C17.0403292,18.7195885 18.7197531,17.0402058 18.7197531,14.9755556 Z M4.99197531,7.48786008 L2.49596708,7.48786008 L2.49596708,9.98378601 L4.99197531,9.98378601 L4.99197531,7.48786008 Z M2.49596708,13.7277366 L4.99197531,13.7277366 L4.99197531,11.2316872 L2.49596708,11.2316872 L2.49596708,13.7277366 Z M6.23987654,9.98378601 L8.73592593,9.98378601 L8.73592593,7.48786008 L6.23987654,7.48786008 L6.23987654,9.98378601 Z M6.23987654,13.7277366 L8.73592593,13.7277366 L8.73592593,11.2316872 L6.23987654,11.2316872 L6.23987654,13.7277366 Z M1.24806584,14.8514815 L1.24806584,6.23983539 L14.9757202,6.23983539 L14.9757202,8.73584362 L16.2237449,8.73584362 L16.2237449,3.86831276 C16.2237449,3.11024691 15.6191358,2.49592593 14.8721811,2.49592593 L14.3517284,2.49592593 L14.3517284,3.12004115 C14.3517284,3.8073251 13.7922222,4.36798354 13.1039095,4.36798354 C12.4153909,4.36798354 11.8559259,3.8073251 11.8559259,3.12004115 L11.8559259,2.49592593 L4.36790123,2.49592593 L4.36790123,3.12004115 C4.36790123,3.8073251 3.80851852,4.36798354 3.1200823,4.36798354 C2.43148148,4.36798354 1.87205761,3.8073251 1.87205761,3.12004115 L1.87205761,2.49592593 L1.35222222,2.49592593 C0.605226337,2.49592593 4.11522634e-05,3.11024691 4.11522634e-05,3.86831276 L4.11522634e-05,14.8515226 C4.11522634e-05,15.6070782 0.605226337,16.223786 1.35222222,16.223786 L8.73592593,16.223786 L8.73592593,14.9755967 L1.35222222,14.9755967 C1.29567901,14.9755556 1.24806584,14.9171605 1.24806584,14.8514815 Z M12.4796708,9.98378601 L12.4796708,7.48786008 L9.98386831,7.48786008 L9.98386831,9.98378601 L12.4796708,9.98378601 Z M16.8476955,14.9755556 L14.975679,14.9755556 L14.975679,13.1035391 C14.975679,12.7588066 14.6966255,12.4797531 14.3516872,12.4797531 C14.006749,12.4797531 13.7278601,12.7588066 13.7278601,13.1035391 L13.7278601,15.5997531 C13.7278601,15.9445267 14.006749,16.2237449 14.3516872,16.2237449 L16.8476955,16.2237449 C17.1926337,16.2237449 17.4716872,15.9445267 17.4716872,15.5997531 C17.4716872,15.2548148 17.1926337,14.9755556 16.8476955,14.9755556 Z" id="Shape"></path>
                </g>
            </g>
        </g>
    </g>
</svg>