<?xml version="1.0" encoding="UTF-8"?>
<svg width="24px" height="24px" viewBox="0 0 24 24" version="1.1" xmlns="http://www.w3.org/2000/svg" xmlns:xlink="http://www.w3.org/1999/xlink">
    <!-- Generator: Sketch 42 (36781) - http://www.bohemiancoding.com/sketch -->
    <title>cash</title>
    <desc>Created with Sketch.</desc>
    <defs></defs>
    <g id="Symbols" stroke="none" stroke-width="1" fill="none" fill-rule="evenodd">
        <g id="cash" fill-rule="nonzero" fill="#666666">
            <g id="icon" transform="translate(2.000000, 2.000000)">
                <g id="Capa_1">
                    <g id="Group">
                        <path d="M18.5930769,10.56 L18.5930769,18.0984615 L4.13153846,18.0984615 L4.13153846,10.56 L18.5930769,10.56 L18.5930769,10.56 Z M19.8238462,9.32923077 L2.90076923,9.32923077 L2.90076923,19.3292308 L19.8238462,19.3292308 L19.8238462,9.32923077 L19.8238462,9.32923077 Z" id="Shape"></path>
                        <g transform="translate(2.307692, 9.230769)">
                            <path d="M12.9007692,0.0984615385 L14.6330769,1.83076923 C14.62,1.89461538 14.5946154,1.95384615 14.5946154,2.02153846 C14.5946154,2.57307692 15.0415385,3.01923077 15.5930769,3.01923077 C15.6607692,3.01923077 15.7192308,2.99384615 15.7830769,2.98153846 L17.5161538,4.71384615 L17.5161538,0.0984615385 L12.9007692,0.0984615385 Z" id="Shape"></path>
                            <circle id="Oval" cx="14.0546154" cy="5.09846154" r="0.998461538"></circle>
                            <ellipse id="Oval" cx="9.05461538" cy="5.09846154" rx="3.02" ry="2.62615385"></ellipse>
                            <ellipse id="Oval" cx="4.05461538" cy="5.09846154" rx="0.997692308" ry="0.997692308"></ellipse>
                            <path d="M0.593076923,4.71384615 L2.32538462,2.98153846 C2.38923077,2.99461538 2.44846154,3.02 2.51615385,3.02 C3.06769231,3.02 3.51384615,2.57307692 3.51384615,2.02153846 C3.51384615,1.95384615 3.48846154,1.89538462 3.47538462,1.83153846 L5.20846154,0.0984615385 L0.593076923,0.0984615385 L0.593076923,4.71384615 L0.593076923,4.71384615 Z" id="Shape"></path>
                            <path d="M3.51461538,8.17538462 C3.51461538,7.62384615 3.06769231,7.17769231 2.51615385,7.17769231 C2.44846154,7.17769231 2.39,7.20307692 2.32615385,7.21538462 L0.593076923,5.48307692 L0.593076923,10.0984615 L5.20846154,10.0984615 L3.47615385,8.36615385 C3.48923077,8.30230769 3.51461538,8.24230769 3.51461538,8.17538462 Z" id="Shape"></path>
                            <path d="M15.5930769,7.17692308 C15.0415385,7.17692308 14.5953846,7.62384615 14.5953846,8.17538462 C14.5953846,8.24307692 14.6207692,8.30153846 14.6338462,8.36538462 L12.9007692,10.0984615 L17.5161538,10.0984615 L17.5161538,5.48307692 L15.7838462,7.21538462 C15.72,7.20230769 15.6607692,7.17692308 15.5930769,7.17692308 Z" id="Shape"></path>
                        </g>
                        <g>
                            <ellipse id="Oval" cx="14.21" cy="6.54230769" rx="0.997692308" ry="0.997692308"></ellipse>
                            <path d="M1.74692308,9.32923077 C1.74692308,8.69230769 2.26384615,8.17538462 2.90076923,8.17538462 L3.53153846,8.17538462 L3.56,8.07692308 L12.4653846,3.2 L13.1461538,3.39846154 C13.1653846,3.46 13.1723077,3.52461538 13.2053846,3.58384615 C13.47,4.06846154 14.0761538,4.24461538 14.5607692,3.98 C14.6192308,3.94769231 14.6592308,3.89769231 14.7076923,3.85538462 L15.39,4.05538462 L16.9415385,6.88769231 L16.7423077,7.56923077 C16.6815385,7.58769231 16.6169231,7.59461538 16.5576923,7.62692308 C16.3323077,7.75 16.1823077,7.95153846 16.1030769,8.17538462 L19.05,8.17538462 L17.0607692,4.54230769 L17.0615385,4.54230769 L14.8438462,0.494615385 L10.7946154,2.71153846 L10.7953846,2.71153846 L4.04846154,6.40615385 L0,8.62307692 L1.74692308,11.8130769 L1.74692308,9.32923077 Z" id="Shape"></path>
                            <path d="M8.56230769,6.64153846 C7.89230769,7.00769231 7.41,7.56307692 7.13923077,8.17538462 L12.7030769,8.17538462 C12.6584615,7.94076923 12.5915385,7.71076923 12.4730769,7.49461538 C11.7753846,6.22230769 10.0253846,5.84076923 8.56230769,6.64153846 Z" id="Shape"></path>
                        </g>
                    </g>
                </g>
            </g>
        </g>
    </g>
</svg>