<?xml version="1.0" encoding="UTF-8"?>
<svg width="32px" height="32px" viewBox="0 0 32 32" version="1.1" xmlns="http://www.w3.org/2000/svg" xmlns:xlink="http://www.w3.org/1999/xlink">
    <!-- Generator: Sketch 42 (36781) - http://www.bohemiancoding.com/sketch -->
    <title>Material/Icons white/cashbox</title>
    <desc>Created with Sketch.</desc>
    <defs></defs>
    <g id="Symbols" stroke="none" stroke-width="1" fill="none" fill-rule="evenodd">
        <g id="Material/Icons-white/cashbox" fill-rule="nonzero" fill="#666666">
            <g id="commerce" transform="translate(6.000000, 6.000000)">
                <g id="Layer_1">
                    <path d="M19.5967863,15.2401077 L0.332135725,15.2401077 C0.148805212,15.2401077 0,15.3785966 0,15.5492327 L0,19.5689827 C0,19.7399294 0.148805212,19.8784183 0.332135725,19.8784183 L19.5967473,19.8784183 C19.7800778,19.8784183 19.9288831,19.7399294 19.9288831,19.5692933 L19.9288831,15.5492327 C19.928922,15.3785966 19.7801168,15.2401077 19.5967863,15.2401077 Z" id="Shape"></path>
                    <path d="M19.2646116,14.2461868 L17.5982112,5.57189735 C17.5693298,5.41485008 17.4318125,5.3008986 17.2717194,5.3008986 L15.9431376,5.3008986 L15.9431376,2.98176274 L17.2717194,2.98176274 C17.4550499,2.98176274 17.6038551,2.83333463 17.6038551,2.65046871 L17.6038551,0.33129403 C17.6038551,0.148428111 17.4550499,0 17.2717194,0 L11.9573532,0 C11.7740227,0 11.6252175,0.148428111 11.6252175,0.33129403 L11.6252175,2.65042989 C11.6252175,2.83329581 11.7740227,2.98172392 11.9573532,2.98172392 L13.285935,2.98172392 L13.285935,5.30085977 L7.63943307,5.30085977 L7.63943307,4.63823289 C7.63943307,4.45536697 7.49062786,4.30693886 7.30729734,4.30693886 L4.9822305,4.30693886 C4.79889998,4.30693886 4.65009477,4.45536697 4.65009477,4.63823289 L4.65009477,5.30085977 L2.65720257,5.30085977 C2.49710949,5.30085977 2.35959215,5.41481125 2.33071078,5.57185852 L0.664310374,14.246148 C0.626437638,14.4499018 0.788866136,14.577442 0.996446099,14.577442 L18.9324759,14.577442 C19.1400558,14.5775197 19.3024843,14.4499406 19.2646116,14.2461868 Z M13.9502454,2.98176274 L15.2788272,2.98176274 L15.2788272,5.3008986 L13.9502454,5.3008986 L13.9502454,2.98176274 Z M5.31436622,5.135271 C5.31436622,5.04383804 5.38874937,4.96960457 5.48045355,4.96960457 L6.80903537,4.96960457 C6.90070063,4.96960457 6.97512269,5.04379921 6.97512269,5.135271 L6.97512269,8.44832777 C6.97512269,8.53976073 6.90073955,8.6139942 6.80903537,8.6139942 L5.48045355,8.6139942 C5.38878829,8.6139942 5.31436622,8.53979955 5.31436622,8.44832777 L5.31436622,5.135271 L5.31436622,5.135271 Z M8.30370452,9.77354271 C8.30370452,9.86497567 8.22932137,9.93920914 8.13761719,9.93920914 L4.1518328,9.93920914 C4.06016754,9.93920914 3.98574547,9.8650145 3.98574547,9.77354271 L3.98574547,8.7796218 C3.98574547,8.68818884 4.06012862,8.61395537 4.1518328,8.61395537 L4.48396852,8.61395537 C4.57563378,8.61395537 4.65005585,8.68815001 4.65005585,8.7796218 L4.65005585,8.94528822 C4.65005585,9.12815414 4.79886106,9.27658225 4.98219157,9.27658225 L7.3072195,9.27658225 C7.49055001,9.27658225 7.63935522,9.12815414 7.63935522,8.94528822 L7.63935522,8.7796218 C7.63935522,8.68818884 7.71373837,8.61395537 7.80544255,8.61395537 L8.13757827,8.61395537 C8.22924353,8.61395537 8.30366559,8.68815001 8.30366559,8.7796218 L8.30366559,9.77354271 L8.30370452,9.77354271 Z M10.6287714,13.5835988 L9.96446099,13.5835988 C9.78078017,13.5835988 9.63232527,13.4351707 9.63232527,13.2523047 C9.63232527,13.0694388 9.78078017,12.9210107 9.96446099,12.9210107 L10.6287714,12.9210107 C10.8124522,12.9210107 10.9609071,13.0694388 10.9609071,13.2523047 C10.9609071,13.4351707 10.8124522,13.5835988 10.6287714,13.5835988 Z M10.6287714,12.258345 L9.96446099,12.258345 C9.78078017,12.258345 9.63232527,12.1099169 9.63232527,11.927051 C9.63232527,11.744185 9.78078017,11.5957569 9.96446099,11.5957569 L10.6287714,11.5957569 C10.8124522,11.5957569 10.9609071,11.744185 10.9609071,11.927051 C10.9609071,12.1099169 10.8124522,12.258345 10.6287714,12.258345 Z M10.6287714,10.9331301 L9.96446099,10.9331301 C9.78078017,10.9331301 9.63232527,10.7847019 9.63232527,10.601836 C9.63232527,10.4189701 9.78078017,10.270542 9.96446099,10.270542 L10.6287714,10.270542 C10.8124522,10.270542 10.9609071,10.4189701 10.9609071,10.601836 C10.9609071,10.7847019 10.8124522,10.9331301 10.6287714,10.9331301 Z M13.285935,13.5835988 L12.6216246,13.5835988 C12.4379438,13.5835988 12.2894889,13.4351707 12.2894889,13.2523047 C12.2894889,13.0694388 12.4379438,12.9210107 12.6216246,12.9210107 L13.285935,12.9210107 C13.4696158,12.9210107 13.6180707,13.0694388 13.6180707,13.2523047 C13.6180707,13.4351707 13.4696158,13.5835988 13.285935,13.5835988 Z M13.285935,12.258345 L12.6216246,12.258345 C12.4379438,12.258345 12.2894889,12.1099169 12.2894889,11.927051 C12.2894889,11.744185 12.4379438,11.5957569 12.6216246,11.5957569 L13.285935,11.5957569 C13.4696158,11.5957569 13.6180707,11.744185 13.6180707,11.927051 C13.6180707,12.1099169 13.4696158,12.258345 13.285935,12.258345 Z M13.285935,10.9331301 L12.6216246,10.9331301 C12.4379438,10.9331301 12.2894889,10.7847019 12.2894889,10.601836 C12.2894889,10.4189701 12.4379438,10.270542 12.6216246,10.270542 L13.285935,10.270542 C13.4696158,10.270542 13.6180707,10.4189701 13.6180707,10.601836 C13.6181097,10.7847019 13.4696158,10.9331301 13.285935,10.9331301 Z M15.9431376,13.5835988 L15.2788272,13.5835988 C15.0951464,13.5835988 14.9466915,13.4351707 14.9466915,13.2523047 C14.9466915,13.0694388 15.0951464,12.9210107 15.2788272,12.9210107 L15.9431376,12.9210107 C16.1268184,12.9210107 16.2752733,13.0694388 16.2752733,13.2523047 C16.2752733,13.4351707 16.1268184,13.5835988 15.9431376,13.5835988 Z M15.9431376,12.258345 L15.2788272,12.258345 C15.0951464,12.258345 14.9466915,12.1099169 14.9466915,11.927051 C14.9466915,11.744185 15.0951464,11.5957569 15.2788272,11.5957569 L15.9431376,11.5957569 C16.1268184,11.5957569 16.2752733,11.744185 16.2752733,11.927051 C16.2752733,12.1099169 16.1268184,12.258345 15.9431376,12.258345 Z M15.9431376,10.9331301 L15.2788272,10.9331301 C15.0951464,10.9331301 14.9466915,10.7847019 14.9466915,10.601836 C14.9466915,10.4189701 15.0951464,10.270542 15.2788272,10.270542 L15.9431376,10.270542 C16.1268184,10.270542 16.2752733,10.4189701 16.2752733,10.601836 C16.2752733,10.7847019 16.1268184,10.9331301 15.9431376,10.9331301 Z M16.2752733,8.94528822 C16.2752733,9.12815414 16.1264681,9.27658225 15.9431376,9.27658225 L9.96446099,9.27658225 C9.78113048,9.27658225 9.63232527,9.12815414 9.63232527,8.94528822 L9.63232527,6.62615237 C9.63232527,6.44328645 9.78113048,6.29485834 9.96446099,6.29485834 L15.9431376,6.29485834 C16.1264681,6.29485834 16.2752733,6.44328645 16.2752733,6.62615237 L16.2752733,8.94528822 L16.2752733,8.94528822 Z" id="Shape"></path>
                    <path d="M15.4449145,6.9574464 L10.462684,6.9574464 C10.3710188,6.9574464 10.2965967,7.03164104 10.2965967,7.12311282 L10.2965967,8.44832777 C10.2965967,8.53976073 10.3709799,8.6139942 10.462684,8.6139942 L15.4449145,8.6139942 C15.5365798,8.6139942 15.6110019,8.53979955 15.6110019,8.44832777 L15.6110019,7.12311282 C15.6110019,7.03167987 15.5365798,6.9574464 15.4449145,6.9574464 Z" id="Shape"></path>
                </g>
            </g>
        </g>
    </g>
</svg>