<?xml version="1.0" encoding="UTF-8"?>
<svg width="32px" height="32px" viewBox="0 0 32 32" version="1.1" xmlns="http://www.w3.org/2000/svg" xmlns:xlink="http://www.w3.org/1999/xlink">
    <!-- Generator: Sketch 42 (36781) - http://www.bohemiancoding.com/sketch -->
    <title>Material/Icons white/clients</title>
    <desc>Created with Sketch.</desc>
    <defs></defs>
    <g id="Symbols" stroke="none" stroke-width="1" fill="none" fill-rule="evenodd">
        <g id="Material/Icons-white/clients" fill-rule="nonzero" fill="#666666">
            <g id="people" transform="translate(7.000000, 6.000000)">
                <g id="Capa_1">
                    <g id="Group">
                        <path d="M8.58065545,11.1901996 C9.95308929,11.1901996 13.179859,9.54268606 13.179859,5.59504304 C13.1799159,2.50497637 12.7617289,0 8.58065545,0 C4.39963888,0 3.98145189,2.50497637 3.98145189,5.59509979 C3.98145189,9.54268606 7.20822162,11.1901996 8.58065545,11.1901996 Z M4.66883502,4.66131587 C4.99190453,4.03809341 5.69072224,3.31789497 7.19360129,3.349842 C7.19360129,3.349842 8.08936681,5.51713314 12.4870715,4.5438552 C12.5048207,4.89005207 12.5103957,5.24328523 12.5103957,5.59509979 C12.5103957,7.52468913 11.6562157,8.72029117 10.9395919,9.3834616 C10.0366584,10.2191347 9.03417017,10.5224329 8.58065545,10.5224329 C8.12714074,10.5224329 7.12465249,10.2191347 6.22171902,9.3834616 C5.50509523,8.72029117 4.65091516,7.52468913 4.65091516,5.59509979 C4.65097205,5.28294949 4.65552313,4.96972104 4.66883502,4.66131587 Z" id="Shape"></path>
                        <path d="M17.1192135,16.9283517 C16.8844348,15.4720097 16.4009968,13.5961004 15.4314469,12.9294686 C14.7693792,12.4741525 12.4594237,11.243142 11.4730349,10.717463 L11.4559683,10.7083839 C11.3432154,10.6482917 11.2055454,10.6603215 11.1049666,10.7390825 C10.5882488,11.143726 10.0222088,11.416439 9.4226045,11.5496179 C9.31667821,11.5731667 9.22975266,11.6482394 9.19123918,11.7494145 L8.58065545,13.354767 L7.97007173,11.7494145 C7.93155825,11.6482394 7.8446327,11.5731667 7.73870641,11.5496179 C7.13910215,11.416439 6.57306208,11.143726 6.0563443,10.7390825 C5.95576552,10.6603215 5.81809547,10.6482349 5.70534257,10.7083839 C4.73067277,11.2278778 2.39244373,12.4839692 1.73276527,12.9274825 C0.616670789,13.6774717 0.128624784,16.3918345 0.0421543408,16.9283517 C0.033564185,16.9815778 0.0385703685,17.0359956 0.0565471185,17.0867817 C0.0964828098,17.1992489 1.12081623,19.8416032 8.58065545,19.8416032 C16.0404947,19.8416032 17.0648281,17.1992489 17.1047638,17.0867817 C17.1227974,17.0359956 17.1278036,16.9815211 17.1192135,16.9283517 Z M13.681672,16.0396795 L12.2215162,16.4936337 L10.7613604,16.0396795 L10.7613604,15.2560409 L13.681672,15.2560409 L13.681672,16.0396795 Z" id="Shape"></path>
                    </g>
                </g>
            </g>
        </g>
    </g>
</svg>