<?xml version="1.0" encoding="utf-8"?>
<!-- Generator: Adobe Illustrator 21.0.2, SVG Export Plug-In . SVG Version: 6.00 Build 0)  -->
<svg version="1.1" id="Layer_1" xmlns="http://www.w3.org/2000/svg" xmlns:xlink="http://www.w3.org/1999/xlink" x="0px" y="0px"
	 viewBox="0 0 32 32" style="enable-background:new 0 0 32 32;" xml:space="preserve">
<style type="text/css">
	.st0{fill:#212121;}
</style>
<title>Material/Icons white/clients</title>
<desc>Created with Sketch.</desc>
<g id="Symbols">
	<g id="Material_x2F_Icons-white_x2F_clients">
		<g id="people" transform="translate(7.000000, 6.000000)">
			<g id="Capa_1">
				<g id="Group">
					<path id="Shape" class="st0" d="M8.6,11.2c1.4,0,4.6-1.6,4.6-5.6c0-3.1-0.4-5.6-4.6-5.6C4.4,0,4,2.5,4,5.6
						C4,9.5,7.2,11.2,8.6,11.2z M4.7,4.7C5,4,5.7,3.3,7.2,3.3c0,0,0.9,2.2,5.3,1.2c0,0.3,0,0.7,0,1.1c0,1.9-0.9,3.1-1.6,3.8
						C10,10.2,9,10.5,8.6,10.5c-0.5,0-1.5-0.3-2.4-1.1C5.5,8.7,4.7,7.5,4.7,5.6C4.7,5.3,4.7,5,4.7,4.7z"/>
					<path id="Shape_1_" class="st0" d="M17.1,16.9c-0.2-1.5-0.7-3.3-1.7-4c-0.7-0.5-3-1.7-4-2.2l0,0c-0.1-0.1-0.3,0-0.4,0
						c-0.5,0.4-1.1,0.7-1.7,0.8c-0.1,0-0.2,0.1-0.2,0.2l-0.6,1.6L8,11.7c0-0.1-0.1-0.2-0.2-0.2c-0.6-0.1-1.2-0.4-1.7-0.8
						c-0.1-0.1-0.2-0.1-0.4,0c-1,0.5-3.3,1.8-4,2.2c-1.1,0.7-1.6,3.5-1.7,4c0,0.1,0,0.1,0,0.2c0,0.1,1.1,2.8,8.5,2.8
						s8.5-2.6,8.5-2.8C17.1,17,17.1,17,17.1,16.9z M13.7,16l-1.5,0.5L10.8,16v-0.8h2.9V16z"/>
				</g>
			</g>
		</g>
	</g>
</g>
</svg>
