<?xml version="1.0" encoding="UTF-8"?>
<svg width="32px" height="32px" viewBox="0 0 32 32" version="1.1" xmlns="http://www.w3.org/2000/svg" xmlns:xlink="http://www.w3.org/1999/xlink">
    <!-- Generator: Sketch 42 (36781) - http://www.bohemiancoding.com/sketch -->
    <title>Material/Icons white/costs</title>
    <desc>Created with Sketch.</desc>
    <defs></defs>
    <g id="Symbols" stroke="none" stroke-width="1" fill="none" fill-rule="evenodd">
        <g id="Material/Icons-white/costs" fill-rule="nonzero" fill="#666666">
            <g id="abacus" transform="translate(6.000000, 6.000000)">
                <g id="Layer_1">
                    <path d="M19.1479675,0 L15.8178862,0 C15.3575203,0 14.9853659,0.37296748 14.9853659,0.832520325 L14.9853659,3.3300813 L13.3203252,3.3300813 L13.3203252,2.49756098 C13.3203252,2.03800813 12.9481707,1.66504065 12.4878049,1.66504065 C12.027439,1.66504065 11.6552846,2.03800813 11.6552846,2.49756098 L11.6552846,3.3300813 L8.32520325,3.3300813 L8.32520325,2.49756098 C8.32520325,2.03800813 7.95304878,1.66504065 7.49268293,1.66504065 C7.03231707,1.66504065 6.6601626,2.03800813 6.6601626,2.49756098 L6.6601626,3.3300813 L4.99512195,3.3300813 L4.99512195,0.832520325 C4.99512195,0.37296748 4.62296748,0 4.16260163,0 L0.832520325,0 C0.372154472,0 0,0.37296748 0,0.832520325 L0,19.1479675 C0,19.6075203 0.372154472,19.9804878 0.832520325,19.9804878 L4.16260163,19.9804878 C4.62296748,19.9804878 4.99512195,19.6075203 4.99512195,19.1479675 L4.99512195,16.6504065 L6.6601626,16.6504065 L6.6601626,17.4829268 C6.6601626,17.9424797 7.03231707,18.3154472 7.49268293,18.3154472 C7.95304878,18.3154472 8.32520325,17.9424797 8.32520325,17.4829268 L8.32520325,16.6504065 L11.6552846,16.6504065 L11.6552846,17.4829268 C11.6552846,17.9424797 12.027439,18.3154472 12.4878049,18.3154472 C12.9481707,18.3154472 13.3203252,17.9424797 13.3203252,17.4829268 L13.3203252,16.6504065 L14.9853659,16.6504065 L14.9853659,19.1479675 C14.9853659,19.6075203 15.3575203,19.9804878 15.8178862,19.9804878 L19.1479675,19.9804878 C19.6083333,19.9804878 19.9804878,19.6075203 19.9804878,19.1479675 L19.9804878,0.832520325 C19.9804878,0.37296748 19.6083333,0 19.1479675,0 Z M14.9853659,14.9853659 L13.3203252,14.9853659 L13.3203252,14.1528455 C13.3203252,13.6932927 12.9481707,13.3203252 12.4878049,13.3203252 C12.027439,13.3203252 11.6552846,13.6932927 11.6552846,14.1528455 L11.6552846,14.9853659 L8.32520325,14.9853659 L8.32520325,14.1528455 C8.32520325,13.6932927 7.95304878,13.3203252 7.49268293,13.3203252 C7.03231707,13.3203252 6.6601626,13.6932927 6.6601626,14.1528455 L6.6601626,14.9853659 L4.99512195,14.9853659 L4.99512195,10.8227642 L9.15772358,10.8227642 L9.15772358,11.6552846 C9.15772358,12.1148374 9.52987805,12.4878049 9.9902439,12.4878049 C10.4506098,12.4878049 10.8227642,12.1148374 10.8227642,11.6552846 L10.8227642,10.8227642 L14.9853659,10.8227642 L14.9853659,14.9853659 Z M14.9853659,9.15772358 L10.8227642,9.15772358 L10.8227642,8.32520325 C10.8227642,7.86565041 10.4506098,7.49268293 9.9902439,7.49268293 C9.52987805,7.49268293 9.15772358,7.86565041 9.15772358,8.32520325 L9.15772358,9.15772358 L4.99512195,9.15772358 L4.99512195,4.99512195 L6.6601626,4.99512195 L6.6601626,5.82764228 C6.6601626,6.28719512 7.03231707,6.6601626 7.49268293,6.6601626 C7.95304878,6.6601626 8.32520325,6.28719512 8.32520325,5.82764228 L8.32520325,4.99512195 L11.6552846,4.99512195 L11.6552846,5.82764228 C11.6552846,6.28719512 12.027439,6.6601626 12.4878049,6.6601626 C12.9481707,6.6601626 13.3203252,6.28719512 13.3203252,5.82764228 L13.3203252,4.99512195 L14.9853659,4.99512195 L14.9853659,9.15772358 L14.9853659,9.15772358 Z" id="Shape"></path>
                </g>
            </g>
        </g>
    </g>
</svg>