<?xml version="1.0" encoding="UTF-8"?>
<svg width="24px" height="24px" viewBox="0 0 24 24" version="1.1" xmlns="http://www.w3.org/2000/svg" xmlns:xlink="http://www.w3.org/1999/xlink">
    <!-- Generator: Sketch 42 (36781) - http://www.bohemiancoding.com/sketch -->
    <title>credit_cards</title>
    <desc>Created with Sketch.</desc>
    <defs></defs>
    <g id="Symbols" stroke="none" stroke-width="1" fill="none" fill-rule="evenodd">
        <g id="credit_cards" fill-rule="nonzero" fill="#666666">
            <g id="credit-cards-payment" transform="translate(2.000000, 3.000000)">
                <g id="Capa_1">
                    <g id="Group">
                        <path d="M19.2362745,2.62274333 L6.98732026,0.0284863946 C6.46908497,-0.0812401884 5.95542484,0.253368655 5.84578431,0.772010727 L5.6130719,2.26867478 L19.7463072,5.26183935 L19.9790196,3.7651753 C20.0886601,3.24672946 19.7545098,2.73250262 19.2362745,2.62274333 Z" id="Shape"></path>
                        <path d="M14.0852614,5.57924516 C13.9421895,5.06361198 13.4037582,4.75883046 12.8886928,4.90178571 L10.5633987,5.54781528 L5.08163399,4.38677394 L4.47875817,7.23753925 L0.711960784,8.28385008 C0.196928105,8.42683804 -0.107614379,8.96569205 0.0352287582,9.4811617 L2.15803922,17.1367739 C2.30111111,17.6522109 2.83957516,17.9571886 3.35460784,17.8140372 L15.5313399,14.4322017 C16.0463725,14.2890175 16.350915,13.7503598 16.2080719,13.2346939 L15.8436928,11.9204605 L17.2093464,12.2094126 C17.7275817,12.3193354 18.2412418,11.9847266 18.3508824,11.4660845 L19.214902,7.37997122 L14.2957516,6.33820644 L14.0852614,5.57924516 Z M15.4915033,9.47013998 L15.7926471,8.04575484 C15.8378758,7.83248299 16.049183,7.69492412 16.2622549,7.73995945 L17.6855229,8.04153585 C17.8988235,8.0868001 18.0362745,8.29804422 17.9912745,8.5115123 L17.6901307,9.93589744 C17.644902,10.1491693 17.4336275,10.2869244 17.2205229,10.2416928 L15.7972549,9.94031266 C15.5837582,9.89488488 15.4462745,9.68341183 15.4915033,9.47013998 Z M0.923856209,9.04781528 L4.29362745,8.1122449 L12.2445752,5.90407509 L13.1001634,5.66617609 C13.1157843,5.66195709 13.1313725,5.65996206 13.1466013,5.65996206 C13.2152288,5.65996206 13.2972876,5.70503009 13.3212745,5.79133961 L13.421732,6.15338828 L13.7364706,7.28839613 L1.21398693,10.7661565 L0.79879085,9.26929618 C0.772777778,9.1753663 0.83003268,9.07384877 0.923856209,9.04781528 Z M15.4444771,13.4465267 C15.4604902,13.5046115 15.4436928,13.5526557 15.4266667,13.5827119 C15.4098693,13.6127355 15.377451,13.6520147 15.3194118,13.6680076 L3.1429085,17.049843 C3.12751634,17.054062 3.11169935,17.0562533 3.09647059,17.0562533 C3.02784314,17.0562533 2.94578431,17.010989 2.92179739,16.9246795 L1.68362745,12.4592818 L14.2061111,8.98132522 L14.9698693,11.7353807 L15.4444771,13.4465267 Z" id="Shape"></path>
                        <path d="M5.11042484,13.7520931 C5.05199346,13.5418302 4.83267974,13.4176805 4.6225817,13.4759615 L3.20052288,13.8710426 C2.99062092,13.9293237 2.86637255,14.1490058 2.92480392,14.3592687 L3.31937908,15.7822475 C3.37781046,15.9925105 3.59712418,16.1166601 3.80722222,16.0581829 L5.22928105,15.663298 C5.43937908,15.605017 5.56343137,15.3853349 5.50519608,15.175072 L5.11042484,13.7520931 Z" id="Shape"></path>
                    </g>
                </g>
            </g>
        </g>
    </g>
</svg>