<?xml version="1.0" encoding="UTF-8"?>
<svg width="12px" height="16px" viewBox="0 0 12 16" version="1.1" xmlns="http://www.w3.org/2000/svg" xmlns:xlink="http://www.w3.org/1999/xlink">
    <!-- Generator: Sketch 42 (36781) - http://www.bohemiancoding.com/sketch -->
    <title>Material/Icons red/delete</title>
    <desc>Created with Sketch.</desc>
    <defs></defs>
    <g id="Page-1" stroke="none" stroke-width="1" fill="none" fill-rule="evenodd">
        <g id="User-add" transform="translate(-991.000000, -498.000000)" fill="#F44336">
            <g id="Material/Icons-red/delete" transform="translate(985.000000, 494.000000)">
                <g id="rubbish-bin" transform="translate(6.000000, 4.000000)">
                    <g id="Capa_1" fill-rule="nonzero">
                        <g id="Group">
                            <path d="M10.9497553,1.7746445 L8.92602284,1.7746445 L8.92602284,0.466995318 C8.92602284,0.203783668 8.71250897,-8.8817842e-16 8.44782382,-8.8817842e-16 C8.42214029,-8.8817842e-16 8.40501142,0.00852586175 8.39665253,0.0170322581 C8.3880783,0.00852586175 8.37094943,-8.8817842e-16 8.36239478,-8.8817842e-16 L3.60610767,-8.8817842e-16 L3.57204568,-8.8817842e-16 L3.53778793,-8.8817842e-16 C3.27310277,-8.8817842e-16 3.06816313,0.203783668 3.06816313,0.466995318 L3.06816313,1.77466396 L1.03587602,1.77466396 C0.455119086,1.77466396 0.00260358891,2.22462702 0.00260358891,2.80210817 L0.00260358891,3.54932793 L0.00260358891,4.4832991 L0.899236542,4.4832991 L0.899236542,14.0525083 C0.899236542,14.6300089 1.34319739,15.0714461 1.92395432,15.0714461 L10.0616966,15.0714461 C10.6424535,15.0714461 11.0949494,14.6300089 11.0949494,14.0525083 L11.0949494,4.4832991 L11.9830277,4.4832991 L11.9830277,3.54932793 L11.9830277,2.80210817 C11.9830277,2.22462702 11.5303361,1.7746445 10.9497553,1.7746445 Z M4.0074323,0.933971171 L7.97819902,0.933971171 L7.97819902,1.7746445 L4.0074323,1.7746445 L4.0074323,0.933971171 L4.0074323,0.933971171 Z M10.1471256,14.0525278 C10.1471256,14.1121115 10.1214421,14.1374555 10.0616966,14.1374555 L1.92395432,14.1374555 C1.86420881,14.1374555 1.83852529,14.112092 1.83852529,14.0525278 L1.83852529,4.48327963 L10.1471256,4.48327963 L10.1471256,14.0525278 L10.1471256,14.0525278 Z M11.0352039,3.54930846 L0.950427406,3.54930846 L0.950427406,2.8020887 C0.950427406,2.74266072 0.97611093,2.70861567 1.03585644,2.70861567 L10.9497553,2.70861567 C11.0095204,2.70861567 11.0352039,2.74266072 11.0352039,2.8020887 L11.0352039,3.54930846 Z" id="Shape"></path>
                            <rect id="Rectangle-path" x="7.71349429" y="5.57865821" width="0.947823817" height="7.72664981"></rect>
                            <rect id="Rectangle-path" x="5.5274584" y="5.57865821" width="0.947823817" height="7.72664981"></rect>
                            <rect id="Rectangle-path" x="3.34140294" y="5.57865821" width="0.947823817" height="7.72664981"></rect>
                        </g>
                    </g>
                </g>
            </g>
        </g>
    </g>
</svg>