<?xml version="1.0" encoding="UTF-8"?>
<svg width="24px" height="24px" viewBox="0 0 24 24" version="1.1" xmlns="http://www.w3.org/2000/svg" xmlns:xlink="http://www.w3.org/1999/xlink">
    <!-- Generator: Sketch 42 (36781) - http://www.bohemiancoding.com/sketch -->
    <title>employers</title>
    <desc>Created with Sketch.</desc>
    <defs></defs>
    <g id="Symbols" stroke="none" stroke-width="1" fill="none" fill-rule="evenodd">
        <g id="employers" fill-rule="nonzero" fill="#666666">
            <g id="multiple-users-silhouette" transform="translate(2.000000, 4.000000)">
                <g id="Capa_1">
                    <path d="M11.9395062,2.9437037 C12.854321,3.51728395 13.4958025,4.48790123 13.6125926,5.6145679 C13.985679,5.78888889 14.3997531,5.8891358 14.8387654,5.8891358 C16.4414815,5.8891358 17.7404938,4.59012346 17.7404938,2.98765432 C17.7404938,1.38493827 16.4414815,0.0859259259 14.8387654,0.0859259259 C13.251358,0.0864197531 11.9637037,1.36222222 11.9395062,2.9437037 Z M10.0385185,8.88493827 C11.6412346,8.88493827 12.9402469,7.58567901 12.9402469,5.98320988 C12.9402469,4.38074074 11.6409877,3.0817284 10.0385185,3.0817284 C8.43604938,3.0817284 7.1362963,4.38098765 7.1362963,5.98345679 C7.1362963,7.58592593 8.43604938,8.88493827 10.0385185,8.88493827 Z M11.2693827,9.08271605 L8.80716049,9.08271605 C6.75851852,9.08271605 5.09185185,10.7496296 5.09185185,12.7982716 L5.09185185,15.8093827 L5.09950617,15.8565432 L5.30691358,15.9214815 C7.26197531,16.5323457 8.96049383,16.7360494 10.3585185,16.7360494 C13.0891358,16.7360494 14.6718519,15.9575309 14.7693827,15.9079012 L14.9632099,15.8098765 L14.9839506,15.8098765 L14.9839506,12.7982716 C14.9846914,10.7496296 13.3180247,9.08271605 11.2693827,9.08271605 Z M16.0701235,6.08716049 L13.6269136,6.08716049 C13.6004938,7.06469136 13.1832099,7.94493827 12.5232099,8.57802469 C14.3441975,9.11950617 15.6765432,10.8081481 15.6765432,12.802716 L15.6765432,13.7306173 C18.0888889,13.6422222 19.4790123,12.9585185 19.5706173,12.9125926 L19.7644444,12.814321 L19.7851852,12.814321 L19.7851852,9.80222222 C19.7851852,7.75382716 18.1185185,6.08716049 16.0701235,6.08716049 Z M4.94691358,5.88962963 C5.5145679,5.88962963 6.04271605,5.72395062 6.49012346,5.4417284 C6.63234568,4.51407407 7.12962963,3.70345679 7.84,3.15135802 C7.84296296,3.09703704 7.84814815,3.04320988 7.84814815,2.98839506 C7.84814815,1.38567901 6.54888889,0.0866666667 4.94691358,0.0866666667 C3.34395062,0.0866666667 2.04518519,1.38567901 2.04518519,2.98839506 C2.04518519,4.59037037 3.34395062,5.88962963 4.94691358,5.88962963 Z M7.55283951,8.57802469 C6.89604938,7.94814815 6.48024691,7.07259259 6.44987654,6.10098765 C6.35925926,6.09432099 6.26962963,6.08716049 6.17728395,6.08716049 L3.71530864,6.08716049 C1.66666667,6.08716049 0,7.75382716 0,9.80222222 L0,12.8138272 L0.00765432099,12.8602469 L0.215061728,12.925679 C1.78345679,13.4153086 3.18320988,13.6409877 4.39901235,13.7120988 L4.39901235,12.802716 C4.39950617,10.8081481 5.73135802,9.12 7.55283951,8.57802469 Z" id="Shape"></path>
                </g>
            </g>
        </g>
    </g>
</svg>