<?xml version="1.0" encoding="UTF-8"?>
<svg width="24px" height="24px" viewBox="0 0 24 24" version="1.1" xmlns="http://www.w3.org/2000/svg" xmlns:xlink="http://www.w3.org/1999/xlink">
    <!-- Generator: Sketch 42 (36781) - http://www.bohemiancoding.com/sketch -->
    <title>fin_politics</title>
    <desc>Created with Sketch.</desc>
    <defs></defs>
    <g id="Symbols" stroke="none" stroke-width="1" fill="none" fill-rule="evenodd">
        <g id="fin_politics" fill-rule="nonzero" fill="#666666">
            <g id="fin_politics-copy" transform="translate(2.000000, 2.000000)">
                <g id="Capa_1">
                    <g id="Group">
                        <path d="M5.09090909,5.24793388 L0.648760331,5.24793388 C0.289256198,5.24793388 0,5.53719008 0,5.89669421 L0,18.731405 C0,19.0909091 0.289256198,19.3801653 0.648760331,19.3801653 L5.09090909,19.3801653 C5.45041322,19.3801653 5.73966942,19.0909091 5.73966942,18.731405 L5.73966942,5.89669421 C5.74380165,5.53719008 5.45041322,5.24793388 5.09090909,5.24793388 Z M4.44214876,18.0826446 L1.29752066,18.0826446 L1.29752066,6.54545455 L4.44214876,6.54545455 L4.44214876,18.0826446 Z" id="Shape"></path>
                        <path d="M19.3429752,8.65289256 L14.9008264,8.65289256 C14.5413223,8.65289256 14.2520661,8.94214876 14.2520661,9.30165289 L14.2520661,18.731405 C14.2520661,19.0909091 14.5413223,19.3801653 14.9008264,19.3801653 L19.3429752,19.3801653 C19.7024793,19.3801653 19.9917355,19.0909091 19.9917355,18.731405 L19.9917355,9.30165289 C19.9917355,8.94214876 19.7024793,8.65289256 19.3429752,8.65289256 Z M15.5495868,9.95041322 L16.5578512,9.95041322 L15.5495868,10.9586777 L15.5495868,9.95041322 Z M15.5495868,11.9917355 L17.5867769,9.95454545 L18.6157025,9.95454545 L15.5495868,13.0206612 L15.5495868,11.9917355 L15.5495868,11.9917355 Z M18.6942149,18.0826446 L17.6818182,18.0826446 L18.6942149,17.0702479 L18.6942149,18.0826446 Z M18.6942149,16.0413223 L16.6528926,18.0826446 L15.6239669,18.0826446 L18.6900826,15.0165289 L18.6900826,16.0413223 L18.6942149,16.0413223 L18.6942149,16.0413223 Z M18.6942149,13.9876033 L15.5495868,17.1322314 L15.5495868,16.1033058 L18.6942149,12.9586777 L18.6942149,13.9876033 Z M18.6942149,11.9297521 L15.5495868,15.0743802 L15.5495868,14.0454545 L18.6942149,10.9008264 L18.6942149,11.9297521 Z" id="Shape"></path>
                        <path d="M12.2190083,0.0330578512 L7.77272727,0.0330578512 C7.41322314,0.0330578512 7.12396694,0.32231405 7.12396694,0.681818182 L7.12396694,18.731405 C7.12396694,19.0909091 7.41322314,19.3801653 7.77272727,19.3801653 L12.214876,19.3801653 C12.5743802,19.3801653 12.8636364,19.0909091 12.8636364,18.731405 L12.8636364,0.681818182 C12.8677686,0.32231405 12.5785124,0.0330578512 12.2190083,0.0330578512 Z" id="Shape"></path>
                    </g>
                </g>
            </g>
        </g>
    </g>
</svg>