<?xml version="1.0" encoding="UTF-8"?>
<svg width="24px" height="24px" viewBox="0 0 24 24" version="1.1" xmlns="http://www.w3.org/2000/svg" xmlns:xlink="http://www.w3.org/1999/xlink">
    <!-- Generator: Sketch 42 (36781) - http://www.bohemiancoding.com/sketch -->
    <title>fuel</title>
    <desc>Created with Sketch.</desc>
    <defs></defs>
    <g id="Symbols" stroke="none" stroke-width="1" fill="none" fill-rule="evenodd">
        <g id="fuel" fill-rule="nonzero" fill="#666666">
            <g id="fuel-station-pump" transform="translate(2.000000, 2.000000)">
                <g id="Capa_1">
                    <path d="M9.63625,0 L0.93,0 C0.4265,0 0.018,0.4085 0.018,0.912 L0.018,19.51875 L10.547,19.51875 L10.547,0.912 C10.547,0.4085 10.1405,0 9.63625,0 Z M9.23625,6.95675 L1.33075,6.95675 L1.33075,1.77875 L9.2365,1.77875 L9.2365,6.95675 L9.23625,6.95675 Z M14.7315,19.884 C12.56975,19.884 11.2595,18.3965 11.13525,15.80375 C11.0835,14.781 11.33975,13.656 11.61025,12.46375 C11.8135,11.568 12.02575,10.64375 12.1255,9.693 C12.22525,8.7395 12.07525,8.41525 11.97675,8.3065 C11.79425,8.10325 11.257,8.10325 10.73775,8.10325 L10.48225,8.10325 L10.48225,6.83925 L10.73775,6.83925 C11.4965,6.83925 12.3575,6.83925 12.9165,7.46075 C13.354,7.945 13.50175,8.6975 13.38375,9.82575 C13.27625,10.8485 13.0575,11.81425 12.8455,12.74625 C12.5955,13.8505 12.3575,14.89525 12.3975,15.74175 C12.48925,17.6525 13.27525,18.61975 14.7315,18.61975 C16.3315,18.61975 17.14325,17.6085 17.14325,15.61475 C17.14325,13.9655 16.6305,12.6815 16.29,11.83225 L16.15675,11.4905 C15.8035,10.565 15.75675,9.73525 15.7205,8.4775 C15.68425,7.25675 15.6985,5.95125 16.0365,4.661 C16.377,3.3635 17.07725,2.731 18.236,1.68375 L18.5155,1.42925 L19.366,2.36525 L19.0825,2.621 C17.999,3.6015 17.5045,4.04875 17.25975,4.98275 C16.962,6.11675 16.95275,7.31475 16.98375,8.4405 C17.019,9.6675 17.06675,10.32525 17.3385,11.03975 L17.4655,11.36075 C17.82025,12.2435 18.408,13.7195 18.408,15.612 C18.40675,18.28775 17.032,19.884 14.7315,19.884 Z M16.35875,8.69225 L16.3265,7.4275 C16.3265,7.4275 17.3065,7.40225 17.862,7.39575 C17.87475,7.17175 17.87475,6.82175 17.87475,6.45475 L17.87475,6.26625 C17.87475,4.75375 17.638,4.5535 17.36625,4.32 C17.2665,4.2365 17.168,4.149 17.07225,4.04425 L18.00175,3.18975 C18.06125,3.2545 18.126,3.30625 18.18675,3.358 C18.72675,3.81875 19.1385,4.3245 19.1385,6.26475 L19.1385,6.453 C19.1385,7.16175 19.13975,7.55325 19.07625,7.851 C18.9675,8.363 18.6155,8.6575 18.11075,8.6575 C17.7,8.65775 16.36025,8.69225 16.35875,8.69225 Z" id="Shape"></path>
                </g>
            </g>
        </g>
    </g>
</svg>