<?xml version="1.0" encoding="UTF-8"?>
<svg width="30px" height="30px" viewBox="0 0 30 30" version="1.1" xmlns="http://www.w3.org/2000/svg" xmlns:xlink="http://www.w3.org/1999/xlink">
    <!-- Generator: Sketch 42 (36781) - http://www.bohemiancoding.com/sketch -->
    <title>Material/Icons black/help</title>
    <desc>Created with Sketch.</desc>
    <defs></defs>
    <g id="Symbols" stroke="none" stroke-width="1" fill="none" fill-rule="evenodd" opacity="0.87">
        <g id="Material/Icons-black/help" fill-rule="nonzero" fill="#666666">
            <g id="question-mark-copy" transform="translate(3.000000, 3.000000)">
                <g id="Capa_1">
                    <path d="M11.8398261,0.00104347826 C5.21295652,0.0897391304 -0.0868695652,5.53434783 0.00130434783,12.1614783 C0.09,18.7857391 5.53408696,24.0871304 12.1606957,23.9989565 C18.7862609,23.9097391 24.0871304,18.4651304 23.9989565,11.8385217 C23.9102609,5.21373913 18.465913,-0.0873913043 11.8398261,0.00104347826 Z M11.8043478,19.3043478 L11.738087,19.3033043 C10.7175652,19.2730435 9.99808696,18.5212174 10.0270435,17.5158261 C10.0554783,16.5276522 10.7924348,15.8102609 11.7793043,15.8102609 L11.8385217,15.8113043 C12.8874783,15.8423478 13.5988696,16.5866087 13.5693913,17.6209565 C13.5401739,18.612 12.8146957,19.3043478 11.8043478,19.3043478 Z M16.0969565,10.7846087 C15.8569565,11.1255652 15.3292174,11.5489565 14.6642609,12.0670435 L13.932,12.5726087 C13.53,12.8851304 13.2873913,13.1791304 13.1963478,13.4684348 C13.1246087,13.6961739 13.0893913,13.7564348 13.0831304,14.2197391 L13.082087,14.3373913 L10.286087,14.3373913 L10.2941739,14.1007826 C10.3283478,13.1282609 10.3523478,12.5561739 10.7553913,12.0834783 C11.3877391,11.3410435 12.7826087,10.4428696 12.8418261,10.4047826 C13.0416522,10.2542609 13.2101739,10.0828696 13.3356522,9.89973913 C13.6291304,9.49513043 13.7590435,9.1766087 13.7590435,8.86356522 C13.7590435,8.42921739 13.6301739,8.02747826 13.3753043,7.66982609 C13.1303478,7.32469565 12.6649565,7.14991304 11.991913,7.14991304 C11.3243478,7.14991304 10.8673043,7.36173913 10.593913,7.79634783 C10.3126957,8.24321739 10.1705217,8.71252174 10.1705217,9.192 L10.1705217,9.31121739 L7.28765217,9.31121739 L7.29286957,9.18678261 C7.36721739,7.42095652 7.99747826,6.14947826 9.1653913,5.40756522 C9.89921739,4.93513043 10.8122609,4.69565217 11.8776522,4.69565217 C13.2722609,4.69565217 14.4495652,5.03452174 15.3764348,5.70286957 C16.3155652,6.38008696 16.791913,7.39434783 16.791913,8.71747826 C16.791913,9.45756522 16.5581739,10.1527826 16.0969565,10.7846087 Z" id="Shape"></path>
                </g>
            </g>
        </g>
    </g>
</svg>