<?xml version="1.0" encoding="UTF-8"?>
<svg width="24px" height="24px" viewBox="0 0 24 24" version="1.1" xmlns="http://www.w3.org/2000/svg" xmlns:xlink="http://www.w3.org/1999/xlink">
    <!-- Generator: Sketch 42 (36781) - http://www.bohemiancoding.com/sketch -->
    <title>insurance</title>
    <desc>Created with Sketch.</desc>
    <defs></defs>
    <g id="Symbols" stroke="none" stroke-width="1" fill="none" fill-rule="evenodd">
        <g id="insurance" fill-rule="nonzero" fill="#666666">
            <g id="car-insurance" transform="translate(2.000000, 4.000000)">
                <g id="Capa_1">
                    <path d="M19.6217292,12.1019902 L16.280783,14.9469821 L16.280783,15.9682219 C16.280783,16.1867863 16.0948124,16.3369005 15.8762153,16.3369005 L13.6478303,16.3369005 C13.4292333,16.3369005 13.2432953,16.1802936 13.2432953,15.9682219 L13.2432953,13.6778467 C13.2432953,13.5571289 13.3052529,13.4298532 13.3999021,13.3678956 L17.4814682,10.8328222 L17.8860359,5.44946166 C17.8860359,4.98290375 18.2547145,4.61422512 18.7212724,4.61422512 C19.1878303,4.61422512 19.5565416,4.98290375 19.5565416,5.41683524 L19.9610767,11.2341272 C19.9936705,11.7039478 19.9349429,11.8539967 19.6217292,12.1019902 Z M3.59562806,10.0954649 L3.59562806,9.62887439 L3.59562806,6.0725938 C3.59562806,5.6680261 3.65761827,5.39070147 3.84358891,4.98939641 L5.82401305,0.875203915 C6.04261011,0.408646003 6.65924959,0.0106035889 7.18453507,0.0106035889 L12.7864927,0.0106035889 C13.3411419,0.0106035889 13.9643067,0.379282219 14.1763785,0.875203915 L16.1568026,4.98939641 C16.3427732,5.39396411 16.4047635,5.70065253 16.4047635,6.0725938 L16.4047635,9.63213703 L16.4047635,10.0986949 C16.4047635,10.2553018 16.2481566,10.408646 16.0948124,10.408646 L14.518956,10.408646 C14.3329853,10.408646 14.2090049,10.2520392 14.2090049,10.0986949 L14.2090049,9.63213703 L14.2090049,9.10358891 L5.79138662,9.10358891 L5.79138662,9.62887439 L5.79138662,10.0954649 C5.79138662,10.2520718 5.63477977,10.405416 5.48143556,10.405416 L3.90557912,10.405416 C3.75223491,10.405416 3.59562806,10.2487765 3.59562806,10.0954649 Z M14.3329853,5.91598695 C13.7783361,5.91598695 13.3411746,6.38254486 13.3411746,6.90783034 C13.3411746,7.43311582 13.775106,7.89967374 14.3329853,7.89967374 C14.8876346,7.89967374 15.3248287,7.46574225 15.3248287,6.90783034 C15.3248287,6.34991843 14.8876346,5.91598695 14.3329853,5.91598695 Z M5.39008157,4.86541599 L14.61031,4.86541599 L13.2497879,2.02039152 C12.9724633,1.46574225 12.7245024,1.33849918 12.1666232,1.33849918 L7.80769984,1.33849918 C7.25305057,1.33849918 7.00508972,1.45921697 6.75712887,2.02039152 L5.39008157,4.86541599 Z M4.67882545,6.9045677 C4.67882545,7.42985318 5.11275693,7.89641109 5.67066884,7.89641109 C6.22858075,7.89641109 6.66251223,7.46247961 6.66251223,6.9045677 C6.66251223,6.34665579 6.22858075,5.91272431 5.67066884,5.91272431 C5.11275693,5.91275693 4.67882545,6.37928222 4.67882545,6.9045677 Z M6.59725938,13.400522 L2.51569331,10.8654486 L2.11112561,5.48208809 C2.1404894,4.98616639 1.74244698,4.61748777 1.27588907,4.61748777 C0.809331158,4.61748777 0.411288744,4.98616639 0.411288744,5.44946166 L0.00672104405,11.2700163 C-0.0226427406,11.7365742 0.0360848287,11.8866232 0.346035889,12.1346166 L3.68698206,14.9796085 L3.68698206,16.0008483 C3.68698206,16.2194127 3.87295269,16.3695269 4.09154976,16.3695269 L6.35256117,16.3695269 C6.57115824,16.3695269 6.75712887,16.2129201 6.75712887,16.0008483 L6.75712887,13.7104731 C6.75060359,13.5897227 6.68861338,13.4690049 6.59725938,13.400522 Z" id="Shape"></path>
                </g>
            </g>
        </g>
    </g>
</svg>