<?xml version="1.0" encoding="UTF-8"?>
<svg width="24px" height="24px" viewBox="0 0 24 24" version="1.1" xmlns="http://www.w3.org/2000/svg" xmlns:xlink="http://www.w3.org/1999/xlink">
    <!-- Generator: Sketch 42 (36781) - http://www.bohemiancoding.com/sketch -->
    <title>Material/Icons red/logout</title>
    <desc>Created with Sketch.</desc>
    <defs></defs>
    <g id="Symbols" stroke="none" stroke-width="1" fill="none" fill-rule="evenodd">
        <g id="Material/Icons-red/logout" fill-rule="nonzero" fill="#F44336">
            <g id="Capa_1" transform="translate(4.000000, 4.000000)">
                <g id="Group">
                    <path d="M10.089567,13.6775258 L1.87447423,13.6775258 L1.87447423,1.98350515 L10.0898969,1.98350515 C10.272,1.98350515 10.4197938,1.83571134 10.4197938,1.65360825 L10.4197938,0.438762887 C10.4197938,0.256659794 10.272,0.108865979 10.0898969,0.108865979 L0.329896907,0.108865979 C0.147793814,0.108865979 0,0.256659794 0,0.438762887 L0,15.2219381 C0,15.4040412 0.147793814,15.5518351 0.329896907,15.5518351 L10.089567,15.5518351 C10.2718351,15.5518351 10.4194639,15.4040412 10.4194639,15.2219381 L10.4194639,14.0074227 C10.4194639,13.8249897 10.272,13.6775258 10.089567,13.6775258 Z" id="Shape"></path>
                    <path d="M15.8936082,7.59719588 L11.452866,3.15678351 C11.3291546,3.03290722 11.1101031,3.03307216 10.9863918,3.15678351 L9.93286598,4.21047423 C9.80404124,4.33929897 9.80404124,4.54812371 9.93286598,4.67694845 L11.9386392,6.68305155 L3.25558763,6.68305155 C3.07348454,6.68305155 2.92569072,6.83084536 2.92569072,7.01294845 L2.92569072,8.64791753 C2.92569072,8.83002062 3.07348454,8.97781443 3.25558763,8.97781443 L11.939134,8.97781443 L9.93336082,10.9839175 C9.80453608,11.1127423 9.80453608,11.321567 9.93336082,11.4503918 L10.9868866,12.5042474 C11.0487423,12.5661031 11.132866,12.6009072 11.2201237,12.6009072 C11.3077113,12.6009072 11.3915052,12.5661031 11.4533608,12.5042474 L15.8941031,8.06383505 C15.9559588,8.00197938 15.9907629,7.91785567 15.9907629,7.83059794 C15.9905979,7.74284536 15.9554639,7.65905155 15.8936082,7.59719588 Z" id="Shape"></path>
                </g>
            </g>
        </g>
    </g>
</svg>