<?xml version="1.0" encoding="UTF-8"?>
<svg width="32px" height="32px" viewBox="0 0 32 32" version="1.1" xmlns="http://www.w3.org/2000/svg" xmlns:xlink="http://www.w3.org/1999/xlink">
    <!-- Generator: Sketch 42 (36781) - http://www.bohemiancoding.com/sketch -->
    <title>Material/Icons white/manager</title>
    <desc>Created with Sketch.</desc>
    <defs></defs>
    <g id="Symbols" stroke="none" stroke-width="1" fill="none" fill-rule="evenodd">
        <g id="Material/Icons-white/manager" fill-rule="nonzero" fill="#666666">
            <g id="technology" transform="translate(7.000000, 6.000000)">
                <g id="Layer_1">
                    <g id="XMLID_2_">
                        <g id="Group">
                            <path d="M14.1275149,12.8823885 C13.3582141,13.9672924 12.1120514,14.6738989 10.7080055,14.6738989 L8.73792926,14.6738989 C8.05737437,14.6738989 7.47782085,14.2302521 7.25836472,13.6093028 C6.98747818,13.5263359 6.72183188,13.4186353 6.4626091,13.2863744 C5.91365181,13.006318 5.41519522,12.6268923 4.97640974,12.1568627 C2.13019936,12.7989009 0,15.4029829 0,18.5183608 L0,18.9255578 C0,19.4853235 0.441954984,19.9391242 0.987108865,19.9391242 L16.3022563,19.9391242 C16.8474102,19.9391242 17.2893652,19.4853235 17.2893652,18.9255578 L17.2893652,18.5183608 C17.2893229,16.1117156 16.0180156,14.010121 14.1275149,12.8823885 Z" id="Shape"></path>
                            <path d="M3.98113183,10.0748273 C4.40537988,10.0748273 4.77464768,9.83339036 4.96595866,9.47709301 C4.9709876,9.49119563 4.97610106,9.50521147 4.98125678,9.51922731 C4.98277814,9.5234364 4.98429949,9.52764549 4.98582085,9.53185458 C5.43462196,10.7448538 6.30788241,11.761718 7.45938264,12.2060157 C7.73787598,11.7516509 8.23033165,11.4494642 8.79184015,11.4494642 L10.7619164,11.4494642 C10.9584254,11.4494642 11.1413266,11.392533 11.301661,11.3004971 C11.5709417,11.145889 11.8130914,10.7536625 11.9381387,10.5457681 C12.1382398,10.2130764 12.2932917,9.86068436 12.4307634,9.47648551 C12.5080147,9.62054923 12.6142563,9.74586731 12.7415434,9.84406496 L12.7415434,10.3400868 C12.7415434,11.4609199 11.853492,12.3728172 10.7618741,12.3728172 L8.79179789,12.3728172 C8.41936059,12.3728172 8.11741295,12.6828579 8.11741295,13.0652777 C8.11741295,13.4477408 8.41936059,13.7577382 8.79179789,13.7577382 L10.7618741,13.7577382 C12.5971833,13.7577382 14.0903133,12.2245878 14.0903133,10.3400868 L14.0903133,9.84406496 C14.3633128,9.63348025 14.5399173,9.29831514 14.5399173,8.92075537 L14.5399173,6.83274267 L14.5399173,6.03206081 C14.5399173,5.64673375 14.3558751,5.3057974 14.0732825,5.09616733 C13.8541222,2.24843547 11.5272871,0 8.69853009,0 C5.86973082,0 3.54293799,2.24843547 3.32377768,5.09612394 C3.04118512,5.30575401 2.85714286,5.64673375 2.85714286,6.03201741 L2.85714286,8.92066858 C2.85714286,9.55988626 3.36286817,10.0748273 3.98113183,10.0748273 Z M8.69853009,1.38496439 C10.7925972,1.38496439 12.5198052,3.02815866 12.7216812,5.12476311 C12.5891539,5.23181287 12.480588,5.36863002 12.4057878,5.52562476 C11.7694368,3.82089966 10.3489095,2.63402288 8.69848783,2.63402288 C7.01248323,2.63402288 5.61473404,3.86168878 4.99368121,5.51881211 C4.99283601,5.52106852 4.99203307,5.52336834 4.99118787,5.52566815 C4.91638769,5.36867341 4.80782177,5.23185627 4.67529444,5.12480651 C4.8772972,3.02815866 6.60446302,1.38496439 8.69853009,1.38496439 Z" id="Shape"></path>
                        </g>
                    </g>
                </g>
            </g>
        </g>
    </g>
</svg>