<?xml version="1.0" encoding="UTF-8"?>
<svg width="30px" height="30px" viewBox="0 0 30 30" version="1.1" xmlns="http://www.w3.org/2000/svg" xmlns:xlink="http://www.w3.org/1999/xlink">
    <!-- Generator: Sketch 42 (36781) - http://www.bohemiancoding.com/sketch -->
    <title>Material/Icons black/notice</title>
    <desc>Created with Sketch.</desc>
    <defs></defs>
    <g id="Symbols" stroke="none" stroke-width="1" fill="none" fill-rule="evenodd" opacity="0.87">
        <g id="Material/Icons-black/notice" fill-rule="nonzero" fill="#666666">
            <g id="alarm-copy" transform="translate(3.000000, 2.000000)">
                <g id="Capa_1">
                    <path d="M22.5168291,21.0809018 C20.3478109,18.9253818 19.2484073,16.3742255 19.2484073,13.4981818 L19.2484073,9.31188364 C19.2684218,6.12026182 17.1222109,4.00337455 15.27808,3.16043636 C14.7581673,2.92305455 14.2103273,2.74711273 13.6517818,2.61213091 L13.6517818,2.32727273 C13.6517818,1.04401455 12.6077673,0 11.3245091,0 C10.0412509,0 8.99723636,1.04401455 8.99723636,2.32727273 L8.99723636,2.65588364 C8.49501091,2.78760727 8.00162909,2.94865455 7.53291636,3.16462545 C5.49469091,4.10391273 3.42993455,6.36788364 3.41131636,9.30909091 L3.41131636,13.4981818 C3.41131636,16.4715055 2.36125091,19.0226618 0.290443636,21.0809018 C0.167098182,21.2037818 0.122414545,21.3848436 0.174545455,21.5510109 C0.226676364,21.7167127 0.367709091,21.8400582 0.539461818,21.8698473 L4.95709091,22.6327273 C5.79025455,22.7765527 6.54661818,22.89152 7.25829818,22.9855418 C8.07051636,24.5778618 9.66562909,25.6 11.4092218,25.6 C13.15328,25.6 14.7488582,24.5769309 15.5606109,22.98368 C16.2690327,22.8901236 17.0216727,22.7756218 17.8501818,22.6322618 L22.2673455,21.8693818 C22.4390982,21.8400582 22.5796655,21.7167127 22.6322618,21.5505455 C22.6848582,21.3848436 22.6401745,21.2037818 22.5168291,21.0809018 Z M9.92768,2.32727273 C9.92768,1.55741091 10.5541818,0.930909091 11.3240436,0.930909091 C12.0939055,0.930909091 12.7204073,1.55741091 12.7204073,2.32727273 L12.7204073,2.41710545 C11.7927564,2.28584727 10.8474182,2.29329455 9.92768,2.44037818 L9.92768,2.32727273 Z M6.20404364,9.77454545 L6.20125091,9.77454545 C5.94432,9.77268364 5.73719273,9.56322909 5.73858909,9.30629818 C5.75255273,7.12704 7.48497455,5.74882909 8.50711273,5.27825455 C10.2986473,4.45207273 12.5072291,4.45346909 14.3108655,5.27732364 C14.5445236,5.38391273 14.6473891,5.65992727 14.5408,5.89405091 C14.4337455,6.12770909 14.1577309,6.23104 13.9236073,6.12352 C12.3629382,5.40997818 10.4471273,5.40811636 8.89716364,6.12352 C8.07470545,6.5024 6.68066909,7.60040727 6.66996364,9.31188364 C6.66810182,9.56834909 6.46004364,9.77454545 6.20404364,9.77454545 Z M14.3988364,23.1228509 C13.6918109,24.0821527 12.5891491,24.6690909 11.4092218,24.6690909 C10.22976,24.6690909 9.12756364,24.0826182 8.42053818,23.1237818 L8.42100364,23.1237818 C8.60532364,23.1428655 8.78405818,23.15776 8.96279273,23.17312 C9.04797091,23.1805673 9.13547636,23.1894109 9.21972364,23.1963927 C9.28488727,23.2015127 9.34772364,23.2047709 9.41242182,23.2094255 C10.7650327,23.3081018 12.0105891,23.3081018 13.3622691,23.2117527 C13.44,23.2061673 13.5158691,23.2019782 13.5945309,23.1959273 C13.696,23.1880145 13.8011927,23.1773091 13.9040582,23.1684655 C14.0618473,23.1545018 14.2187055,23.1414691 14.3811491,23.1247127 C14.3867345,23.1237818 14.3927855,23.1233164 14.3988364,23.1228509 Z" id="Shape"></path>
                </g>
            </g>
        </g>
    </g>
</svg>