<?xml version="1.0" encoding="UTF-8"?>
<svg width="24px" height="24px" viewBox="0 0 24 24" version="1.1" xmlns="http://www.w3.org/2000/svg" xmlns:xlink="http://www.w3.org/1999/xlink">
    <!-- Generator: Sketch 42 (36781) - http://www.bohemiancoding.com/sketch -->
    <title>orders_map</title>
    <desc>Created with Sketch.</desc>
    <defs></defs>
    <g id="Symbols" stroke="none" stroke-width="1" fill="none" fill-rule="evenodd">
        <g id="orders_map" fill-rule="nonzero" fill="#666666">
            <g transform="translate(2.000000, 2.000000)" id="Capa_1">
                <g>
                    <g id="Group">
                        <path d="M18.46,7.86178571 L14.5675,7.86178571 C14.37,7.86178571 14.2103571,8.02142857 14.2103571,8.21892857 C14.2103571,8.41642857 14.37,8.57607143 14.5675,8.57607143 L17.8182143,8.57607143 L18.8535714,18.2189286 L0.81,18.2189286 L2.02535714,8.57607143 L5.28178571,8.57607143 C5.47928571,8.57607143 5.63892857,8.41642857 5.63892857,8.21892857 C5.63892857,8.02142857 5.47928571,7.86178571 5.28178571,7.86178571 L1.39535714,7.86178571 L0,18.9332143 L19.6489286,18.9332143 L18.46,7.86178571 Z" id="Shape"></path>
                        <path d="M6.24285714,15.7728571 C6.03357143,15.8710714 5.82035714,15.9621429 5.60928571,16.0439286 C5.42535714,16.1146429 5.33392857,16.3214286 5.405,16.5057143 C5.45964286,16.6471429 5.59464286,16.7342857 5.73821429,16.7342857 C5.78107143,16.7342857 5.82464286,16.7267857 5.86678571,16.7103571 C6.09357143,16.6228571 6.32214286,16.525 6.54642857,16.42 C6.725,16.3364286 6.80178571,16.1235714 6.71785714,15.945 C6.63428571,15.7660714 6.42285714,15.6885714 6.24285714,15.7728571 Z" id="Shape"></path>
                        <path d="M13.0707143,13.0617857 C13.0782143,13.2539286 13.2367857,13.4042857 13.4271429,13.4042857 C13.4321429,13.4042857 13.4371429,13.4042857 13.4421429,13.4039286 L14.1571429,13.3746429 C14.3542857,13.3657143 14.5067857,13.1985714 14.4978571,13.0017857 C14.4889286,12.8042857 14.3178571,12.6432143 14.1246429,12.6610714 L13.4128571,12.6903571 C13.2157143,12.6982143 13.0625,12.8646429 13.0707143,13.0617857 Z" id="Shape"></path>
                        <path d="M11.2239286,12.9182143 C11.0310714,12.9589286 10.9082143,13.1489286 10.9492857,13.3421429 C10.985,13.51 11.1332143,13.6246429 11.2982143,13.6246429 C11.3228571,13.6246429 11.3482143,13.6221429 11.3732143,13.6167857 C11.5825,13.5725 11.8092857,13.535 12.0467857,13.505 C12.2425,13.4810714 12.3817857,13.3025 12.3571429,13.1067857 C12.3328571,12.9107143 12.1564286,12.7675 11.9589286,12.7964286 C11.7007143,12.8282143 11.4532143,12.8692857 11.2239286,12.9182143 Z" id="Shape"></path>
                        <path d="M8.01178571,14.7060714 C7.82821429,14.8446429 7.63857143,14.9778571 7.4475,15.1014286 C7.28214286,15.2089286 7.235,15.43 7.3425,15.5957143 C7.41071429,15.7010714 7.52571429,15.7582143 7.6425,15.7582143 C7.70928571,15.7582143 7.77642857,15.7396429 7.83678571,15.7007143 C8.04142857,15.5678571 8.24535714,15.425 8.44214286,15.2764286 C8.59928571,15.1575 8.63071429,14.9335714 8.51214286,14.7760714 C8.39321429,14.62 8.17,14.5875 8.01178571,14.7060714 Z" id="Shape"></path>
                        <path d="M3.56928571,17.0864286 C3.64642857,17.1067857 3.725,17.1214286 3.8025,17.1307143 C3.89392857,17.1417857 3.98535714,17.1475 4.07714286,17.1475 C4.18857143,17.1475 4.30071429,17.1396429 4.4125,17.1253571 C4.60821429,17.1007143 4.74714286,16.9221429 4.72214286,16.7264286 C4.69785714,16.5307143 4.52,16.3932143 4.32321429,16.4167857 C4.17928571,16.4353571 4.03357143,16.4396429 3.88928571,16.4221429 C3.84178571,16.4160714 3.79464286,16.4071429 3.74785714,16.3953571 C3.5575,16.3442857 3.36214286,16.4607143 3.31285714,16.6517857 C3.26357143,16.8425 3.37821429,17.0375 3.56928571,17.0864286 Z" id="Shape"></path>
                        <path d="M16.6742857,11.3439286 C16.6157143,11.5321429 16.7214286,11.7325 16.9096429,11.7907143 C16.945,11.8014286 16.9803571,11.8067857 17.0153571,11.8067857 C17.1678571,11.8067857 17.3089286,11.7085714 17.3564286,11.5553571 C17.3917857,11.4421429 17.4135714,11.3267857 17.4217857,11.2110714 C17.4235714,11.1814286 17.4246429,11.1517857 17.4246429,11.1217857 C17.4246429,10.955 17.3939286,10.7878571 17.3335714,10.6253571 C17.265,10.44 17.0582143,10.3464286 16.8746429,10.4146429 C16.6892857,10.4832143 16.5953571,10.6889286 16.6639286,10.8735714 C16.6946429,10.9564286 16.7103571,11.04 16.7103571,11.1214286 L16.7089286,11.1628571 C16.705,11.2221429 16.6932143,11.2828571 16.6742857,11.3439286 Z" id="Shape"></path>
                        <path d="M3.64321429,14.2857143 C3.70071429,14.2857143 3.75892857,14.2717857 3.81321429,14.2425 C3.91678571,14.1864286 4.02642857,14.1514286 4.13928571,14.1392857 C4.1875,14.1335714 4.23678571,14.1335714 4.28428571,14.14 C4.48535714,14.165 4.65928571,14.0278571 4.685,13.8328571 C4.71071429,13.6371429 4.57321429,13.4578571 4.37785714,13.4321429 C4.27142857,13.4178571 4.16321429,13.4175 4.05964286,13.4292857 C3.85535714,13.4517857 3.6575,13.5142857 3.4725,13.615 C3.29928571,13.7092857 3.23464286,13.9257143 3.32892857,14.0989286 C3.39357143,14.2182143 3.51642857,14.2857143 3.64321429,14.2857143 Z" id="Shape"></path>
                        <path d="M15.4903571,12.5389286 C15.2971429,12.5785714 15.1728571,12.7678571 15.2128571,12.9610714 C15.2478571,13.13 15.3964286,13.2460714 15.5625,13.2460714 C15.5860714,13.2460714 15.6107143,13.2435714 15.635,13.2385714 C15.9364286,13.1764286 16.1807143,13.0775 16.375,12.9403571 C16.3960714,12.9264286 16.4157143,12.9117857 16.4353571,12.8967857 C16.5910714,12.7757143 16.6064286,12.5607143 16.4853571,12.4046429 C16.365,12.2492857 16.1275,12.2296429 15.9717857,12.3514286 C15.8496429,12.4367857 15.6967857,12.4964286 15.4903571,12.5389286 Z" id="Shape"></path>
                        <path d="M3.16428571,15.1432143 C3.21607143,14.9528571 3.10321429,14.7567857 2.91285714,14.7053571 C2.72392857,14.6525 2.52642857,14.7657143 2.475,14.9567857 C2.43,15.1225 2.40321429,15.2917857 2.39464286,15.4589286 C2.39285714,15.5 2.39178571,15.5414286 2.39178571,15.5828571 C2.39178571,15.6532143 2.395,15.7239286 2.40178571,15.7942857 C2.42071429,15.9782143 2.57571429,16.115 2.75678571,16.115 C2.76857143,16.115 2.78071429,16.1142857 2.79357143,16.1132143 C2.98964286,16.0928571 3.1325,15.9178571 3.11285714,15.7214286 C3.10785714,15.6753571 3.10607143,15.6285714 3.10607143,15.5825 C3.10607143,15.5528571 3.10714286,15.5232143 3.10857143,15.4939286 C3.11428571,15.3778571 3.13285714,15.2596429 3.16428571,15.1432143 Z" id="Shape"></path>
                        <path d="M15.9635714,9.575 C15.6817857,9.53714286 15.3896429,9.56071429 15.1114286,9.63928571 C14.9214286,9.6925 14.8110714,9.89 14.865,10.0796429 C14.9092857,10.2371429 15.0525,10.34 15.2082143,10.34 C15.2407143,10.34 15.2732143,10.3357143 15.3053571,10.3264286 C15.49,10.2746429 15.6821429,10.2585714 15.8678571,10.2832143 C16.0685714,10.3092857 16.2435714,10.1721429 16.2696429,9.97714286 C16.2960714,9.78107143 16.1589286,9.60142857 15.9635714,9.575 Z" id="Shape"></path>
                        <path d="M9.51964286,13.56 C9.46714286,13.5910714 9.41,13.6189286 9.36,13.6514286 C9.28178571,13.7021429 9.20571429,13.755 9.13107143,13.8089286 C8.97178571,13.925 8.93642857,14.1485714 9.0525,14.3078571 C9.1225,14.4039286 9.23142857,14.4546429 9.34178571,14.4546429 C9.41464286,14.4546429 9.48821429,14.4321429 9.55178571,14.3864286 C9.61607143,14.3392857 9.68142857,14.2939286 9.74892857,14.25 C9.86178571,14.1767857 9.98321429,14.1075 10.1096429,14.0439286 C10.2775,13.9596429 10.3457143,13.7610714 10.2753571,13.59 C10.2782143,13.5871429 10.2817857,13.585 10.2846429,13.5817857 C10.9307143,12.8975 13.1078571,10.3332143 14.0092857,6.06107143 C14.1921429,5.19464286 14.2332143,4.36321429 14.1314286,3.59035714 C13.8242857,1.24214286 12.3653571,0.000714285714 9.9125,0.000714285714 C7.46035714,0.000714285714 6.00142857,1.24214286 5.69357143,3.59035714 C5.59214286,4.36392857 5.63321429,5.195 5.81607143,6.06107143 C6.70857143,10.2932143 8.85285714,12.8482143 9.51964286,13.56 Z M9.9125,1.51178571 C11.3592857,1.51178571 12.5360714,2.68857143 12.5360714,4.13535714 C12.5360714,5.58214286 11.3592857,6.75892857 9.9125,6.75892857 C8.46571429,6.75892857 7.28892857,5.58214286 7.28892857,4.13535714 C7.28892857,2.68857143 8.46571429,1.51178571 9.9125,1.51178571 Z" id="Shape"></path>
                    </g>
                </g>
            </g>
        </g>
    </g>
</svg>