<?xml version="1.0" encoding="UTF-8"?>
<svg width="24px" height="24px" viewBox="0 0 24 24" version="1.1" xmlns="http://www.w3.org/2000/svg" xmlns:xlink="http://www.w3.org/1999/xlink">
    <!-- Generator: Sketch 42 (36781) - http://www.bohemiancoding.com/sketch -->
    <title>orders</title>
    <desc>Created with Sketch.</desc>
    <defs></defs>
    <g id="Symbols" stroke="none" stroke-width="1" fill="none" fill-rule="evenodd">
        <g id="orders" fill-rule="nonzero" fill="#666666">
            <g transform="translate(2.000000, 2.000000)" id="Capa_1">
                <g>
                    <g id="Group">
                        <path d="M19.8833333,9.14766667 C19.8026667,9.054 19.6856667,9 19.5616667,9 L0.438666667,9 C0.315333333,9 0.198,9.05366667 0.117666667,9.147 C0.037,9.24033333 0.001,9.364 0.0196666667,9.487 L1.659,19.6406667 C1.69133333,19.849 1.86733333,20 2.07766667,20 L17.9223333,20 C18.133,20 18.309,19.849 18.3413333,19.6396667 L19.9803333,9.48833333 C19.999,9.366 19.964,9.242 19.8833333,9.14766667 Z" id="Shape"></path>
                        <path d="M2.711,3.66666667 L17.3776667,3.66666667 L17.3776667,8.33333333 L18.711,8.33333333 L18.711,2.256 C18.711,1.931 18.4466667,1.66666667 18.122,1.66666667 L7.9,1.66666667 L7.07166667,0.286333333 C6.96566667,0.109666667 6.772,0 6.56633333,0 L1.967,0 C1.642,0 1.37766667,0.264333333 1.37766667,0.589333333 L1.37766667,8.33333333 L2.711,8.33333333 L2.711,3.66666667 Z" id="Shape"></path>
                        <rect id="Rectangle-path" x="3.348" y="7" width="13.3333333" height="1.33333333"></rect>
                        <rect id="Rectangle-path" x="3.68133333" y="5.66666667" width="12.6666667" height="1"></rect>
                        <rect id="Rectangle-path" x="4.01466667" y="4.33333333" width="12" height="1"></rect>
                    </g>
                </g>
            </g>
        </g>
    </g>
</svg>