<?xml version="1.0" encoding="utf-8"?>
<!-- Generator: Adobe Illustrator 21.0.2, SVG Export Plug-In . SVG Version: 6.00 Build 0)  -->
<svg version="1.1" id="Layer_1" xmlns="http://www.w3.org/2000/svg" xmlns:xlink="http://www.w3.org/1999/xlink" x="0px" y="0px"
	 viewBox="0 0 24 24" style="enable-background:new 0 0 24 24;" xml:space="preserve">
<style type="text/css">
	.st0{fill:#212121;}
	.st1{fill:#FFFFFF;}
	.st2{display:none;fill:#FFFFFF;}
</style>
<title>orders</title>
<desc>Created with Sketch.</desc>
<g id="Symbols">
	<g id="orders">
		<g id="Capa_1" transform="translate(2.000000, 2.000000)">
			<g>
				<g id="Group">
					<path id="Shape" class="st0" d="M19.9,9.1C19.8,9.1,19.7,9,19.6,9H0.4C0.3,9,0.2,9.1,0.1,9.1C0,9.2,0,9.4,0,9.5l1.6,10.2
						c0,0.2,0.2,0.4,0.4,0.4h15.8c0.2,0,0.4-0.2,0.4-0.4L20,9.5C20,9.4,20,9.2,19.9,9.1z"/>
					<path id="Shape_1_" class="st0" d="M2.7,3.7h14.7v4.7h1.3V2.3c0-0.3-0.3-0.6-0.6-0.6H7.9L7.1,0.3C7,0.1,6.8,0,6.6,0H2
						C1.6,0,1.4,0.3,1.4,0.6v7.7h1.3V3.7z"/>
					<rect id="Rectangle-path" x="3.3" y="7" class="st0" width="13.3" height="1.3"/>
					<rect id="Rectangle-path_1_" x="3.7" y="5.7" class="st0" width="12.7" height="1"/>
					<rect id="Rectangle-path_2_" x="4" y="4.3" class="st0" width="12" height="1"/>
				</g>
			</g>
		</g>
	</g>
</g>
<g>
	<path class="st1" d="M8,15.3c0,0.2,0.1,0.3,0.2,0.5L8,16.1c-0.1,0.1-0.1,0.2,0,0.3l0.4,0.4c0.1,0.1,0.2,0.1,0.3,0L9,16.6
		c0.2,0.1,0.3,0.2,0.5,0.2l0,0.4c0,0.1,0.1,0.2,0.2,0.2h0.6c0.1,0,0.2-0.1,0.2-0.2l0-0.4c0.2,0,0.4-0.1,0.5-0.2l0.3,0.2
		c0.1,0.1,0.2,0.1,0.3,0l0.4-0.4c0.1-0.1,0.1-0.2,0-0.3l-0.2-0.3c0.1-0.2,0.2-0.3,0.2-0.5l0.3,0c0.1,0,0.2-0.1,0.2-0.2v-0.6
		c0-0.1-0.1-0.2-0.2-0.2l-0.3,0c0-0.2-0.1-0.4-0.2-0.5l0.2-0.3c0.1-0.1,0.1-0.2,0-0.3l-0.4-0.4c-0.1-0.1-0.2-0.1-0.3,0l-0.3,0.2
		c-0.2-0.1-0.3-0.2-0.5-0.2l0-0.3c0-0.1-0.1-0.2-0.2-0.2H9.8c-0.1,0-0.2,0.1-0.2,0.2l0,0.3c-0.2,0.1-0.4,0.1-0.6,0.2l-0.3-0.2
		c-0.1-0.1-0.2-0.1-0.3,0L8,13c-0.1,0.1-0.1,0.2,0,0.3l0.2,0.3C8.1,13.8,8,13.9,8,14.1l-0.4,0c-0.1,0-0.2,0.1-0.2,0.2V15
		c0,0.1,0.1,0.2,0.2,0.2L8,15.3z M10.1,13.7c0.5,0,1,0.4,1,1s-0.4,1-1,1c-0.5,0-1-0.4-1-1S9.6,13.7,10.1,13.7z"/>
	<path class="st1" d="M15.9,15.4l-0.3-0.3c-0.1-0.1-0.2-0.1-0.3,0l-0.2,0.2c-0.1-0.1-0.3-0.1-0.5-0.1l0-0.2c0-0.1-0.1-0.2-0.3-0.2
		l-0.4,0c-0.1,0-0.2,0.1-0.2,0.2l0,0.2c-0.2,0.1-0.3,0.1-0.4,0.2l-0.2-0.1c-0.1-0.1-0.2,0-0.3,0l-0.3,0.3c-0.1,0.1-0.1,0.2,0,0.3
		l0.2,0.2c-0.1,0.1-0.1,0.3-0.1,0.4l-0.3,0.1c-0.1,0-0.2,0.1-0.2,0.3l0,0.4c0,0.1,0.1,0.2,0.2,0.2l0.3,0c0.1,0.1,0.1,0.3,0.2,0.4
		l-0.2,0.2c-0.1,0.1,0,0.2,0,0.3l0.3,0.3c0.1,0.1,0.2,0.1,0.3,0l0.2-0.2c0.1,0.1,0.3,0.1,0.4,0.1l0.1,0.3c0,0.1,0.1,0.2,0.3,0.2
		l0.4,0c0.1,0,0.2-0.1,0.2-0.2l0-0.3c0.1-0.1,0.3-0.1,0.4-0.2l0.2,0.1c0.1,0.1,0.2,0,0.3,0l0.3-0.3c0.1-0.1,0.1-0.2,0-0.3L16,17.7
		c0.1-0.1,0.1-0.3,0.1-0.4l0.2-0.1c0.1,0,0.2-0.1,0.2-0.3l0-0.4c0-0.1-0.1-0.2-0.2-0.2l-0.2,0c-0.1-0.1-0.1-0.3-0.2-0.4l0.1-0.2
		C16.1,15.6,16,15.5,15.9,15.4z M14.4,17.8c-0.4,0-0.8-0.3-0.9-0.7c0-0.4,0.3-0.8,0.7-0.9c0.4,0,0.8,0.3,0.9,0.7
		C15.2,17.3,14.9,17.7,14.4,17.8z"/>
	<path class="st1" d="M9.4,18.8c-0.1,0-0.2,0.1-0.2,0.2l0,0.2c0,0.1,0.1,0.2,0.2,0.2l0.2,0c0,0.1,0.1,0.2,0.1,0.3l-0.1,0.1
		c-0.1,0.1-0.1,0.2,0,0.3l0.2,0.2c0.1,0.1,0.2,0.1,0.3,0l0.1-0.1c0.1,0.1,0.2,0.1,0.3,0.1l0,0.2c0,0.1,0.1,0.2,0.2,0.2l0.2,0
		c0.1,0,0.2-0.1,0.2-0.2l0-0.2c0.1,0,0.2-0.1,0.4-0.1l0.1,0.1c0.1,0.1,0.2,0.1,0.3,0l0.2-0.2c0.1-0.1,0.1-0.2,0-0.3L12.3,20
		c0.1-0.1,0.1-0.2,0.1-0.3l0.2,0c0.1,0,0.2-0.1,0.2-0.2l0-0.2c0-0.1-0.1-0.2-0.2-0.2l-0.2,0c0-0.1-0.1-0.2-0.1-0.3l0.1-0.1
		c0.1-0.1,0.1-0.2,0-0.3l-0.2-0.2c-0.1-0.1-0.2-0.1-0.3,0l-0.1,0.1c-0.1-0.1-0.2-0.1-0.4-0.2l0-0.2c0-0.1-0.1-0.2-0.2-0.2l-0.2,0
		c-0.1,0-0.2,0.1-0.2,0.2l0,0.2c-0.1,0-0.3,0.1-0.4,0.2l-0.1-0.1c-0.1-0.1-0.2-0.1-0.3,0L9.7,18c-0.1,0.1-0.1,0.2,0,0.3l0.1,0.1
		c-0.1,0.1-0.1,0.2-0.1,0.3L9.4,18.8z M11,18.6c0.4,0,0.6,0.3,0.6,0.7c0,0.4-0.3,0.6-0.7,0.6c-0.4,0-0.6-0.3-0.6-0.7
		C10.4,18.8,10.7,18.6,11,18.6z"/>
</g>
<path class="st2" d="M6.8,16.9c-0.1-0.1-0.1-0.2-0.1-0.3s0-0.2,0.1-0.3l0.6-0.6c0.2-0.2,0.4-0.2,0.6,0l0,0l2.3,2.4
	c0.1,0.1,0.2,0.1,0.3,0l5.6-5.8h0l0,0c0.2-0.2,0.4-0.2,0.6,0l0.6,0.6c0.2,0.2,0.2,0.4,0,0.6l0,0l-6.6,6.9c-0.1,0.1-0.2,0.1-0.3,0.1
	c-0.1,0-0.2,0-0.3-0.1L6.9,17L6.8,16.9L6.8,16.9z"/>
</svg>
