<?xml version="1.0" encoding="UTF-8"?>
<svg width="32px" height="32px" viewBox="0 0 32 32" version="1.1" xmlns="http://www.w3.org/2000/svg" xmlns:xlink="http://www.w3.org/1999/xlink">
    <!-- Generator: Sketch 42 (36781) - http://www.bohemiancoding.com/sketch -->
    <title>Material/Icons white/organisations</title>
    <desc>Created with Sketch.</desc>
    <defs></defs>
    <g id="Symbols" stroke="none" stroke-width="1" fill="none" fill-rule="evenodd">
        <g id="Material/Icons-white/organisations" fill-rule="nonzero" fill="#666666">
            <g id="office" transform="translate(6.000000, 8.000000)">
                <g id="Capa_1">
                    <g id="Group">
                        <path d="M5.38277242,16.0801823 L8.90072883,16.0801823 L8.90072883,12.4919229 L11.0153073,12.4919229 L11.0153073,16.0801823 L14.5332637,16.0801823 L14.5332637,0.0149994055 L5.38277242,0.0149994055 L5.38277242,16.0801823 Z M10.5999268,1.90828502 L12.7144641,1.90828502 L12.7144641,4.01750469 L10.5999268,4.01750469 L10.5999268,1.90828502 Z M10.5999268,5.29810967 L12.7144641,5.29810967 L12.7144641,7.40732934 L10.5999268,7.40732934 L10.5999268,5.29810967 Z M10.5999268,8.68785235 L12.7144641,8.68785235 L12.7144641,10.797072 L10.5999268,10.797072 L10.5999268,8.68785235 Z M7.2015309,1.90828502 L9.31606824,1.90828502 L9.31606824,4.01750469 L7.2015309,4.01750469 L7.2015309,1.90828502 Z M7.2015309,5.29810967 L9.31606824,5.29810967 L9.31606824,7.40732934 L7.2015309,7.40732934 L7.2015309,5.29810967 Z M7.2015309,8.68785235 L9.31606824,8.68785235 L9.31606824,10.797072 L7.2015309,10.797072 L7.2015309,8.68785235 Z" id="Shape"></path>
                        <path d="M15.354657,1.45412269 L15.354657,12.8134265 L16.713169,12.8134265 L16.713169,16.0801823 L19.915995,16.0801823 L19.915995,1.45412269 L15.354657,1.45412269 Z M18.260184,11.2704139 L16.3350125,11.2704139 L16.3350125,9.35016217 L18.2601429,9.35016217 L18.2601429,11.2704139 L18.260184,11.2704139 Z M18.260184,8.18422478 L16.3350125,8.18422478 L16.3350125,6.264014 L18.2601429,6.264014 L18.2601429,8.18422478 L18.260184,8.18422478 Z M18.260184,5.09807661 L16.3350125,5.09807661 L16.3350125,3.17786584 L18.2601429,3.17786584 L18.2601429,5.09807661 L18.260184,5.09807661 Z" id="Shape"></path>
                        <path d="M0,16.0801823 L3.20282601,16.0801823 L3.20282601,12.8134265 L4.56133798,12.8134265 L4.56133798,1.45412269 L0,1.45412269 L0,16.0801823 Z M1.65585209,3.17786584 L3.58098249,3.17786584 L3.58098249,5.09807661 L1.65585209,5.09807661 L1.65585209,3.17786584 Z M1.65585209,6.264014 L3.58098249,6.264014 L3.58098249,8.18422478 L1.65585209,8.18422478 L1.65585209,6.264014 Z M1.65585209,9.3500802 L3.58098249,9.3500802 L3.58098249,11.270291 L1.65585209,11.270291 L1.65585209,9.3500802 Z" id="Shape"></path>
                    </g>
                </g>
            </g>
        </g>
    </g>
</svg>