<?xml version="1.0" encoding="UTF-8"?>
<svg width="24px" height="24px" viewBox="0 0 24 24" version="1.1" xmlns="http://www.w3.org/2000/svg" xmlns:xlink="http://www.w3.org/1999/xlink">
    <!-- Generator: Sketch 42 (36781) - http://www.bohemiancoding.com/sketch -->
    <title>parts</title>
    <desc>Created with Sketch.</desc>
    <defs></defs>
    <g id="Symbols" stroke="none" stroke-width="1" fill="none" fill-rule="evenodd">
        <g id="parts" fill-rule="nonzero" fill="#666666">
            <g id="engine" transform="translate(2.000000, 5.000000)">
                <g id="Layer_1">
                    <path d="M19.6640625,4.0040625 L18.3320312,4.0040625 C18.1875,4.0040625 18.0625,4.09390625 18.015625,4.230625 L17.0898437,7.0040625 L16.1835938,7.0040625 L15.28125,5.50015625 C15.2226562,5.39859375 15.1132812,5.34 14.9960937,5.34 L13.6640625,5.34 L13.6640625,4.34 C13.6640625,4.15640625 13.515625,4.00796875 13.3320312,4.00796875 L11,4.00796875 L11,2.6759375 L12,2.6759375 C12.1835937,2.6759375 12.3320312,2.5275 12.3320312,2.34390625 L12.3320312,0.34 C12.3320312,0.15640625 12.1835937,0.00796875 12,0.00796875 L5.99609375,0.00796875 C5.8125,0.00796875 5.6640625,0.15640625 5.6640625,0.34 L5.6640625,2.34 C5.6640625,2.52359375 5.8125,2.67203125 5.99609375,2.67203125 L6.99609375,2.67203125 L6.99609375,4.0040625 L4.328125,4.0040625 C4.23828125,4.0040625 4.15625,4.03921875 4.09375,4.10171875 C4.03125,4.16421875 3.99609375,4.25015625 3.99609375,4.33609375 L3.99609375,5.33609375 L1.6640625,5.33609375 C1.48046875,5.33609375 1.33203125,5.48453125 1.33203125,5.668125 L1.33203125,7.668125 L0.6640625,7.668125 L0.6640625,6.67203125 C0.6640625,6.4884375 0.515625,6.34 0.33203125,6.34 C0.1484375,6.34 0,6.4884375 0,6.67203125 L0,9.34 C0,9.52359375 0.1484375,9.67203125 0.33203125,9.67203125 C0.515625,9.67203125 0.6640625,9.52359375 0.6640625,9.34 L0.6640625,8.34 L1.33203125,8.34 L1.33203125,11.0079687 C1.33203125,11.1915625 1.48046875,11.34 1.6640625,11.34 L4.15234375,11.34 L5.38671875,13.1915625 C5.44921875,13.2853125 5.5546875,13.34 5.6640625,13.34 L14.9960937,13.34 C15.1210937,13.34 15.2382812,13.2696875 15.2929688,13.1564062 L16.1992188,11.34 L17.1210938,11.34 L18.0273438,13.1564062 C18.0859375,13.2696875 18.1992188,13.34 18.3242188,13.34 L19.65625,13.34 C19.8398438,13.34 19.9882813,13.1915625 19.9882813,13.0079687 L19.9882813,4.34 C19.9960938,4.1525 19.8476562,4.0040625 19.6640625,4.0040625 Z M3.99609375,10.6720312 L1.99609375,10.6720312 L1.99609375,6.0040625 L3.99609375,6.0040625 L3.99609375,10.6720312 L3.99609375,10.6720312 Z M10.328125,4.0040625 L7.66015625,4.0040625 L7.66015625,2.67203125 L10.328125,2.67203125 L10.328125,4.0040625 Z M16.9960938,10.6720312 L16.328125,10.6720312 L16.328125,7.67203125 L16.9960938,7.67203125 L16.9960938,10.6720312 Z" id="Shape"></path>
                </g>
            </g>
        </g>
    </g>
</svg>