<?xml version="1.0" encoding="UTF-8"?>
<svg width="24px" height="24px" viewBox="0 0 24 24" version="1.1" xmlns="http://www.w3.org/2000/svg" xmlns:xlink="http://www.w3.org/1999/xlink">
    <!-- Generator: Sketch 42 (36781) - http://www.bohemiancoding.com/sketch -->
    <title>salary</title>
    <desc>Created with Sketch.</desc>
    <defs></defs>
    <g id="Symbols" stroke="none" stroke-width="1" fill="none" fill-rule="evenodd">
        <g id="salary" fill-rule="nonzero" fill="#666666">
            <g id="dollar-symbol" transform="translate(2.000000, 2.000000)">
                <g id="Capa_1">
                    <g id="Group">
                        <path d="M19.2259091,14.2217355 C18.8457438,14.1928099 18.0564876,14.622562 17.8374793,14.73 C17.0647521,15.1184298 15.9986364,15.7258678 15.296157,16.2093388 C15.2465702,16.2423967 15.1804545,16.2878512 15.1308678,16.3167769 C14.8168182,16.5192562 14.4821074,16.6556198 14.1102066,16.7341322 C12.0688843,17.1680165 9.09367769,17.2176033 9.09367769,17.2176033 L8.92012397,17.2258678 C8.78789256,17.2341322 8.67219008,17.1432231 8.65566116,17.015124 C8.635,16.8746281 8.73830579,16.7465289 8.88293388,16.7341322 L13.3085537,16.3126446 C13.796157,16.2589256 14.1845868,15.8043802 14.1308678,15.2919835 C14.0771488,14.7795868 13.6060744,14.4035537 13.1184711,14.4572727 L9.18458678,14.407686 C8.91599174,14.4035537 8.48623967,14.337438 8.23004132,14.2630579 C5.69285124,13.5233884 4.26309917,14.2176033 3.5027686,14.5399174 C3.33334711,14.2589256 3.01103306,14.0771074 2.65152893,14.1019008 L0.953181818,14.2134711 C0.387066116,14.2506612 -0.038553719,14.7217355 0.00276859504,15.2671901 L0.275495868,19.0357851 C0.31268595,19.5812397 0.804421488,19.9903306 1.36640496,19.9531405 L3.06475207,19.8415702 C3.4242562,19.8167769 3.7135124,19.5977686 3.84161157,19.2961157 L11.296157,19.6184298 C12.1267355,19.7052066 12.903595,19.6060331 13.635,19.2217355 L13.849876,19.1101653 L19.4821074,15.8126446 C19.7589669,15.6514876 19.957314,15.3704959 19.9655785,15.0564463 C19.9821074,14.6804132 19.7630992,14.2589256 19.2259091,14.2217355 Z M1.9903719,19.0605785 C1.67219008,19.0605785 1.4118595,18.8126446 1.4118595,18.5027273 C1.4118595,18.1928099 1.67219008,17.944876 1.9903719,17.944876 C2.30855372,17.944876 2.5688843,18.1928099 2.5688843,18.5027273 C2.5688843,18.8126446 2.30855372,19.0605785 1.9903719,19.0605785 Z" id="Shape"></path>
                        <path d="M15.2135124,15.3952893 C15.7878926,14.9944628 16.9655785,14.3539669 17.6308678,14.0192562 C17.8333471,13.9200826 18.0440909,13.8167769 18.2713636,13.7382645 C17.9821074,13.5440496 17.6721901,13.5357851 17.349876,13.6597521 C16.7176446,13.9118182 15.5523554,14.4738017 14.957314,14.7961157 C14.9531818,14.8043802 14.9490496,14.8126446 14.9490496,14.8209091 C14.9903719,14.944876 15.0234298,15.0729752 15.0358264,15.2052066 C15.0482231,15.3126446 15.0440909,15.4159504 15.0399587,15.5192562 C15.0936777,15.4779339 15.1515289,15.4366116 15.2135124,15.3952893 Z" id="Shape"></path>
                        <path d="M16.7341736,13.283719 C16.4449174,13.0977686 16.1391322,13.0895041 15.8250826,13.2134711 C15.4325207,13.3663636 14.5606198,13.6514876 14.1721901,13.8580992 C14.3374793,13.961405 14.4862397,14.0895041 14.6143388,14.2382645 C14.6391322,14.2217355 14.6639256,14.2010744 14.6928512,14.1845455 L14.9779752,14.0275207 C15.3911983,13.8002479 16.2796281,13.4861983 16.7341736,13.283719 Z" id="Shape"></path>
                        <path d="M16.1680579,5.9531405 C17.2713636,5.48206612 18.0482231,4.38289256 18.0482231,3.10603306 C18.0482231,1.39528926 16.6597934,0.0109917355 14.9531818,0.0109917355 C13.2465702,0.0109917355 11.8581405,1.39942149 11.8581405,3.10603306 C11.8581405,3.12256198 11.8622727,3.13909091 11.8622727,3.15561983 C13.7011157,3.34983471 15.2796281,4.42834711 16.1680579,5.9531405 Z" id="Shape"></path>
                        <path d="M11.2713636,13.2878512 C13.7548347,13.2878512 15.7672314,11.2754545 15.7672314,8.79198347 C15.7672314,6.3085124 13.7548347,4.2961157 11.2713636,4.2961157 C8.78789256,4.2961157 6.77549587,6.3085124 6.77549587,8.79198347 C6.77549587,11.2754545 8.78789256,13.2878512 11.2713636,13.2878512 Z M9.7011157,10.568843 C9.74243802,10.4200826 9.78376033,10.2713223 9.82921488,10.1266942 C9.88293388,9.95727273 9.92838843,9.93661157 10.0854132,10.015124 C10.3540083,10.1556198 10.635,10.23 10.9325207,10.2671901 C11.1226033,10.2919835 11.312686,10.2713223 11.4862397,10.1928099 C11.8168182,10.0481818 11.8705372,9.6638843 11.5895455,9.43661157 C11.4945041,9.35809917 11.3870661,9.30024793 11.2754959,9.25066116 C10.9862397,9.12256198 10.6845868,9.02752066 10.4077273,8.8622314 C9.96557851,8.5977686 9.68045455,8.23 9.7135124,7.69280992 C9.75070248,7.08123967 10.0978099,6.70107438 10.6556612,6.49859504 C10.8870661,6.41595041 10.8870661,6.41595041 10.8911983,6.17628099 L10.8911983,5.93247934 C10.8953306,5.75066116 10.9283884,5.71760331 11.1060744,5.71347107 L11.2754959,5.71347107 C11.6597934,5.71347107 11.6597934,5.71347107 11.6639256,6.0977686 C11.6639256,6.37049587 11.6639256,6.37049587 11.9366529,6.41595041 C12.1432645,6.44900826 12.3457438,6.51099174 12.5358264,6.59363636 C12.6432645,6.63909091 12.6804545,6.71347107 12.6515289,6.82504132 C12.6019421,6.99033058 12.5564876,7.15975207 12.5027686,7.32504132 C12.4531818,7.48206612 12.403595,7.50272727 12.2507025,7.43247934 C11.9490496,7.28785124 11.6308678,7.22586777 11.3002893,7.24239669 C11.2135124,7.24652893 11.1267355,7.25892562 11.0482231,7.2961157 C10.7589669,7.42008264 10.7135124,7.73826446 10.957314,7.93661157 C11.081281,8.03578512 11.2217769,8.10603306 11.3705372,8.16801653 C11.6267355,8.27545455 11.8829339,8.3746281 12.1226033,8.5068595 C12.8953306,8.93247934 13.1019421,9.90355372 12.5564876,10.5605785 C12.3581405,10.8002479 12.1060744,10.961405 11.8085537,11.0399174 C11.6804545,11.0771074 11.6184711,11.1432231 11.6267355,11.2795868 C11.6308678,11.4118182 11.6267355,11.5440496 11.6267355,11.676281 C11.6267355,11.7961157 11.5647521,11.8580992 11.4490496,11.8622314 C11.3044215,11.8663636 11.1639256,11.8663636 11.0192975,11.8622314 C10.8953306,11.8580992 10.8333471,11.7878512 10.8333471,11.6680165 C10.8333471,11.5729752 10.8333471,11.4738017 10.8292149,11.3787603 C10.8250826,11.1638843 10.8209504,11.1556198 10.6143388,11.122562 C10.349876,11.0812397 10.0936777,11.0192562 9.84987603,10.9035537 C9.66392562,10.8167769 9.64739669,10.7671901 9.7011157,10.568843 Z" id="Shape"></path>
                    </g>
                </g>
            </g>
        </g>
    </g>
</svg>