<?xml version="1.0" encoding="utf-8"?>
<!-- Generator: Adobe Illustrator 21.0.2, SVG Export Plug-In . SVG Version: 6.00 Build 0)  -->
<svg version="1.1" id="Layer_1" xmlns="http://www.w3.org/2000/svg" xmlns:xlink="http://www.w3.org/1999/xlink" x="0px" y="0px"
	 viewBox="0 0 32 32" style="enable-background:new 0 0 32 32;" xml:space="preserve">
<style type="text/css">
	.st0{fill:#FFFFFF;}
</style>
<title>Material/Icons white/wallet</title>
<desc>Created with Sketch.</desc>
<g>
	<path class="st0" d="M17.9,14h0.7c0.2,0,0.3-0.2,0.3-0.3s-0.2-0.3-0.3-0.3h-0.7c-0.2,0-0.3,0.2-0.3,0.3S17.7,14,17.9,14z"/>
	<path class="st0" d="M16.7,16.3c-0.1,0-0.3,0-0.4-0.1c-0.2-0.1-0.4,0-0.4,0.2c-0.1,0.2,0,0.4,0.2,0.4c0.2,0.1,0.4,0.1,0.7,0.1h0.1
		c0.2,0,0.3-0.2,0.3-0.3c0-0.2-0.2-0.3-0.3-0.3H16.7z"/>
	<path class="st0" d="M15.9,14.2c0.1,0,0.1,0,0.2-0.1c0.2-0.1,0.3-0.2,0.5-0.2c0.2,0,0.3-0.2,0.3-0.4c0-0.2-0.2-0.3-0.4-0.3
		c-0.3,0-0.5,0.1-0.8,0.3c-0.2,0.1-0.2,0.3-0.1,0.5C15.7,14.1,15.8,14.2,15.9,14.2z"/>
	<path class="st0" d="M18.1,19.4C18,19.4,18,19.4,18.1,19.4c-0.3,0-0.4,0.2-0.4,0.4c0,0.2,0.2,0.3,0.3,0.3c0,0,0,0,0,0l0.7,0
		c0.2,0,0.3-0.2,0.3-0.3s-0.2-0.3-0.3-0.3H18.1z"/>
	<path class="st0" d="M20.6,14c0.2,0,0.3-0.2,0.3-0.3s-0.2-0.3-0.3-0.3h-0.7c-0.2,0-0.3,0.2-0.3,0.3s0.2,0.3,0.3,0.3H20.6z"/>
	<path class="st0" d="M22.1,19.4c-0.2,0-0.3,0.2-0.3,0.3s0.2,0.3,0.3,0.3h0.7c0.2,0,0.3-0.2,0.3-0.3s-0.2-0.3-0.3-0.3H22.1z"/>
	<path class="st0" d="M23.3,16.7c0-0.2-0.2-0.3-0.3-0.3h-0.7c-0.2,0-0.3,0.2-0.3,0.3c0,0.2,0.2,0.3,0.3,0.3H23
		C23.1,17,23.3,16.9,23.3,16.7z"/>
	<path class="st0" d="M20,20.1h0.7c0.2,0,0.3-0.2,0.3-0.3s-0.2-0.3-0.3-0.3H20c-0.2,0-0.3,0.2-0.3,0.3S19.9,20.1,20,20.1z"/>
	<path class="st0" d="M21.3,16.7c0-0.2-0.2-0.3-0.3-0.3h-0.7c-0.2,0-0.3,0.2-0.3,0.3c0,0.2,0.2,0.3,0.3,0.3h0.7
		C21.1,17,21.3,16.9,21.3,16.7z"/>
	<path class="st0" d="M18.2,16.3c-0.2,0-0.3,0.2-0.3,0.3c0,0.2,0.2,0.3,0.3,0.3h0.7c0.2,0,0.3-0.2,0.3-0.3c0-0.2-0.2-0.3-0.3-0.3
		H18.2z"/>
	<path class="st0" d="M14,25.5h-0.7c-0.2,0-0.3,0.2-0.3,0.3c0,0.2,0.2,0.3,0.3,0.3H14c0.2,0,0.3-0.2,0.3-0.3
		C14.4,25.7,14.2,25.5,14,25.5z"/>
	<path class="st0" d="M12,25.5h-0.7c-0.2,0-0.3,0.2-0.3,0.3c0,0.2,0.2,0.3,0.3,0.3H12c0.2,0,0.3-0.2,0.3-0.3
		C12.3,25.7,12.2,25.5,12,25.5z"/>
	<path class="st0" d="M23.7,24.3c-0.2,0-0.4,0.1-0.4,0.3c0,0.2-0.1,0.3-0.2,0.5c-0.1,0.1-0.1,0.4,0.1,0.5c0.1,0,0.1,0.1,0.2,0.1
		c0.1,0,0.2,0,0.3-0.1c0.2-0.2,0.3-0.5,0.4-0.7C24,24.6,23.9,24.4,23.7,24.3z"/>
	<path class="st0" d="M23.4,23.7c0.1,0,0.1,0,0.2-0.1c0.1-0.1,0.2-0.3,0.1-0.5c-0.2-0.2-0.4-0.4-0.6-0.5c-0.2-0.1-0.4,0-0.5,0.2
		c-0.1,0.2,0,0.4,0.2,0.5c0.2,0.1,0.3,0.2,0.4,0.3C23.2,23.7,23.3,23.7,23.4,23.7z"/>
	<path class="st0" d="M21.8,22.8c0-0.2-0.2-0.3-0.3-0.3h-0.7c-0.2,0-0.3,0.2-0.3,0.3c0,0.2,0.2,0.3,0.3,0.3h0.7
		C21.7,23.1,21.8,23,21.8,22.8z"/>
	<path class="st0" d="M22.2,25.5h-0.7c-0.2,0-0.3,0.2-0.3,0.3c0,0.2,0.2,0.3,0.3,0.3l0.7,0l0-0.3v0.3c0.2,0,0.3-0.2,0.3-0.3
		C22.5,25.7,22.3,25.5,22.2,25.5z"/>
	<path class="st0" d="M26,17.9c0-0.2-0.2-0.3-0.4-0.3c-0.2,0-0.3,0.2-0.3,0.4c0,0.1,0,0.1,0,0.2c0,0.1,0,0.2,0,0.3
		c-0.1,0.2,0.1,0.4,0.2,0.4c0,0,0.1,0,0.1,0c0.1,0,0.3-0.1,0.3-0.2c0.1-0.2,0.1-0.3,0.1-0.5C26.1,18.1,26.1,18,26,17.9z"/>
	<path class="st0" d="M15.4,16c0.2-0.1,0.3-0.3,0.2-0.4c0-0.1-0.1-0.2-0.1-0.4c0-0.1,0-0.1,0-0.2c0-0.2-0.1-0.4-0.3-0.4
		c-0.2,0-0.4,0.1-0.4,0.3c0,0.1,0,0.2,0,0.2c0,0.2,0,0.4,0.1,0.6c0,0.1,0.2,0.2,0.3,0.2C15.3,16,15.3,16,15.4,16z"/>
	<path class="st0" d="M25.1,16.6c-0.2-0.1-0.5-0.2-0.8-0.2c-0.2,0-0.4,0.1-0.4,0.3c0,0.2,0.1,0.4,0.3,0.4c0.2,0,0.3,0.1,0.5,0.2
		c0.1,0,0.1,0,0.2,0c0.1,0,0.2-0.1,0.3-0.2C25.4,16.9,25.3,16.7,25.1,16.6z"/>
	<path class="st0" d="M24.7,19.3c-0.1,0.1-0.3,0.1-0.5,0.1h-0.1c-0.2,0-0.3,0.2-0.3,0.3s0.2,0.3,0.3,0.3h0.1c0.3,0,0.5,0,0.7-0.1
		c0.2-0.1,0.3-0.3,0.2-0.4C25,19.3,24.8,19.2,24.7,19.3z"/>
	<path class="st0" d="M16.9,21c0-0.2,0.1-0.3,0.2-0.5c0.1-0.2,0.1-0.4-0.1-0.5c-0.2-0.1-0.4-0.1-0.5,0.1c-0.2,0.2-0.3,0.5-0.3,0.8
		c0,0.2,0.1,0.4,0.3,0.4c0,0,0,0,0.1,0C16.7,21.3,16.9,21.2,16.9,21z"/>
	<path class="st0" d="M17.4,23c0.1,0,0.3-0.1,0.3-0.2c0.1-0.2,0-0.4-0.2-0.5c-0.2-0.1-0.3-0.2-0.4-0.3c-0.1-0.1-0.3-0.2-0.5,0
		c-0.1,0.1-0.2,0.3,0,0.5c0.2,0.2,0.4,0.4,0.7,0.5C17.3,23,17.4,23,17.4,23z"/>
	<path class="st0" d="M16.1,25.5h-0.7c-0.2,0-0.3,0.2-0.3,0.3c0,0.2,0.2,0.3,0.3,0.3h0.7c0.2,0,0.3-0.2,0.3-0.3
		C16.4,25.7,16.2,25.5,16.1,25.5z"/>
	<path class="st0" d="M18.1,25.5h-0.7c-0.2,0-0.3,0.2-0.3,0.3c0,0.2,0.2,0.3,0.3,0.3h0.7c0.2,0,0.3-0.2,0.3-0.3
		C18.4,25.7,18.3,25.5,18.1,25.5z"/>
	<path class="st0" d="M19.8,22.8c0-0.2-0.2-0.3-0.3-0.3h-0.7c-0.2,0-0.3,0.2-0.3,0.3c0,0.2,0.2,0.3,0.3,0.3h0.7
		C19.6,23.1,19.8,23,19.8,22.8z"/>
	<path class="st0" d="M20.1,25.5h-0.7c-0.2,0-0.3,0.2-0.3,0.3c0,0.2,0.2,0.3,0.3,0.3h0.7c0.2,0,0.3-0.2,0.3-0.3
		C20.5,25.7,20.3,25.5,20.1,25.5z"/>
	<path class="st0" d="M13,15.7c-0.8-0.9-1.8-1.4-2.9-1.4s-2.1,0.5-2.9,1.4c-1.6,1.8-1.6,4.7,0,6.4l2.9,3.3l2.9-3.3
		C14.5,20.3,14.5,17.4,13,15.7z M10.1,20.4c-1.1,0-2-0.9-2-2s0.9-2,2-2s2,0.9,2,2S11.2,20.4,10.1,20.4z"/>
	<path class="st0" d="M22.4,14.1l2.2-2.5c1.2-1.3,1.2-3.5,0-4.8c-0.6-0.7-1.4-1-2.2-1c-0.8,0-1.6,0.4-2.2,1c-1.2,1.3-1.2,3.5,0,4.8
		L22.4,14.1z M22.5,7.2c1,0,1.9,0.8,1.9,1.9s-0.8,1.9-1.9,1.9s-1.9-0.8-1.9-1.9S21.5,7.2,22.5,7.2z"/>
</g>
</svg>
