<?xml version="1.0" encoding="UTF-8"?>
<svg width="32px" height="32px" viewBox="0 0 32 32" version="1.1" xmlns="http://www.w3.org/2000/svg" xmlns:xlink="http://www.w3.org/1999/xlink">
    <!-- Generator: Sketch 42 (36781) - http://www.bohemiancoding.com/sketch -->
    <title>Material/Icons white/settings</title>
    <desc>Created with Sketch.</desc>
    <defs></defs>
    <g id="Symbols" stroke="none" stroke-width="1" fill="none" fill-rule="evenodd">
        <g id="Material/Icons-white/settings" fill-rule="nonzero" fill="#666666">
            <g id="three" transform="translate(6.000000, 6.000000)">
                <g id="Capa_1">
                    <g id="Group">
                        <path d="M1.26794057,6.97538474 C1.36945869,7.3225648 1.51034097,7.65734557 1.68851563,7.97146087 L1.18092504,8.61002419 C1.01518118,8.81874554 1.03382736,9.11632845 1.22028921,9.30438432 L2.0945881,10.1764676 C2.28312175,10.3645234 2.58146071,10.3810352 2.79071234,10.2157113 L3.42675442,9.71354015 C3.75409855,9.90161668 4.10216067,10.0483209 4.46472538,10.1516483 L4.5600281,10.9679348 C4.59110507,11.2324529 4.81485929,11.4308415 5.08004948,11.4308415 L6.31691307,11.4308415 C6.58210326,11.4308415 6.80585748,11.2324323 6.83693445,10.9679348 L6.92809358,10.18058 C7.31759166,10.0793191 7.69051536,9.92846114 8.04064927,9.73213908 L8.65597338,10.2177779 C8.86522501,10.3831017 9.16356396,10.3645028 9.35209761,10.1785134 L10.2263965,9.3064302 C10.4149301,9.11837433 10.4315045,8.82079142 10.2657607,8.61207008 L9.78717526,8.00657152 C9.9860679,7.66350388 10.1414528,7.29774556 10.2450427,6.91543418 L10.9826029,6.83070571 C11.2478138,6.79970749 11.4466857,6.57652031 11.4466857,6.31200217 L11.4466857,5.07827302 C11.4466857,4.81375488 11.2477931,4.5905677 10.9826029,4.55956948 L10.2554017,4.47484101 C10.1559346,4.09666273 10.0067859,3.73501683 9.81620115,3.39610296 L10.2637096,2.83193536 C10.4294535,2.62321402 10.4108073,2.32563111 10.2243454,2.13757524 L9.35211833,1.26755854 C9.16358468,1.07950267 8.86524572,1.06297029 8.65599409,1.22829413 L8.10696754,1.6622692 C7.75061823,1.45354786 7.36938662,1.29442366 6.96955026,1.18696317 L6.88667833,0.478137207 C6.85560135,0.213619065 6.63184714,0.0152304586 6.36665695,0.0152304586 L5.12979335,0.0152304586 C4.86460317,0.0152304586 4.64084895,0.213619065 4.60977198,0.478137207 L4.52690004,1.18696317 C4.11668398,1.29649021 3.72511409,1.46181405 3.36047759,1.67880159 L2.79073305,1.22829413 C2.58148142,1.06297029 2.28314247,1.08156922 2.09460882,1.26755854 L1.22030993,2.13964179 C1.03177628,2.32769765 1.01520189,2.62528056 1.18094576,2.83400191 L1.65745937,3.43536737 C1.46685393,3.77841434 1.32182805,4.14419333 1.22652532,4.52443816 L0.464103541,4.61123318 C0.198913357,4.6422314 2.07179831e-05,4.86541858 2.07179831e-05,5.12993672 L2.07179831e-05,6.36366587 C2.07179831e-05,6.62818401 0.198913357,6.85137119 0.464103541,6.88236941 L1.26794057,6.97538474 Z M5.74924033,3.63790974 C6.87629862,3.63790974 7.79410527,4.5533905 7.79410527,5.6775926 C7.79410527,6.80179471 6.87629862,7.71727546 5.74924033,7.71727546 C4.62220277,7.71727546 3.70437539,6.80179471 3.70437539,5.6775926 C3.70437539,4.5533905 4.62218205,3.63790974 5.74924033,3.63790974 Z" id="Shape"></path>
                        <path d="M17.9769733,7.27916729 L17.3243568,6.72946553 C17.1234131,6.56000859 16.8271252,6.56827478 16.6365405,6.74806446 L16.2760476,7.08491178 C15.971514,6.93818687 15.6483134,6.83485947 15.3147332,6.77492958 L15.2132565,6.27895807 C15.1614615,6.02270612 14.9232047,5.84498299 14.6621167,5.86564847 L13.8106076,5.93797765 C13.549561,5.96070968 13.344453,6.17356412 13.3361658,6.43601571 L13.3196121,6.94025342 C12.9922473,7.05804666 12.6835493,7.2192374 12.4017847,7.4217591 L11.9708714,7.13657548 C11.7512193,6.99191712 11.4591165,7.03324808 11.2892498,7.23370324 L10.7381514,7.88879895 C10.5682432,8.0892541 10.5765304,8.38477046 10.7567562,8.57489288 L11.1338442,8.97578252 C11.0033002,9.26923233 10.9100692,9.57716865 10.8562232,9.89332983 L10.3175556,10.0028569 C10.0606526,10.0545206 9.88247798,10.2921736 9.90319596,10.5525793 L9.9757089,11.4019305 C9.99849869,11.6623156 10.2118939,11.8669038 10.4750123,11.87517 L11.0571876,11.8937483 C11.1628908,12.1706657 11.3016805,12.433138 11.4694755,12.6790365 L11.1442239,13.1688084 C10.999198,13.3878625 11.040634,13.6792457 11.2415777,13.8487027 L11.8941941,14.3984044 C12.0951793,14.5678614 12.3914257,14.5595952 12.5820519,14.3798055 L13.0088424,13.9809617 C13.2885351,14.1111543 13.5827098,14.208282 13.8851923,14.2661454 L14.0033056,14.8489119 C14.0551005,15.1051638 14.2933573,15.282887 14.5544039,15.2622215 L15.405913,15.1898923 C15.6669596,15.1671603 15.8720676,14.9543265 15.8803548,14.6918542 L15.899001,14.1214663 C16.2097708,14.0119393 16.5039454,13.8631478 16.775351,13.6792457 L17.2456699,13.9892279 C17.4652805,14.1338863 17.7573834,14.0925553 17.9272916,13.8921002 L18.4783899,13.2411376 C18.6482567,13.0406824 18.6399695,12.745166 18.4597437,12.5550436 L18.0805839,12.154154 C18.2194151,11.8607042 18.320954,11.550722 18.3789229,11.2324529 L18.8968725,11.127059 C19.1537755,11.0753953 19.3319501,10.8377423 19.3112321,10.5773365 L19.2387192,9.72798532 C19.2159294,9.46760028 19.0025342,9.26301203 18.7394158,9.25474583 L18.2193944,9.23821345 C18.1116402,8.93649744 17.9666143,8.65133449 17.7863886,8.38679568 L18.0702042,7.96108679 C18.2193944,7.74207404 18.1779584,7.44862423 17.9769733,7.27916729 Z M14.7677991,12.1892646 C13.8479207,12.2678141 13.0357343,11.5837661 12.9590985,10.6662394 C12.8803494,9.74869213 13.5661561,8.93858466 14.4859931,8.86212238 C15.4058716,8.78359356 16.218058,9.46764161 16.2946938,10.3851682 C16.3734428,11.3027362 15.6876362,12.112823 14.7677991,12.1892646 Z" id="Shape"></path>
                        <path d="M4.24718655,14.4748874 C3.98613997,14.5017525 3.78517553,14.7207859 3.78310373,14.9832582 L3.77688833,15.5060948 C3.77274474,15.7685464 3.96749378,15.9917336 4.22854037,16.024819 L4.61389486,16.0743955 C4.6781206,16.3079361 4.76927973,16.5311233 4.88737223,16.7419112 L4.63875644,17.0477603 C4.47301257,17.2523279 4.48544336,17.5457983 4.66983341,17.7338542 L5.03654171,18.1078994 C5.22093176,18.2959553 5.51512712,18.3166207 5.72437875,18.15543 L6.03305599,17.917777 C6.25059481,18.045903 6.48058514,18.1471845 6.72089303,18.2174264 L6.76232899,18.6142037 C6.78926237,18.8745887 7.00887299,19.0750439 7.27199138,19.0771104 L7.79617707,19.08331 C8.05927474,19.0874431 8.28304968,18.8931876 8.31619845,18.6328026 L8.36384981,18.2566909 C8.62491712,18.1926072 8.87353292,18.0955001 9.10969721,17.9673741 L9.39974897,18.2008941 C9.60485701,18.3662179 9.89907308,18.3538186 10.0876067,18.1698958 L10.4626022,17.8041168 C10.6511359,17.6202147 10.6718539,17.3267443 10.5102743,17.1180229 L10.2885505,16.8307521 C10.4252891,16.6034318 10.5309716,16.3616457 10.6034845,16.1074603 L10.947403,16.072329 C11.2084496,16.0454638 11.4093933,15.8264098 11.4114859,15.5639582 L11.4176805,15.0411009 C11.4218448,14.7786699 11.2270958,14.5554621 10.9660492,14.5223973 L10.6303972,14.4789998 C10.5661714,14.226881 10.4708894,13.9830283 10.3465815,13.755708 L10.5558332,13.4994561 C10.721577,13.2948678 10.7091462,13.001418 10.5247562,12.8133621 L10.1580686,12.4393169 C9.97367854,12.2512404 9.67944174,12.2305749 9.47021083,12.3917863 L9.21950252,12.5839753 C8.98333823,12.4413835 8.73055811,12.3318564 8.46538865,12.2574607 L8.43221916,11.9330127 C8.40528578,11.672607 8.18569587,11.4721725 7.92255677,11.4701059 L7.3983918,11.4639063 C7.13527341,11.4597732 6.91151919,11.6540287 6.8783497,11.9144138 L6.83691373,12.2368159 C6.56345707,12.3070579 6.30033869,12.414539 6.05586649,12.5550436 L5.7968917,12.3442557 C5.59178366,12.1789319 5.29756758,12.1913519 5.10903394,12.375254 L4.73196664,12.7431202 C4.54343299,12.9270223 4.52271501,13.2204927 4.68431528,13.4291934 L4.9059977,13.7143977 C4.7775462,13.941718 4.67602809,14.1834834 4.60973054,14.4376895 L4.24718655,14.4748874 Z M7.63043321,13.883834 C8.382496,13.8921002 8.98536859,14.5100187 8.97710211,15.2601756 C8.96881492,16.0103325 8.34932651,16.6116773 7.59726372,16.6034318 C6.84520093,16.5951656 6.24232833,15.9772678 6.25059481,15.2270902 C6.25890272,14.4769539 6.87837042,13.8755885 7.63043321,13.883834 Z" id="Shape"></path>
                    </g>
                </g>
            </g>
        </g>
    </g>
</svg>