<?xml version="1.0" encoding="UTF-8"?>
<svg width="32px" height="32px" viewBox="0 0 32 32" version="1.1" xmlns="http://www.w3.org/2000/svg" xmlns:xlink="http://www.w3.org/1999/xlink">
    <!-- Generator: Sketch 42 (36781) - http://www.bohemiancoding.com/sketch -->
    <title>Material/Icons white/shop</title>
    <desc>Created with Sketch.</desc>
    <defs></defs>
    <g id="Symbols" stroke="none" stroke-width="1" fill="none" fill-rule="evenodd">
        <g id="Material/Icons-white/shop" fill-rule="nonzero" fill="#666666">
            <g id="shop_light" transform="translate(8.000000, 8.000000)">
                <g id="Capa_1">
                    <g id="Cart">
                        <path d="M15.5141818,0.37430303 C15.449697,0.114909091 15.1859394,-0.0441212121 14.9260606,0.0213333333 L12.9847273,0.506181818 C12.7956364,0.55369697 12.6530909,0.708848485 12.6230303,0.900363636 L12.3772121,2.45575758 L0.42569697,3.88945455 C0.416484848,3.89042424 0.409212121,3.89721212 0.399030303,3.89915152 C0.387878788,3.90109091 0.37769697,3.89769697 0.366060606,3.90060606 C0.338424242,3.90739394 0.317575758,3.92436364 0.293333333,3.9350303 C0.26569697,3.94666667 0.24,3.95587879 0.215757576,3.97187879 C0.181818182,3.99515152 0.154181818,4.02521212 0.127515152,4.05575758 C0.113454545,4.07078788 0.096,4.07951515 0.0838787879,4.096 C0.080969697,4.09987879 0.080969697,4.10472727 0.079030303,4.10860606 C0.0528484848,4.14933333 0.0378181818,4.19490909 0.0242424242,4.24145455 C0.0193939394,4.25842424 0.0096969697,4.2729697 0.00678787879,4.29042424 C-0.00290909091,4.35442424 -0.00290909091,4.42181818 0.0135757576,4.48872727 L1.47006061,10.3069091 L1.95490909,12.246303 C1.95878788,12.2603636 1.9670303,12.2715152 1.97187879,12.2846061 C1.97963636,12.3078788 1.98981818,12.3292121 2.00145455,12.3510303 C2.01745455,12.3825455 2.03733333,12.4116364 2.06060606,12.4392727 C2.07466667,12.4557576 2.08969697,12.4722424 2.10569697,12.4882424 C2.13527273,12.5139394 2.16630303,12.5338182 2.19975758,12.5517576 C2.21721212,12.5619394 2.23272727,12.5726061 2.25163636,12.5803636 C2.30593939,12.6007273 2.36412121,12.6133333 2.42472727,12.6133333 L12.6172121,12.6133333 C12.8853333,12.6133333 13.1020606,12.3966061 13.1020606,12.1289697 C13.1020606,11.8608485 12.8853333,11.6436364 12.6172121,11.6436364 L2.80387879,11.6436364 L2.56145455,10.6739394 L11.6470303,10.6739394 C11.7066667,10.6739394 11.7643636,10.6637576 11.817697,10.6433939 C11.8395152,10.6346667 11.8564848,10.6206061 11.8763636,10.6099394 C11.9064242,10.5939394 11.9374545,10.5798788 11.9631515,10.5580606 C11.9820606,10.5420606 11.9946667,10.5202424 12.0126061,10.5003636 C12.0329697,10.4756364 12.0557576,10.454303 12.0717576,10.4276364 C12.0848485,10.4019394 12.0906667,10.3728485 12.1003636,10.3442424 C12.1105455,10.3185455 12.1231515,10.294303 12.1289697,10.2676364 L12.1309091,10.2574545 L12.1309091,10.2521212 L13.5321212,1.36921212 L15.1612121,0.962424242 C15.4220606,0.897454545 15.5796364,0.634181818 15.5141818,0.37430303 Z M2.3190303,9.70375758 L1.088,4.78690909 L2.5929697,4.60654545 L3.32266667,9.70375758 L2.3190303,9.70375758 Z M4.30206061,9.70375758 L3.55684848,4.49115152 L5.06909091,4.30981818 L5.31393939,9.70375758 L4.30206061,9.70375758 Z M7.29987879,9.70375758 L6.2870303,9.70375758 L6.03587879,4.19345455 L7.54666667,4.01260606 L7.29987879,9.70375758 Z M9.27660606,9.70375758 L8.27151515,9.70375758 L8.52363636,3.89527273 L10.0276364,3.71539394 L9.27660606,9.70375758 Z M11.222303,9.70375758 L10.2555152,9.70375758 L11.0196364,3.59563636 L12.0538182,3.472 L11.222303,9.70375758 Z M4.36606061,13.5825455 C3.83078788,13.5825455 3.39539394,14.0169697 3.39539394,14.5527273 C3.39539394,15.0884848 3.83030303,15.5219394 4.36606061,15.5219394 C4.90230303,15.5219394 5.33672727,15.088 5.33672727,14.5527273 C5.33672727,14.0179394 4.90230303,13.5825455 4.36606061,13.5825455 Z M10.6768485,13.5825455 C10.1410909,13.5825455 9.70618182,14.0169697 9.70618182,14.5527273 C9.70618182,15.0884848 10.1406061,15.5219394 10.6768485,15.5219394 C11.2121212,15.5219394 11.6475152,15.088 11.6475152,14.5527273 C11.6465455,14.0174545 11.2121212,13.5825455 10.6768485,13.5825455 Z" id="Shape"></path>
                    </g>
                </g>
            </g>
        </g>
    </g>
</svg>