<?xml version="1.0" encoding="UTF-8"?>
<svg width="24px" height="24px" viewBox="0 0 24 24" version="1.1" xmlns="http://www.w3.org/2000/svg" xmlns:xlink="http://www.w3.org/1999/xlink">
    <!-- Generator: Sketch 42 (36781) - http://www.bohemiancoding.com/sketch -->
    <title>status_money</title>
    <desc>Created with Sketch.</desc>
    <defs></defs>
    <g id="Symbols" stroke="none" stroke-width="1" fill="none" fill-rule="evenodd">
        <g id="status_money" fill-rule="nonzero" fill="#666666">
            <g id="status_money-copy" transform="translate(2.000000, 2.000000)">
                <g id="Layer_1">
                    <path d="M10.8201172,3.84050781 C10.8201172,4.00140625 10.820625,4.37257812 11.3966016,4.52183594 L11.3966016,3.15914063 C10.820625,3.3084375 10.8201172,3.67960938 10.8201172,3.84050781 Z" id="Shape"></path>
                    <path d="M12.5846875,5.83796875 L12.5846875,7.200625 C13.1606641,7.05140625 13.1611719,6.68023438 13.1611719,6.51929688 C13.1611719,6.35835938 13.1606641,5.9871875 12.5846875,5.83796875 Z" id="Shape"></path>
                    <path d="M11.990625,0 C9.13441406,0 6.81074219,2.32367188 6.81074219,5.17988281 C6.81074219,8.03609375 9.13445312,10.3597656 11.990625,10.3597656 C14.8468359,10.3597656 17.1705078,8.03609375 17.1705078,5.17988281 C17.1705078,2.32367187 14.846875,0 11.990625,0 Z M13.5680469,4.98996094 C14.0791406,5.33089844 14.3492578,5.85972656 14.3492578,6.51929688 C14.3492578,7.17886719 14.0791016,7.70769531 13.5680469,8.04863281 C13.2972656,8.22925781 12.9678125,8.34964844 12.5846875,8.40914062 L12.5846875,8.99339844 L11.3965625,8.99339844 L11.3965625,8.40914062 C11.0134375,8.34960938 10.6839844,8.22925781 10.4132031,8.04863281 C9.90210937,7.70769531 9.63199219,7.17886719 9.63199219,6.51929688 L10.8201172,6.51929688 C10.8201172,6.68019531 10.820625,7.05136719 11.3966016,7.200625 L11.3966016,5.73039063 C11.0134766,5.67085938 10.6840234,5.55046875 10.4132422,5.36984375 C9.90214844,5.02890625 9.63203125,4.50007813 9.63203125,3.84050781 C9.63203125,3.1809375 9.9021875,2.65210938 10.4132422,2.31117187 C10.6840234,2.13054687 11.0134766,2.01015625 11.3966016,1.950625 L11.3966016,1.36636719 L12.5847266,1.36636719 L12.5847266,1.950625 C12.9678516,2.01015625 13.2973047,2.13050781 13.5680859,2.31117187 C14.0791797,2.65210937 14.3492969,3.1809375 14.3492969,3.84050781 L13.1611719,3.84050781 C13.1611719,3.67960938 13.1606641,3.3084375 12.5846875,3.15917969 L12.5846875,4.62941406 C12.9678125,4.68898437 13.2973047,4.80933594 13.5680469,4.98996094 Z" id="Shape"></path>
                    <polygon id="Shape" points="0.0109375 11.9406641 0.0109375 20 2.94082031 20 2.94082031 18.811875 2.94082031 18.4689062 2.94082031 13.1287891 2.94082031 12.0280859 2.94082031 11.9406641"></polygon>
                    <polygon id="Shape" points="19.5482813 13.8351172 14.6046484 15.1937891 10.3928906 14.1666016 10.6744141 13.0123437 14.586875 13.9665234 14.5957422 13.9640625 14.5957422 12.4382422 9.12609375 11.0685547 4.12894531 11.8437891 4.12894531 11.9406641 4.12894531 13.0461328 4.12894531 17.1401172 4.12894531 18.3357031 7.01679687 18.0117578 12.6122656 19.5825 19.9890625 15.5167578"></polygon>
                </g>
            </g>
        </g>
    </g>
</svg>