<?xml version="1.0" encoding="UTF-8"?>
<svg width="24px" height="24px" viewBox="0 0 24 24" version="1.1" xmlns="http://www.w3.org/2000/svg" xmlns:xlink="http://www.w3.org/1999/xlink">
    <!-- Generator: Sketch 42 (36781) - http://www.bohemiancoding.com/sketch -->
    <title>trailer</title>
    <desc>Created with Sketch.</desc>
    <defs></defs>
    <g id="Symbols" stroke="none" stroke-width="1" fill="none" fill-rule="evenodd">
        <g id="trailer" fill-rule="nonzero" fill="#666666">
            <g transform="translate(2.000000, 4.000000)" id="Layer_1">
                <g>
                    <path d="M19.1666797,8.359375 L19.1666797,7.52605469 C19.1666797,7.06605469 18.7933594,6.69273438 18.3333594,6.69273438 C17.8733594,6.69273438 17.5,7.06605469 17.5,7.52605469 L17.5,8.359375 L16.6666797,8.359375 L16.6666797,2.52605469 C16.6666797,1.14773438 15.545,0.0260546875 14.1666797,0.0260546875 L2.5,0.0260546875 C1.12167969,0.0260546875 0,1.14773438 0,2.52605469 L0,8.359375 L15,8.359375 L15,10.0260547 L0,10.0260547 L0,13.359375 C0,13.819375 0.373320312,14.1926953 0.833320312,14.1926953 L1.66664062,14.1926953 C1.66664062,15.5710156 2.78832031,16.6926953 4.16664062,16.6926953 C5.54496094,16.6926953 6.66664062,15.5710156 6.66664062,14.1926953 L9.16664062,14.1926953 C9.16664062,15.5710156 10.2883203,16.6926953 11.6666406,16.6926953 C13.0449609,16.6926953 14.1666406,15.5710156 14.1666406,14.1926953 L15.8333203,14.1926953 C16.2933203,14.1926953 16.6666406,13.819375 16.6666406,13.359375 L16.6666406,10.0260547 L19.1666406,10.0260547 C19.6266406,10.0260547 19.9999609,9.65273438 19.9999609,9.19273438 C19.9999609,8.73273438 19.6266797,8.359375 19.1666797,8.359375 Z M4.16667969,15.0260547 C3.7075,15.0260547 3.33335938,14.651875 3.33335938,14.1927344 C3.33335938,14.0085547 3.40503906,13.8469141 3.50667969,13.7094141 C3.82585938,13.2844141 4.5075,13.2844141 4.82667969,13.7094141 C4.92835938,13.8469141 5,14.0085937 5,14.1927344 C5,14.651875 4.62582031,15.0260547 4.16667969,15.0260547 Z M11.6666797,15.0260547 C11.2075,15.0260547 10.8333594,14.651875 10.8333594,14.1927344 C10.8333594,14.0085547 10.9050391,13.8469141 11.0066797,13.7094141 C11.3258594,13.2844141 12.0075,13.2844141 12.3266797,13.7094141 C12.4283594,13.8469141 12.5,14.0085937 12.5,14.1927344 C12.5,14.651875 12.1258203,15.0260547 11.6666797,15.0260547 Z" id="Shape"></path>
                </g>
            </g>
        </g>
    </g>
</svg>