<?xml version="1.0" encoding="UTF-8"?>
<svg width="24px" height="24px" viewBox="0 0 24 24" version="1.1" xmlns="http://www.w3.org/2000/svg" xmlns:xlink="http://www.w3.org/1999/xlink">
    <!-- Generator: Sketch 42 (36781) - http://www.bohemiancoding.com/sketch -->
    <title>truck</title>
    <desc>Created with Sketch.</desc>
    <defs></defs>
    <g id="Symbols" stroke="none" stroke-width="1" fill="none" fill-rule="evenodd">
        <g id="truck" fill-rule="nonzero" fill="#666666">
            <g id="frontal-truck" transform="translate(3.000000, 2.000000)">
                <g id="Capa_1">
                    <path d="M16.2196732,16.3470261 L16.2196732,13.2629739 C16.2196732,12.6003268 15.6824837,12.0631046 15.0198366,12.0631046 L14.7061765,12.0631046 L14.7061765,0.803856209 C14.7061765,0.703137255 14.6556209,0.609150327 14.571634,0.553627451 L13.8100327,0.0502287582 C13.6105882,-0.0815686275 13.3447059,0.0614052288 13.3447059,0.300457516 L13.3447059,3.91653595 L13.1177451,3.30431373 C12.8125163,2.48091503 12.0271242,1.93444444 11.1489542,1.93444444 L5.90529412,1.93444444 C5.02196078,1.93444444 4.23310458,2.4872549 3.93163399,3.31754902 L3.71415033,3.91653595 L3.71415033,0.300457516 C3.71415033,0.0614379085 3.44823529,-0.0815686275 3.24879085,0.0502287582 L2.48715686,0.553594771 C2.40313725,0.609117647 2.3525817,0.703104575 2.3525817,0.803823529 L2.3525817,12.0631046 L2.03895425,12.0631046 C1.37630719,12.0631046 0.839117647,12.6002941 0.839117647,13.2629739 L0.839117647,16.3470261 L0.327941176,16.3470261 C0.162287582,16.3470261 0.0280065359,16.4813072 0.0280065359,16.6469935 L0.0280065359,18.3052614 C0.0280065359,18.470915 0.162287582,18.6052288 0.327941176,18.6052288 L1.62199346,18.6052288 L1.62199346,19.4000654 C1.62199346,19.7314052 1.89058824,19.9999673 2.2219281,19.9999673 L3.81163399,19.9999673 C4.14297386,19.9999673 4.41156863,19.7313725 4.41156863,19.4000654 L4.41156863,18.6052288 L12.6473203,18.6052288 L12.6473203,19.4000654 C12.6473203,19.7314052 12.9159477,19.9999673 13.2472222,19.9999673 L14.8369608,19.9999673 C15.1683007,19.9999673 15.4368627,19.7313725 15.4368627,19.4000654 L15.4368627,18.6052288 L16.730915,18.6052288 C16.8966013,18.6052288 17.0308824,18.470915 17.0308824,18.3052614 L17.0308824,16.6470261 C17.0308824,16.4813399 16.8966013,16.3470588 16.730915,16.3470588 L16.2196732,16.3470261 L16.2196732,16.3470261 Z M4.11156863,5.5874183 L12.9472549,5.5874183 L12.9472549,8.54297386 L4.11156863,8.54297386 L4.11156863,5.5874183 Z M3.90611111,15.5076144 L2.88137255,15.5076144 C2.56826797,15.5076144 2.31444444,15.2537582 2.31444444,14.9406536 L2.31444444,14.9263399 C2.31444444,14.6132353 2.56826797,14.3594118 2.88137255,14.3594118 L3.90607843,14.3594118 C4.21918301,14.3594118 4.47300654,14.6132353 4.47300654,14.9263399 L4.47300654,14.9406536 C4.47303922,15.2537582 4.21921569,15.5076144 3.90611111,15.5076144 Z M10.5685621,15.6747712 L6.49026144,15.6747712 C6.15892157,15.6747712 5.8903268,15.4061438 5.8903268,15.0748693 L5.8903268,11.2737255 C5.8903268,10.9424183 6.15892157,10.6738235 6.49026144,10.6738235 L10.5685621,10.6738235 C10.8998693,10.6738235 11.1684641,10.942451 11.1684641,11.2737255 L11.1684641,15.0748366 C11.1684967,15.4061438 10.8998693,15.6747712 10.5685621,15.6747712 Z M14.1774183,15.5076144 L13.1527124,15.5076144 C12.8396405,15.5076144 12.5857843,15.2537582 12.5857843,14.9406536 L12.5857843,14.9263399 C12.5857843,14.6132353 12.8396405,14.3594118 13.1527124,14.3594118 L14.1774183,14.3594118 C14.4905229,14.3594118 14.7443791,14.6132353 14.7443791,14.9263399 L14.7443791,14.9406536 C14.7443791,15.2537582 14.4905229,15.5076144 14.1774183,15.5076144 Z M10.4773529,12.8693137 L6.57186275,12.8693137 C6.40784314,12.8693137 6.27490196,12.7363725 6.27490196,12.5723203 L6.27490196,12.5663072 C6.27490196,12.4022876 6.40784314,12.2693791 6.57186275,12.2693791 L10.4773529,12.2693791 C10.6413725,12.2693791 10.7743137,12.4022876 10.7743137,12.5663072 L10.7743137,12.5723203 C10.7743137,12.7363725 10.6413725,12.8693137 10.4773529,12.8693137 Z M10.4773529,11.6694444 L6.57186275,11.6694444 C6.40784314,11.6694444 6.27490196,11.5365033 6.27490196,11.3724837 L6.27490196,11.3664706 C6.27490196,11.2024837 6.40784314,11.0695425 6.57186275,11.0695425 L10.4773529,11.0695425 C10.6413725,11.0695425 10.7743137,11.2024837 10.7743137,11.3664706 L10.7743137,11.3724837 C10.7743137,11.5365033 10.6413725,11.6694444 10.4773529,11.6694444 Z M10.4773529,15.2690196 L6.57186275,15.2690196 C6.40784314,15.2690196 6.27490196,15.1360784 6.27490196,14.9720588 L6.27490196,14.9660458 C6.27490196,14.8020261 6.40784314,14.669085 6.57186275,14.669085 L10.4773529,14.669085 C10.6413725,14.669085 10.7743137,14.8020261 10.7743137,14.9660458 L10.7743137,14.9720588 C10.7743137,15.1360784 10.6413725,15.2690196 10.4773529,15.2690196 Z M10.4773529,14.0691503 L6.57186275,14.0691503 C6.40784314,14.0691503 6.27490196,13.9362092 6.27490196,13.7722222 L6.27490196,13.7662092 C6.27490196,13.6021895 6.40784314,13.4692484 6.57186275,13.4692484 L10.4773529,13.4692484 C10.6413725,13.4692484 10.7743137,13.6021895 10.7743137,13.7662092 L10.7743137,13.7722222 C10.7743137,13.9362092 10.6413725,14.0691503 10.4773529,14.0691503 Z" id="Shape"></path>
                </g>
            </g>
        </g>
    </g>
</svg>