<?xml version="1.0" encoding="UTF-8"?>
<svg width="32px" height="32px" viewBox="0 0 32 32" version="1.1" xmlns="http://www.w3.org/2000/svg" xmlns:xlink="http://www.w3.org/1999/xlink">
    <!-- Generator: Sketch 42 (36781) - http://www.bohemiancoding.com/sketch -->
    <title>Material/Icons white/trucks</title>
    <desc>Created with Sketch.</desc>
    <defs></defs>
    <g id="Symbols" stroke="none" stroke-width="1" fill="none" fill-rule="evenodd">
        <g id="Material/Icons-white/trucks" fill-rule="nonzero" fill="#666666">
            <g id="delivery-truck-silhouette" transform="translate(6.000000, 8.000000)">
                <g id="Capa_1">
                    <path d="M19.682729,0.245444817 C19.5369839,0.100109296 19.3638486,0.0272001141 19.1644928,0.0272001141 L7.37095878,0.0272001141 C7.17136101,0.0272001141 6.99850804,0.100109296 6.8527226,0.245444817 C6.70689681,0.390981522 6.63392341,0.563396446 6.63392341,0.762488406 L6.63392341,2.96819233 L4.79111312,2.96819233 C4.58377024,2.96819233 4.35908156,3.01796532 4.11724876,3.1175113 C3.87537562,3.21721823 3.68154633,3.33953827 3.53572055,3.48507497 L1.25527156,5.75970463 C1.15551301,5.85925061 1.06922771,5.97404636 0.996133294,6.1043333 C0.923240573,6.23429834 0.869468576,6.35138759 0.834897983,6.45459512 C0.800408068,6.55808431 0.775317159,6.69959733 0.760109325,6.87973774 C0.744861152,7.05979766 0.735099094,7.19189526 0.731266881,7.27619147 C0.727596025,7.36036697 0.727596025,7.50594391 0.731266881,7.71276135 C0.735139433,7.91965926 0.737075709,8.05356751 0.737075709,8.11492872 L0.737075709,11.7909678 C0.53751827,11.7909678 0.36478632,11.8636758 0.218839521,12.0093735 C0.0729733996,12.1545883 0,12.3270837 0,12.5262159 C0,12.6409311 0.015248173,12.7425292 0.0459865536,12.830487 C0.0767652733,12.9186057 0.128520316,12.9893823 0.201614733,13.0430985 C0.274507454,13.0968147 0.337880152,13.1407131 0.39157147,13.1752766 C0.445424145,13.2096791 0.535622333,13.2325739 0.662287051,13.2441218 C0.788951768,13.2556698 0.875277404,13.2633953 0.921384975,13.267258 C0.967492546,13.2708391 1.06531482,13.2708391 1.21501315,13.267258 C1.36487284,13.2633953 1.45119848,13.2614639 1.47427243,13.2614639 L2.2113078,13.2614639 C2.2113078,14.0730413 2.49928851,14.7662016 3.07500789,15.3406632 C3.65092897,15.915004 4.34572932,16.2022549 5.15965098,16.2022549 C5.97349196,16.2022549 6.66837299,15.915004 7.24417305,15.3406632 C7.82009412,14.7662418 8.10787314,14.0730413 8.10787314,13.2614639 L12.5305291,13.2614639 C12.5305291,14.0730413 12.8185098,14.7662016 13.3942695,15.3406632 C13.9699486,15.915004 14.6648699,16.2022549 15.4787916,16.2022549 C16.2928746,16.2022549 16.9873522,15.915004 17.5633137,15.3406632 C18.1392347,14.7662418 18.4270541,14.0730413 18.4270541,13.2614639 C18.4499667,13.2614639 18.5364133,13.2633953 18.686031,13.267258 C18.83581,13.2708391 18.9337129,13.2708391 18.9797802,13.267258 C19.0259281,13.2633953 19.1124554,13.2556698 19.2390395,13.2441218 C19.3656638,13.2325739 19.4557814,13.2097193 19.509634,13.1752766 C19.5634867,13.1408338 19.6266577,13.0968147 19.6995908,13.0430985 C19.7726045,12.9893823 19.8245209,12.9186057 19.8551383,12.830487 C19.8861994,12.742489 19.9012458,12.6408909 19.9012458,12.5262159 L19.9012458,0.762609116 C19.9014072,0.56347692 19.8285145,0.39126318 19.682729,0.245444817 Z M6.195962,14.2953499 C5.90435077,14.5862624 5.55872552,14.7320807 5.15948962,14.7320807 C4.76021339,14.7320807 4.41466881,14.5864233 4.12289623,14.2953499 C3.83112365,14.0045179 3.68529787,13.6597283 3.68529787,13.2615444 C3.68529787,12.8633202 3.831285,12.5183697 4.12289623,12.227417 C4.41462847,11.936585 4.76017305,11.7909276 5.15948962,11.7909276 C5.55872552,11.7909276 5.90431044,11.9364643 6.195962,12.227417 C6.4878556,12.5183697 6.63376206,12.8633202 6.63376206,13.2615444 C6.63376206,13.6597283 6.4878556,14.0045179 6.195962,14.2953499 Z M6.63376206,7.37955995 L2.21114645,7.37955995 L2.21114645,7.035052 C2.21114645,6.93546578 2.24563636,6.8512098 2.31473721,6.78224384 L4.56057527,4.54217763 C4.62963578,4.47321166 4.71422683,4.43884939 4.81402572,4.43884939 L6.63376206,4.43884939 L6.63376206,7.37955995 Z M16.5152236,14.2953499 C16.2235721,14.5862624 15.8779871,14.7320807 15.4787916,14.7320807 C15.0794347,14.7320807 14.7337287,14.5864233 14.4420772,14.2953499 C14.1503853,14.0045179 14.0044385,13.6597283 14.0044385,13.2615444 C14.0044385,12.8633202 14.1503449,12.5183697 14.4420772,12.227417 C14.7337287,11.936585 15.0794347,11.7909276 15.4787916,11.7909276 C15.8779871,11.7909276 16.2235721,11.9364643 16.5152236,12.227417 C16.8069155,12.5185306 16.9529833,12.8633202 16.9529833,13.2615444 C16.9529833,13.6597283 16.8071979,14.0045179 16.5152236,14.2953499 Z" id="Shape"></path>
                </g>
            </g>
        </g>
    </g>
</svg>