<?xml version="1.0" encoding="UTF-8"?>
<svg width="24px" height="24px" viewBox="0 0 24 24" version="1.1" xmlns="http://www.w3.org/2000/svg" xmlns:xlink="http://www.w3.org/1999/xlink">
    <!-- Generator: Sketch 42 (36781) - http://www.bohemiancoding.com/sketch -->
    <title>units</title>
    <desc>Created with Sketch.</desc>
    <defs></defs>
    <g id="Symbols" stroke="none" stroke-width="1" fill="none" fill-rule="evenodd">
        <g id="units" fill-rule="nonzero" fill="#666666">
            <g id="units-copy" transform="translate(2.000000, 2.000000)">
                <g id="Capa_1">
                    <g id="Layer_1_135_">
                        <g id="Group">
                            <path d="M18.6929167,0 L6.00875,0 C5.51666667,0 5.11833333,0.39875 5.11833333,0.89 L5.11833333,8.90208333 L0.890416667,8.90208333 C0.39875,8.90208333 0,9.3 0,9.79166667 L0,18.6933333 C0,19.185 0.39875,19.5833333 0.890416667,19.5833333 L9.34666667,19.5833333 L18.6929167,19.5833333 C19.185,19.5833333 19.58375,19.1845833 19.58375,18.6933333 L19.58375,9.79166667 L19.58375,0.89 C19.5833333,0.399166667 19.1845833,0 18.6929167,0 Z M6.89875,1.78041667 L17.8033333,1.78041667 L17.8033333,8.28125 L14.45125,6.42583333 C14.1820833,6.27791667 13.8570833,6.27791667 13.58875,6.42583333 L9.11666667,8.90208333 L6.89916667,8.90208333 L6.89875,1.78041667 L6.89875,1.78041667 Z M1.78,10.6816667 L6.00833333,10.6816667 L8.45625,10.6816667 L8.45625,17.8029167 L1.78,17.8029167 L1.78,10.6816667 Z M17.80375,17.8029167 L10.2366667,17.8029167 L10.2366667,10.31625 L14.0195833,8.22208333 L17.8029167,10.31625 L17.8029167,17.8029167 L17.80375,17.8029167 L17.80375,17.8029167 Z" id="Shape"></path>
                            <path d="M4.22791667,11.7945833 L2.89291667,11.7945833 C2.77,11.7945833 2.67041667,11.8941667 2.67041667,12.0170833 L2.67041667,13.3525 C2.67041667,13.4754167 2.77,13.575 2.89291667,13.575 L4.22791667,13.575 C4.35125,13.575 4.45041667,13.4754167 4.45041667,13.3525 L4.45041667,12.0170833 C4.45083333,11.8941667 4.35125,11.7945833 4.22791667,11.7945833 Z" id="Shape"></path>
                            <path d="M7.34375,11.7945833 L6.00875,11.7945833 C5.88541667,11.7945833 5.78625,11.8941667 5.78625,12.0170833 L5.78625,13.3525 C5.78625,13.4754167 5.88541667,13.575 6.00875,13.575 L7.34375,13.575 C7.46666667,13.575 7.56625,13.4754167 7.56625,13.3525 L7.56625,12.0170833 C7.56625,11.8941667 7.46666667,11.7945833 7.34375,11.7945833 Z" id="Shape"></path>
                            <path d="M4.22791667,14.9104167 L2.89291667,14.9104167 C2.77,14.9104167 2.67041667,15.01 2.67041667,15.1329167 L2.67041667,16.4683333 C2.67041667,16.59125 2.77,16.6904167 2.89291667,16.6904167 L4.22791667,16.6904167 C4.35125,16.6904167 4.45041667,16.59125 4.45041667,16.4683333 L4.45041667,15.1329167 C4.45083333,15.01 4.35125,14.9104167 4.22791667,14.9104167 Z" id="Shape"></path>
                            <path d="M7.34375,14.9104167 L6.00875,14.9104167 C5.88541667,14.9104167 5.78625,15.01 5.78625,15.1329167 L5.78625,16.4683333 C5.78625,16.59125 5.88541667,16.6904167 6.00875,16.6904167 L7.34375,16.6904167 C7.46666667,16.6904167 7.56625,16.59125 7.56625,16.4683333 L7.56625,15.1329167 C7.56625,15.01 7.46666667,14.9104167 7.34375,14.9104167 Z" id="Shape"></path>
                            <path d="M13.13,11.7945833 L11.7945833,11.7945833 C11.6716667,11.7945833 11.5725,11.8941667 11.5725,12.0170833 L11.5725,13.3525 C11.5725,13.4754167 11.6716667,13.575 11.7945833,13.575 L13.13,13.575 C13.2529167,13.575 13.3525,13.4754167 13.3525,13.3525 L13.3525,12.0170833 C13.3525,11.8941667 13.2529167,11.7945833 13.13,11.7945833 Z" id="Shape"></path>
                            <path d="M14.91,13.5754167 L16.245,13.5754167 C16.3683333,13.5754167 16.4670833,13.4758333 16.4670833,13.3529167 L16.4670833,12.0175 C16.4670833,11.8945833 16.3683333,11.795 16.245,11.795 L14.91,11.795 C14.7866667,11.795 14.6875,11.8945833 14.6875,12.0175 L14.6875,13.3529167 C14.6875,13.4754167 14.7866667,13.5754167 14.91,13.5754167 Z" id="Shape"></path>
                            <path d="M13.13,14.9104167 L11.7945833,14.9104167 C11.6716667,14.9104167 11.5725,15.01 11.5725,15.1329167 L11.5725,16.4683333 C11.5725,16.59125 11.6716667,16.6904167 11.7945833,16.6904167 L13.13,16.6904167 C13.2529167,16.6904167 13.3525,16.59125 13.3525,16.4683333 L13.3525,15.1329167 C13.3525,15.01 13.2529167,14.9104167 13.13,14.9104167 Z" id="Shape"></path>
                            <path d="M14.91,16.6904167 L16.245,16.6904167 C16.3683333,16.6904167 16.4670833,16.59125 16.4670833,16.4683333 L16.4670833,15.1329167 C16.4670833,15.01 16.3683333,14.9104167 16.245,14.9104167 L14.91,14.9104167 C14.7866667,14.9104167 14.6875,15.01 14.6875,15.1329167 L14.6875,16.4683333 C14.6875,16.59125 14.7866667,16.6904167 14.91,16.6904167 Z" id="Shape"></path>
                            <path d="M8.67875,4.97958333 L10.0141667,4.97958333 C10.1370833,4.97958333 10.2366667,4.88 10.2366667,4.75708333 L10.2366667,3.42125 C10.2366667,3.29833333 10.1370833,3.19875 10.0141667,3.19875 L8.67875,3.19875 C8.55583333,3.19875 8.45666667,3.29833333 8.45666667,3.42125 L8.45666667,4.75666667 C8.45666667,4.87958333 8.55583333,4.97958333 8.67875,4.97958333 Z" id="Shape"></path>
                            <path d="M11.7945833,4.97958333 L13.13,4.97958333 C13.2529167,4.97958333 13.3525,4.88 13.3525,4.75708333 L13.3525,3.42125 C13.3525,3.29833333 13.2529167,3.19875 13.13,3.19875 L11.7945833,3.19875 C11.6716667,3.19875 11.5725,3.29833333 11.5725,3.42125 L11.5725,4.75666667 C11.57125,4.87958333 11.6716667,4.97958333 11.7945833,4.97958333 Z" id="Shape"></path>
                            <path d="M10.0141667,8.095 C10.1370833,8.095 10.2366667,7.99541667 10.2366667,7.8725 L10.2366667,6.53708333 C10.2366667,6.41416667 10.1370833,6.31458333 10.0141667,6.31458333 L8.67875,6.31458333 C8.55583333,6.31458333 8.45666667,6.41416667 8.45666667,6.53708333 L8.45666667,7.8725 C8.45666667,7.99541667 8.55583333,8.095 8.67875,8.095 L10.0141667,8.095 Z" id="Shape"></path>
                            <path d="M14.91,4.97958333 L16.245,4.97958333 C16.3683333,4.97958333 16.4670833,4.88 16.4670833,4.75708333 L16.4670833,3.42125 C16.4670833,3.29833333 16.3683333,3.19875 16.245,3.19875 L14.91,3.19875 C14.7866667,3.19875 14.6875,3.29833333 14.6875,3.42125 L14.6875,4.75666667 C14.6875,4.87958333 14.7866667,4.97958333 14.91,4.97958333 Z" id="Shape"></path>
                        </g>
                    </g>
                </g>
            </g>
        </g>
    </g>
</svg>