<?xml version="1.0" encoding="UTF-8"?>
<svg width="24px" height="24px" viewBox="0 0 24 24" version="1.1" xmlns="http://www.w3.org/2000/svg" xmlns:xlink="http://www.w3.org/1999/xlink">
    <!-- Generator: Sketch 42 (36781) - http://www.bohemiancoding.com/sketch -->
    <title>user_role</title>
    <desc>Created with Sketch.</desc>
    <defs></defs>
    <g id="Symbols" stroke="none" stroke-width="1" fill="none" fill-rule="evenodd">
        <g id="user_role" fill-rule="nonzero" fill="#666666">
            <g id="management" transform="translate(2.000000, 2.000000)">
                <g id="Group">
                    <path d="M7.4288172,12.4628956 L7.92200717,12.1954209 C8.12301075,12.0863973 8.19189964,11.8449158 8.07584229,11.6560269 L7.14136201,10.1355556 C7.06351254,10.0088889 6.92222222,9.93804714 6.77698925,9.93804714 C6.70566308,9.93804714 6.63340502,9.95508418 6.56724014,9.99104377 L6.07405018,10.2585185 C6.00630824,10.2952189 5.93448029,10.3119865 5.86451613,10.3119865 C5.64494624,10.3119865 5.44358423,10.1470707 5.44358423,9.91656566 L5.44358423,9.38161616 C5.44358423,9.16356902 5.25541219,8.98673401 5.02322581,8.98673401 L3.15419355,8.98673401 C2.92207885,8.98673401 2.73383513,9.16350168 2.73383513,9.38161616 L2.73383513,9.91656566 C2.73383513,10.1470707 2.53240143,10.3119865 2.31290323,10.3119865 C2.24293907,10.3119865 2.17111111,10.2952189 2.10336918,10.2585185 L1.61017921,9.99104377 C1.54401434,9.95515152 1.47168459,9.93811448 1.40043011,9.93804714 C1.25512545,9.93804714 1.11390681,10.0088889 1.03605735,10.1355556 L0.101577061,11.6560269 C-0.0144802867,11.8449158 0.0544086022,12.0863973 0.255412186,12.1954209 L0.748602151,12.4628956 C1.0288172,12.6148822 1.0288172,12.9948148 0.748602151,13.1468013 L0.255412186,13.4142761 C0.0543369176,13.5232997 -0.0144802867,13.7647811 0.101577061,13.95367 L1.03605735,15.4741414 C1.11390681,15.6008081 1.25519713,15.6716498 1.40043011,15.6716498 C1.47175627,15.6716498 1.54401434,15.6545455 1.61017921,15.6186532 L2.10336918,15.3511785 C2.17111111,15.3144781 2.24293907,15.2977104 2.31290323,15.2977104 C2.53247312,15.2977104 2.73383513,15.4626263 2.73383513,15.6931313 L2.73383513,16.2280808 C2.73383513,16.4461279 2.92200717,16.622963 3.15419355,16.622963 L5.02315412,16.622963 C5.25526882,16.622963 5.44351254,16.4461953 5.44351254,16.2280808 L5.44351254,15.6931313 C5.44351254,15.4626263 5.64494624,15.2977104 5.86444444,15.2977104 C5.9344086,15.2977104 6.00623656,15.3144781 6.07397849,15.3511785 L6.56716846,15.6186532 C6.63333333,15.6545455 6.70566308,15.6716498 6.77691756,15.6716498 C6.92222222,15.6716498 7.06344086,15.6008081 7.14129032,15.4741414 L8.07577061,13.95367 C8.19182796,13.7647811 8.12293907,13.5232997 7.92193548,13.4142761 L7.42874552,13.1468013 C7.14860215,12.9948148 7.14860215,12.6148148 7.4288172,12.4628956 L7.4288172,12.4628956 Z M4.08874552,13.9762963 C3.4,13.9762963 2.84172043,13.4517845 2.84172043,12.8048485 C2.84172043,12.1578451 3.40007168,11.6334007 4.08874552,11.6334007 C4.77741935,11.6334007 5.33577061,12.1579125 5.33577061,12.8048485 C5.33577061,13.4517845 4.77741935,13.9762963 4.08874552,13.9762963 Z" id="Shape"></path>
                    <path d="M7.10458781,1.59319865 C6.8790681,1.38148148 6.51369176,1.38148148 6.28817204,1.59319865 C6.06272401,1.80505051 6.06272401,2.14835017 6.28817204,2.36013468 L7.31971326,3.32909091 C3.5283871,3.50545455 0.459426523,6.30296296 0.127311828,9.82781145 L0.212616487,9.68895623 C0.456774194,9.29164983 0.911971326,9.04484848 1.40043011,9.04491582 C1.41075269,9.04491582 1.42100358,9.04579125 1.43132616,9.04606061 C2.08179211,6.50592593 4.43956989,4.5847138 7.29620072,4.41784512 L6.28817204,5.3647138 C6.06272401,5.57649832 6.06272401,5.91986532 6.28817204,6.13164983 C6.4009319,6.23750842 6.54860215,6.29043771 6.69634409,6.29043771 C6.84408602,6.29043771 6.99182796,6.23750842 7.10451613,6.13164983 L9.11197133,4.24585859 C9.22021505,4.14410774 9.28100358,4.00619529 9.28100358,3.86242424 C9.28100358,3.71858586 9.22021505,3.5806734 9.11197133,3.4789899 L7.10458781,1.59319865 L7.10458781,1.59319865 Z" id="Shape"></path>
                    <path d="M14.3991398,4.36747475 C15.6809319,4.36747475 16.7237276,3.38787879 16.7237276,2.18377104 C16.7237276,0.97959596 15.6809319,0 14.3991398,0 C13.1173477,0 12.074552,0.97959596 12.074552,2.1837037 C12.074552,3.38781145 13.1173477,4.36747475 14.3991398,4.36747475 Z" id="Shape"></path>
                    <path d="M18.9275269,10.2542761 L18.9275269,7.25225589 C18.9275269,6.42127946 18.3590681,5.6843771 17.5184229,5.42572391 L17.514552,5.42451178 L16.2850179,5.23326599 C16.1803584,5.2030303 16.0685305,5.25508418 16.0308961,5.35205387 L14.6357706,8.94794613 C14.5552688,9.15542088 14.2429391,9.15542088 14.162509,8.94794613 L12.7673835,5.35205387 C12.7369892,5.27373737 12.6582796,5.22464646 12.5739785,5.22464646 C12.5539785,5.22464646 11.2837276,5.42424242 11.2837276,5.42424242 C10.4362007,5.68956229 9.86989247,6.42760943 9.86989247,7.26222222 L9.86989247,10.2542761 C9.86989247,10.7026936 10.2568459,11.0661279 10.7341219,11.0661279 L18.0632258,11.0661279 C18.5406452,11.0661279 18.9275269,10.7026263 18.9275269,10.2542761 L18.9275269,10.2542761 Z" id="Shape"></path>
                    <path d="M19.9548387,10.9719192 C19.906595,11.5924579 19.3646595,11.9724579 18.7039427,12.0174411 C18.1977061,14.7396633 15.7500358,16.8416835 12.7556272,17.0165657 L13.7635842,16.069697 C13.9890323,15.8578451 13.9890323,15.5145455 13.7635842,15.3027609 C13.5380645,15.0910438 13.1726882,15.0910438 12.9471685,15.3027609 L10.9397849,17.1885522 C10.7143369,17.400404 10.7143369,17.7437037 10.9397849,17.9554882 L12.9471685,19.8412121 C13.0599283,19.9470707 13.2075986,20 13.3553405,20 C13.5030824,20 13.6508244,19.9470707 13.7635125,19.8412121 C13.9889606,19.6294276 13.9889606,19.2860606 13.7635125,19.0742761 L12.732043,18.1053199 C16.7483871,17.9185185 19.9548387,14.7903704 19.9548387,10.9719192 L19.9548387,10.9719192 Z" id="Shape"></path>
                    <path d="M14.9058065,5.19225589 C14.8522581,5.13744108 14.7739068,5.10983165 14.6946237,5.10983165 L14.1035842,5.10983165 C14.0243728,5.10983165 13.9460215,5.13744108 13.8924014,5.19225589 C13.8094624,5.27717172 13.7974194,5.39979798 13.8562724,5.4956229 L14.1721864,5.9430303 L14.0243011,7.11508418 L14.3155556,7.84289562 C14.3439427,7.91609428 14.4541219,7.91609428 14.4825806,7.84289562 L14.7738351,7.11508418 L14.6259498,5.9430303 L14.9418638,5.4956229 C15.0007885,5.39979798 14.9887455,5.27717172 14.9058065,5.19225589 L14.9058065,5.19225589 Z" id="Shape"></path>
                </g>
            </g>
        </g>
    </g>
</svg>