<?xml version="1.0" encoding="UTF-8"?>
<svg width="32px" height="32px" viewBox="0 0 32 32" version="1.1" xmlns="http://www.w3.org/2000/svg" xmlns:xlink="http://www.w3.org/1999/xlink">
    <!-- Generator: Sketch 42 (36781) - http://www.bohemiancoding.com/sketch -->
    <title>Material/Icons white/users</title>
    <desc>Created with Sketch.</desc>
    <defs></defs>
    <g id="Symbols" stroke="none" stroke-width="1" fill="none" fill-rule="evenodd">
        <g id="Material/Icons-white/users" fill-rule="nonzero" fill="#666666">
            <g id="people-1" transform="translate(6.000000, 7.000000)">
                <g id="Capa_1">
                    <path d="M12.0691377,2.8814849 C12.9938849,3.45982337 13.6423312,4.43849256 13.7603894,5.57450566 C14.1375265,5.75027275 14.5560963,5.85135128 14.9998752,5.85135128 C16.6199925,5.85135128 17.9331087,4.54156278 17.9331087,2.92580012 C17.9331087,1.3097885 16.6199925,0 14.9998752,0 C13.3952327,0.000497923778 12.0935979,1.286884 12.0691377,2.8814849 Z M10.1475103,8.87200588 C11.7676276,8.87200588 13.0807438,7.56196842 13.0807438,5.94620576 C13.0807438,4.3304431 11.767378,3.0206546 10.1475103,3.0206546 C8.52764258,3.0206546 7.21377761,4.33069206 7.21377761,5.94645472 C7.21377761,7.56221738 8.52764258,8.87200588 10.1475103,8.87200588 Z M11.3917384,9.07142435 L8.90278298,9.07142435 C6.83189817,9.07142435 5.1471359,10.7521661 5.1471359,12.8178029 L5.1471359,15.8538931 L5.15487333,15.9014448 L5.36453263,15.9669218 C7.34082117,16.5828535 9.05778111,16.7882471 10.4709846,16.7882471 C13.2312492,16.7882471 14.8311494,16.0032702 14.9297392,15.9532289 L15.1256708,15.854391 L15.1466367,15.854391 L15.1466367,12.8178029 C15.1473855,10.7521661 13.4626232,9.07142435 11.3917384,9.07142435 Z M16.2446025,6.05101871 L13.7748658,6.05101871 C13.7481592,7.03665883 13.3263447,7.92420797 12.6591788,8.56254625 C14.4999376,9.10851967 15.846749,10.81117 15.846749,12.8222842 L15.846749,13.757883 C18.2852864,13.6687546 19.6905029,12.9793791 19.7831025,12.9330722 L19.9790341,12.8339854 L20,12.8339854 L20,9.7968993 C20,7.73151146 18.3152377,6.05101871 16.2446025,6.05101871 Z M5.00062399,5.8518492 C5.57444153,5.8518492 6.10832397,5.68479577 6.56058904,5.40023234 C6.70435542,4.46488252 7.20703856,3.64754064 7.92512168,3.09086185 C7.92811681,3.03609024 7.93335829,2.98181654 7.93335829,2.92654701 C7.93335829,1.31053538 6.61999251,0.000746885667 5.00062399,0.000746885667 C3.38025708,0.000746885667 2.06739049,1.31053538 2.06739049,2.92654701 C2.06739049,4.54181174 3.38025708,5.8518492 5.00062399,5.8518492 Z M7.63484338,8.56254625 C6.97092225,7.92744447 6.55060527,7.04462561 6.51990515,6.06496058 C6.42830401,6.05823861 6.33770124,6.05101871 6.24435293,6.05101871 L3.75564707,6.05101871 C1.68476226,6.05101871 0,7.73151146 0,9.7968993 L0,12.8334875 L0.00773742668,12.8802923 L0.21739673,12.9462672 C1.80282042,13.4399586 3.21777112,13.6675098 4.44677399,13.7392108 L4.44677399,12.8222842 C4.44727318,10.81117 5.79358542,9.1090176 7.63484338,8.56254625 Z" id="Shape"></path>
                </g>
            </g>
        </g>
    </g>
</svg>