<?xml version="1.0" encoding="UTF-8"?>
<svg width="32px" height="32px" viewBox="0 0 32 32" version="1.1" xmlns="http://www.w3.org/2000/svg" xmlns:xlink="http://www.w3.org/1999/xlink">
    <!-- Generator: Sketch 42 (36781) - http://www.bohemiancoding.com/sketch -->
    <title>Material/Icons white/wallet</title>
    <desc>Created with Sketch.</desc>
    <defs></defs>
    <g id="Symbols" stroke="none" stroke-width="1" fill="none" fill-rule="evenodd">
        <g id="Material/Icons-white/wallet" fill-rule="nonzero" fill="#666666">
            <g id="money" transform="translate(6.000000, 6.000000)">
                <g id="Layer_1">
                    <g id="Group">
                        <path d="M0.68427822,9.03411991 C0.738771366,9.1389475 0.847757658,9.20883257 0.968421053,9.21271507 C1.08908445,9.21659757 1.20196311,9.15447752 1.26424099,9.05353242 C2.63046201,6.82497538 6.12970046,5.326329 9.96368252,5.326329 C13.7587409,5.326329 17.2463023,6.85991791 18.6475546,9.14283001 C18.7098325,9.2398926 18.8149264,9.30201265 18.9316974,9.30201265 L18.9472669,9.30201265 C19.0679303,9.29813015 19.1769166,9.22824508 19.2314097,9.11953498 L19.8970046,7.79560127 C19.9476053,7.69077367 19.943713,7.57041606 19.8814351,7.47335347 C18.5268912,5.26420894 14.6890168,3.56367238 10.7460484,3.35789969 L11.5128448,2.59304648 C11.65297,2.64351903 11.80088,2.67457906 11.9565747,2.67457906 C12.6883398,2.67457906 13.2838721,2.08055601 13.2838721,1.35064534 C13.2838721,0.620734671 12.6883398,0.0267116246 11.9565747,0.0267116246 C11.2248096,0.0267116246 10.6292774,0.620734671 10.6292774,1.35064534 C10.6292774,1.68065815 10.7538331,1.97961092 10.9562362,2.21256113 L9.96757489,3.19871704 L8.97502115,2.20867863 C9.17742427,1.97572842 9.30198003,1.67677564 9.30198003,1.34676284 C9.30198003,0.616852167 8.70644779,0.022829121 7.97468269,0.022829121 C7.24291758,0.022829121 6.64738534,0.616852167 6.64738534,1.34676284 C6.64738534,2.07667351 7.24291758,2.67069656 7.97468269,2.67069656 C8.13037739,2.67069656 8.27828736,2.63963653 8.41841259,2.58916398 L9.185209,3.35401718 C5.24224065,3.55590737 1.40825859,5.25644393 0.049822305,7.46947097 C-0.0124555762,7.57041606 -0.0163479438,7.69077367 0.0381452022,7.79560127 L0.68427822,9.03411991 Z" id="Shape"></path>
                        <path d="M9.96757489,5.9863546 C4.47155187,5.9863546 0.00311389406,9.55437538 0.00311389406,13.9377219 C0.00311389406,16.8612471 2.38913522,19.2373393 5.31619563,19.2373393 L14.6150618,19.2373393 C17.5460146,19.2373393 19.9281435,16.8573646 19.9281435,13.9377219 C19.9320359,9.55437538 15.4635979,5.9863546 9.96757489,5.9863546 Z" id="Shape"></path>
                    </g>
                </g>
            </g>
        </g>
    </g>
</svg>