<?xml version="1.0" encoding="UTF-8"?>
<svg width="182px" height="64px" viewBox="0 0 182 64" version="1.1" xmlns="http://www.w3.org/2000/svg" xmlns:xlink="http://www.w3.org/1999/xlink">
    <!-- Generator: sketchtool 58 (101010) - https://sketch.com -->
    <title>F48413D0-7A5C-423C-859A-A700BB682F92</title>
    <desc>Created with sketchtool.</desc>
    <g id="Page-1" stroke="none" stroke-width="1" fill="none" fill-rule="evenodd">
        <g id="Иконки" transform="translate(-1095.000000, -402.000000)" fill-rule="nonzero">
            <g id="Logo-/-зетта" transform="translate(1095.000000, 402.000000)">
                <path d="M85.6429729,43.3898305 C85.1587396,43.3898305 84.790954,43.1227188 84.6592803,42.6792026 C84.5468358,42.3039145 84.6273984,41.8886857 84.9018258,41.4060564 C85.7706435,39.7659428 86.7423982,38.087551 87.7787745,36.4382892 C88.8167235,34.7848595 89.8610346,33.1563993 90.9149246,31.5537362 C91.9672419,29.9568961 92.9940393,28.3816928 93.9961033,26.8364394 C94.970217,25.3294716 95.8805669,23.83664 96.7007039,22.3995704 C96.6823325,22.3954101 96.6687505,22.3879244 96.6512369,22.3837566 C96.4621615,22.3321699 96.0919454,22.2639343 95.4194231,22.2248286 C94.8505527,22.1932011 94.0918205,22.1765597 93.1663875,22.1765597 C92.0063437,22.1765597 91.0641119,22.2414625 90.369215,22.370448 C89.724643,22.4886076 89.2020228,22.7016275 88.8198688,23.0003594 C88.4353559,23.2999262 88.1186099,23.7035016 87.8808538,24.2011097 C87.6191506,24.7478142 87.3590914,25.4334876 87.1101838,26.2439711 C86.9745785,26.6026178 86.7416119,26.8264561 86.4256522,26.9271393 C86.2549482,26.9795611 86.0762379,27.0053582 85.8958836,27.0053582 C85.8368377,27.0053582 85.7762192,27.0036955 85.716387,26.9987076 C85.4714825,26.9745731 85.2520979,26.9129956 85.0653814,26.8156377 C84.7223293,26.6375632 84.5587737,26.2755912 84.6513456,25.8953152 C84.7693658,25.0407231 84.8738755,24.0912707 84.9520791,23.1268471 C85.0310691,22.1441121 85.0725298,21.2495792 85.0725298,20.4723784 C85.0725298,20.2909786 85.1340061,20.1079087 85.2600326,19.9156905 C85.5057949,19.5254237 86.0099722,19.5254237 86.1775309,19.5254237 L102.294191,19.5254237 C103.271522,19.5254237 103.45738,20.098753 103.49012,20.344228 C103.537943,20.7053724 103.468532,21.057361 103.280243,21.3960336 C101.441314,24.6504563 99.4691398,27.8740939 97.4083249,30.9829047 C95.3691697,34.0517672 93.5070807,37.1339458 91.8747415,40.1320751 C91.7781664,40.2935082 91.7207647,40.4116679 91.685666,40.4965448 C91.8515806,40.554797 92.1363732,40.6163745 92.6996679,40.664636 C93.2908413,40.7128974 94.1357118,40.7370319 95.2048278,40.7370319 C96.3448561,40.7370319 97.29345,40.6904331 98.028235,40.5889073 C98.7048319,40.4990425 99.2569035,40.3109847 99.6749425,40.0214011 C100.080257,39.738483 100.421665,39.3165962 100.684941,38.7640686 C100.976954,38.1574492 101.267394,37.3244939 101.547397,36.283514 C101.588071,36.1187556 101.729324,35.7942267 102.185678,35.6169872 C102.388336,35.5437637 102.596569,35.5038155 102.807947,35.5038155 C102.862204,35.5038155 102.913243,35.5079759 102.9675,35.5104736 C103.251577,35.5362707 103.506061,35.6244729 103.723873,35.7775853 C104.045337,36.0022586 104.189806,36.3517496 104.117178,36.737856 C103.992725,37.5158845 103.879422,38.3887806 103.782919,39.3182663 C103.68956,40.2377537 103.640094,41.2354675 103.640094,42.2897634 C103.640094,43.101917 103.150999,43.3898305 102.730601,43.3898305 L85.6429729,43.3898305 Z" id="Fill-1" fill="#19194E"></path>
                <path d="M120.064103,28.2033898 C120.261892,28.2033898 120.318005,28.154429 120.318772,28.154429 C120.378793,27.8108497 120.40678,27.4138593 120.40678,26.9483365 C120.40678,26.2584982 120.312561,25.5837972 120.125589,24.9446983 C119.940222,24.3127214 119.67306,23.7439414 119.334221,23.2579458 C118.999291,22.785293 118.591917,22.3989896 118.119916,22.1132637 C117.658733,21.8373236 117.115823,21.6949153 116.51059,21.6949153 C115.738694,21.6949153 115.071974,21.8488959 114.528297,22.149759 C113.977571,22.4577362 113.5055,22.8636271 113.124647,23.3603018 C112.745329,23.8587629 112.452414,24.4533592 112.253787,25.134289 C112.04504,25.8463786 111.892405,26.610986 111.802025,27.4022871 C111.752961,27.7298518 111.730349,27.9959901 111.728814,28.2033898 L120.064103,28.2033898 Z M117.346028,43.3898305 C115.280869,43.3898305 113.464649,43.0746713 111.949298,42.4517699 C110.421685,41.8198073 109.138874,40.9245386 108.137135,39.7857009 C107.137981,38.6517956 106.391829,37.3113551 105.920249,35.7956475 C105.45443,34.3021543 105.220339,32.6605408 105.220339,30.9144322 C105.220339,29.22839 105.508872,27.6015959 106.080175,26.0834111 C106.65569,24.5594754 107.478444,23.2215048 108.524652,22.1081697 C109.571673,20.997312 110.824789,20.1003918 112.254378,19.4404566 C113.690541,18.7788773 115.302291,18.440678 117.046784,18.440678 C118.512643,18.440678 119.873755,18.6998848 121.091487,19.2092297 C122.311657,19.7202262 123.361116,20.4361212 124.210315,21.3338598 C125.058628,22.2291359 125.728916,23.3161351 126.202122,24.5578313 C126.674515,25.7954134 126.915254,27.144082 126.915254,28.5692806 C126.915254,30.0397337 125.925925,30.1557526 125.623357,30.1557526 L111.565179,30.1557526 C111.56348,30.1746787 111.56348,30.1960747 111.56348,30.2174706 C111.56348,31.8845868 111.749851,33.3089596 112.115873,34.4461532 C112.47532,35.5668906 112.977408,36.4851994 113.60729,37.1739402 C114.228086,37.8544455 114.982438,38.35063 115.843973,38.6501515 C116.736017,38.962015 117.713748,39.118356 118.750871,39.118356 C119.855657,39.118356 120.93976,39.0294912 121.970308,38.8525727 C122.940653,38.688822 123.783204,38.314422 124.476613,37.7441774 C124.715654,37.5549241 124.968729,37.4627637 125.238352,37.4627637 C125.305129,37.4627637 125.373532,37.4652262 125.441196,37.4775757 C125.743764,37.5351723 126.006738,37.6791711 126.202934,37.9046324 C126.38347,38.1054169 126.501366,38.3432203 126.553296,38.6032455 C126.616823,38.9241629 126.546721,39.2253285 126.355474,39.4804139 C125.228453,40.9541626 123.934931,41.9868536 122.513615,42.5513326 C121.112909,43.1100535 119.374991,43.3898305 117.346028,43.3898305 Z" id="Fill-3" fill="#19194E"></path>
                <path d="M158.256654,20.5677052 C158.132342,20.0750947 157.774701,19.778403 157.296754,19.778403 C157.296754,19.778403 150.17037,19.778403 150.127331,19.7767921 C150.122452,19.6671409 150.117572,19.5083168 150.117572,19.2777307 L150.117572,15.0691811 C150.117572,14.8587497 150.03062,14.4806232 149.452685,14.2589081 C149.175588,14.154906 148.87242,14.1016949 148.546457,14.1016949 C148.210008,14.1016949 147.888124,14.1669987 147.598792,14.2919645 C147.199714,14.4588577 146.94614,14.7563585 146.884312,15.134485 C146.724243,16.1769478 146.524267,17.0226901 146.291011,17.6531609 C146.073994,18.2425207 145.818817,18.7512548 145.435177,19.0423119 C144.513511,19.7517975 142.83833,19.7171301 142.094646,19.778403 C139.2467,19.778403 135.807855,19.7775939 135.783459,19.7767921 C135.77858,19.6671409 135.773774,19.5083168 135.773774,19.2777307 L135.773774,15.0691811 C135.773774,14.8587497 135.687549,14.4806232 135.109687,14.2589081 C134.832517,14.154906 134.529422,14.1016949 134.201857,14.1016949 C133.866137,14.1016949 133.545927,14.1669987 133.25412,14.2919645 C132.856717,14.4588577 132.603142,14.7563585 132.538911,15.134485 C132.379571,16.1785587 132.180469,17.024301 131.948013,17.6531609 C131.729394,18.2425207 131.441664,18.7093346 131.090505,19.0423119 C130.737816,19.378511 130.30218,19.6252207 129.794156,19.778403 C129.24069,19.9444871 128.56284,20.0597801 127.824837,20.1226639 C127.648456,20.1226639 127.218501,20.1847459 127.022603,20.7741057 C126.934048,21.0393519 126.900695,21.3215381 126.921013,21.615008 C126.942132,21.8907432 126.993327,22.1479276 127.072196,22.3777046 C127.260739,22.9501316 127.62406,23.0339863 127.824837,23.0339863 C128.506765,23.0339863 129.034233,23.0420482 129.405638,23.0557519 C129.820155,23.0751046 129.952622,23.1412103 129.973013,23.1549212 C129.999012,23.1702358 130.011173,23.2307069 130.017655,23.2677942 C130.046129,23.4709657 130.060767,23.7563737 130.060767,24.1215984 L130.060767,36.698067 C130.060767,38.9458549 130.574398,40.6373394 131.585493,41.7265624 C132.607147,42.8311072 134.338403,43.3898305 136.725517,43.3898305 C138.140569,43.3898305 139.399558,43.1608554 140.469932,42.7117832 C141.575335,42.2457783 142.480762,41.4524453 143.148853,40.3688642 C143.313873,40.1286053 143.341474,39.8335245 143.233402,39.5497274 C143.163491,39.3626796 143.056221,39.1885337 142.914795,39.0208387 C142.761136,38.8450746 142.570991,38.712047 142.350697,38.6281995 C142.23527,38.5838593 142.119042,38.5620866 142.00449,38.5620866 C141.833789,38.5620866 141.667968,38.6112667 141.507026,38.719307 C141.18922,38.9482749 140.711345,39.1716009 140.08957,39.3812233 C139.472674,39.5908457 138.805383,39.6956569 138.109618,39.6956569 C137.227787,39.6956569 136.667767,39.3739705 136.341877,38.6797996 C135.963918,37.8703356 135.773774,36.5819721 135.773774,34.8372765 L135.773774,23.9248706 C135.773774,23.4677366 135.780255,23.1960395 135.787537,23.0339863 L142.167835,23.0339863 C142.849763,23.0339863 143.378833,23.0420482 143.748636,23.0557519 C144.164827,23.0751046 144.294018,23.1412103 144.316011,23.1549212 C144.342009,23.1702358 144.354972,23.2307069 144.360725,23.2677942 C144.389127,23.4709657 144.403764,23.7563737 144.403764,24.1215984 L144.403764,36.698067 C144.403764,38.9458549 144.91907,40.6373394 145.92849,41.7265624 C146.952621,42.8311072 148.681401,43.3898305 151.068514,43.3898305 C152.482693,43.3898305 153.743357,43.1608554 154.813731,42.7117832 C155.917532,42.2457783 156.822958,41.4524453 157.493453,40.3688642 C157.657672,40.1286053 157.686948,39.8335245 157.575599,39.5497274 C157.504887,39.3626796 157.399218,39.1885337 157.257793,39.0208387 C157.103332,38.8450746 156.915591,38.712047 156.694496,38.6281995 C156.579069,38.5838593 156.46204,38.5620866 156.348288,38.5620866 C156.176787,38.5620866 156.010164,38.6112667 155.850023,38.719307 C155.533091,38.9482749 155.055144,39.1716009 154.432568,39.3812233 C153.815672,39.5908457 153.149983,39.6956569 152.452689,39.6956569 C151.571586,39.6956569 151.010764,39.3739705 150.685676,38.6797996 C150.308591,37.8703356 150.117572,36.5819721 150.117572,34.8372765 L150.117572,23.9248706 C150.117572,23.4677366 150.124054,23.1960395 150.130535,23.0339863 L157.19764,23.0339863 C157.69991,23.0339863 158.07299,22.7421274 158.228252,22.238226 C158.324162,21.9084779 158.372881,21.6279098 158.372881,21.3820091 C158.372881,21.1441631 158.335522,20.8781078 158.256654,20.5677052" id="Fill-5" fill="#19194E"></path>
                <path d="M171.385527,31.4576271 C168.793903,31.6915834 166.853969,32.2245031 165.616441,33.0401182 C164.392668,33.8468021 163.79661,34.841149 163.79661,36.0783832 C163.79661,36.9468062 164.022984,37.6795663 164.470661,38.2579715 C164.884913,38.7925144 165.589009,39.0508475 166.627595,39.0508475 C167.360814,39.0508475 168.148975,38.9127462 168.971406,38.6381595 C169.789535,38.3652032 170.530515,37.9695768 171.170295,37.4512875 C171.251747,37.3716789 171.389831,37.210016 171.389831,37.0670379 L171.389831,31.6915834 C171.389831,31.600598 171.38814,31.5218046 171.385527,31.4576271 M176.039311,43.3898305 C174.985948,43.3898305 174.068701,43.0935875 173.311524,42.5060489 C172.710473,42.0411173 172.227825,41.4963646 171.874839,40.8857778 C171.052042,41.5761782 170.130779,42.1456233 169.112628,42.5957424 C167.93283,43.1248568 166.444868,43.3898305 164.692848,43.3898305 C162.706245,43.3898305 161.139825,42.8286212 160.038484,41.7111351 C158.933126,40.5977706 158.372881,39.0137086 158.372881,37.0091526 C158.372881,34.4154063 159.559063,32.4042661 161.900229,31.0259279 C164.080537,29.7381089 167.243711,29.0674535 171.307351,29.0328959 C171.31775,28.873254 171.328149,28.6124018 171.328149,28.168041 L171.328149,26.8226162 C171.328149,26.0309981 171.264895,25.2714751 171.140038,24.5670805 C171.021563,23.9013651 170.821476,23.3113492 170.54372,22.8184441 C170.282817,22.3510424 169.923449,21.9930868 169.451199,21.7182405 C168.981388,21.4516225 168.378688,21.3150215 167.663106,21.3150215 C166.56657,21.3150215 165.678153,21.5314435 165.02102,21.9552334 C164.423124,22.3428141 164.143719,22.7945774 164.143719,23.3730692 C164.143719,23.6347472 164.226981,23.8890226 164.396661,24.1507006 C164.680799,24.5909472 164.824877,25.0501131 164.824877,25.5232731 C164.824877,26.1420883 164.53916,26.7271643 163.974899,27.264507 C163.424982,27.7911587 162.747051,28.0569508 161.96506,28.0569508 C160.922956,28.0569508 160.153731,27.7458954 159.678326,27.1279059 C159.233257,26.5535283 159.00599,25.8417312 159.00599,25.0237838 C159.00599,24.0914505 159.262087,23.1977964 159.766322,22.3642107 C160.25858,21.5553102 160.932566,20.8533856 161.769778,20.2814779 C162.590997,19.7202686 163.557082,19.2701494 164.639993,18.9393488 C165.726131,18.6085482 166.872295,18.440678 168.052093,18.440678 C170.759872,18.440678 172.934585,19.1047491 174.516926,20.408199 C176.132183,21.7421071 176.953331,23.9515611 176.953331,26.970734 L176.953331,36.9597824 C176.953331,38.3060257 177.098269,38.9108468 177.219899,39.1823973 C177.302372,39.3634359 177.463231,39.5675154 177.986686,39.5675154 C178.282801,39.5675154 178.518172,39.5362461 178.686203,39.4753519 C178.818304,39.4284443 179.074401,39.3066558 179.563504,38.9997219 C179.680329,38.9215451 179.833227,38.8688792 179.99007,38.8688792 C180.134936,38.8688792 180.276647,38.9108468 180.412692,38.9923119 C180.588755,39.0951738 180.74488,39.2400032 180.871315,39.4144576 C180.996173,39.6004288 181.080224,39.7979241 181.128274,40.0118688 C181.199488,40.3459651 181.112281,40.657839 180.888958,40.8857778 C179.557838,42.535674 177.913822,43.3898305 176.039311,43.3898305" id="Fill-7" fill="#19194E"></path>
                <path d="M178.438605,15.1864407 C177.541253,15.1864407 176.813559,14.4604657 176.813559,13.5600217 C176.813559,12.6652126 177.541253,11.9322034 178.438605,11.9322034 C179.337339,11.9322034 180.067797,12.6652126 180.067797,13.5600217 C180.067797,14.4604657 179.337339,15.1864407 178.438605,15.1864407 M178.980121,11.9322034 C177.785695,11.9322034 176.813559,12.9070988 176.813559,14.1016916 C176.813559,15.2962911 177.785695,16.2711864 178.980121,16.2711864 C180.178209,16.2711864 181.152542,15.2962911 181.152542,14.1016916 C181.152542,12.9070988 180.178209,11.9322034 178.980121,11.9322034" id="Fill-9" fill="#19194E"></path>
                <path d="M179.261915,16.2711864 C178.4325,16.2711864 177.898305,15.6414823 177.898305,14.6740054 C177.898305,13.6971809 178.4886,13.0169492 179.333461,13.0169492 C179.699427,13.0169492 179.910788,13.1170653 179.98401,13.1591675 L180.067797,13.209695 L179.923028,13.7692206 L179.802666,13.7018505 C179.731921,13.6606874 179.574985,13.5905088 179.343224,13.5905088 C178.797591,13.5905088 178.47075,13.9900346 178.47075,14.6552934 C178.47075,15.3065181 178.791908,15.6966878 179.32858,15.6966878 C179.503439,15.6966878 179.69287,15.6536468 179.811628,15.5890852 L179.935195,15.518915 L180.061239,16.0728236 L179.980731,16.1205427 C179.815708,16.2113028 179.548174,16.2711864 179.261915,16.2711864" id="Fill-12" fill="#19194E"></path>
                <path d="M43.3898305,0.649178405 C43.9556392,1.09538571 44.5009488,1.57364046 45.019191,2.09133936 L61.9163556,18.9831169 C62.4354207,19.502454 62.9126722,20.0464492 63.3562952,20.6101695 L64,20.6101695 L64,2.4455113 C64,1.09949417 62.89955,0 61.5547285,0 L43.3898305,0 L43.3898305,0.649178405 Z" id="Fill-14" fill="#19194E"></path>
                <path d="M0.653926814,20.6101695 C1.09971177,20.045632 1.57745483,19.5 2.09453226,18.9839341 L18.9843633,2.08805259 C19.500625,1.57117539 20.0455585,1.0929199 20.6101695,0.64671333 L20.6101695,0 L2.44444085,0 C1.09971177,0 0,1.09949417 0,2.4455113 L0,20.6101695 L0.653926814,20.6101695 Z" id="Fill-17" fill="#19194E"></path>
                <path d="M63.357111,43.3898305 C62.9134882,43.9527712 62.4362368,44.4976273 61.9179947,45.0170133 L45.017552,61.9126036 C44.5009484,62.4295229 43.9548234,62.9061717 43.3898305,63.3540589 L43.3898305,64 L61.554722,64 C62.899543,64 64,62.8996035 64,61.5542997 L64,43.3898305 L63.357111,43.3898305 Z" id="Fill-20" fill="#19194E"></path>
                <path d="M20.6101695,63.3507677 C20.0447435,62.9045226 19.5006249,62.426232 18.9843632,61.9093129 L2.09781029,45.0170127 C1.58073283,44.4992763 1.10298974,43.954413 0.65638528,43.3898305 L0,43.3898305 L0,61.5534685 C0,62.8995892 1.09971139,64 2.44444127,64 L20.6101695,64 L20.6101695,63.3507677 Z" id="Fill-22" fill="#19194E"></path>
                <path d="M43.9520863,46.6440678 L20.2435249,46.6440678 C19.8484113,46.6440678 19.5254237,46.3204856 19.5254237,45.9224859 L19.5254237,43.5393081 C19.5254237,43.1404966 19.7225856,42.5588561 19.9622159,42.2441747 L34.0365171,23.7992356 C34.2769517,23.4837497 34.1503218,23.2265032 33.7560124,23.2265032 L23.4853996,23.2265032 C23.090286,23.2265032 22.6639135,22.9182872 22.5372835,22.5421264 L21.016927,18.0403017 C20.8911013,17.6641409 21.1098923,17.3559322 21.5042089,17.3559322 L43.6290988,17.3559322 C44.0226111,17.3559322 44.3463957,17.680319 44.3463957,18.0783259 L44.3463957,20.7325001 C44.3463957,21.1313115 44.1508424,21.7153802 43.9120091,22.0300616 L30.1438632,40.2015689 C29.9050299,40.5170621 30.0316599,40.775925 30.4259764,40.775925 L41.9668886,40.775925 C42.3620022,40.775925 42.7883747,41.0825173 42.915809,41.4603017 L44.438564,45.9613146 C44.5651939,46.3382872 44.3472,46.6440678 43.9520863,46.6440678 M58.0022816,22.7618264 L41.240734,5.99946634 C38.6866818,3.44560647 35.343647,2.16949153 31.9973545,2.16949153 C28.6543197,2.17030688 25.3112848,3.44479111 22.7596741,5.99620491 L5.99568365,22.7618264 C0.893280904,27.8646511 0.894094316,36.1377884 5.99812367,41.2406204 L22.7596741,58.0021607 C25.3120938,60.5543877 28.6567611,61.8305085 32.0006122,61.8305085 C35.3444633,61.8305085 38.688307,60.5552133 41.2399178,58.0046083 L58.0039141,41.2406204 C63.106312,36.1377884 63.106312,27.8646511 58.0022816,22.7618264" id="Fill-24" fill="#0F9DAF"></path>
            </g>
        </g>
    </g>
</svg>