<?xml version="1.0" encoding="UTF-8"?>
<svg width="222px" height="24px" viewBox="0 0 222 24" version="1.1" xmlns="http://www.w3.org/2000/svg" xmlns:xlink="http://www.w3.org/1999/xlink">
    <!-- Generator: sketchtool 58 (101010) - https://sketch.com -->
    <title>11DB6E45-36A0-482F-B278-1F76E7C5AFA5</title>
    <desc>Created with sketchtool.</desc>
    <g id="Page-1" stroke="none" stroke-width="1" fill="none" fill-rule="evenodd">
        <g id="Иконки" transform="translate(-801.000000, -317.000000)" fill="#0047BB" fill-rule="nonzero">
            <g id="Logo-/-ингос" transform="translate(801.000000, 317.000000)">
                <path d="M20.631159,23.414251 L15.6700032,23.414251 L15.6700032,8.28876512 L4.77965275,23.414251 L0,23.414251 L0,0.363011622 L5.02166043,0.363011622 L5.02166043,15.4884956 L15.9725128,0.363011622 L20.631159,0.363011622 L20.631159,23.414251 Z M24.2612744,0.423513544 L29.3434323,0.423513544 L29.3434323,9.49880002 L39.507757,9.49880002 L39.507757,0.423513544 L44.5899238,0.423513544 L44.5899238,23.414251 L39.507757,23.414251 L39.507757,14.1574551 L29.3434323,14.1574551 L29.3434323,23.414251 L24.2612744,23.414251 L24.2612744,0.423513544 Z M53.2417005,23.414251 L48.2200391,23.414251 L48.2200391,0.363011622 L63.8295369,0.363011622 L63.8295369,4.96115851 L53.2417005,4.96115851 L53.2417005,23.414251 Z M88.2118133,11.9188769 C88.2118133,4.90065659 83.1296554,0.121003845 76.1114288,0 L75.9904268,0 C68.9722002,0.0605019311 63.8900423,4.90065659 63.8900423,11.8583803 C63.8900423,18.8766068 68.9722002,23.6562552 75.9904268,23.7167606 L76.1114288,23.7167606 C83.1296554,23.7167606 88.2118133,18.8766068 88.2118133,11.9188769 Z M76.0509322,19.118611 C71.9973052,19.118611 69.1537078,16.335519 69.1537078,11.9188769 C69.1537078,7.44173732 71.9973052,4.71915082 76.0509322,4.71915082 C80.1045593,4.71915082 82.9481478,7.50223925 82.9481478,11.9188769 C82.9481478,16.335519 80.1045593,19.118611 76.0509322,19.118611 M141.150986,5.08216236 L133.709284,5.08216236 L133.709284,0.423513544 L153.614439,0.423513544 L153.614439,5.08216236 L146.233144,5.08216236 L146.233144,23.414251 L141.150986,23.414251 L141.150986,5.08216236 Z M156.700032,0.423513544 L167.045838,0.423513544 C172.551472,0.423513544 175.879139,3.69061814 175.879139,8.40976808 C175.879139,13.7339346 171.765016,16.5170266 166.561776,16.5170266 L161.78219,16.5170266 L161.78219,23.414251 L156.700032,23.414251 L156.700032,0.423513544 Z M166.682858,11.9793824 C169.223893,11.9793824 170.675988,10.4668343 170.675988,8.40976808 C170.675988,6.17119696 169.102899,4.90065659 166.561776,4.90065659 L161.721693,4.90065659 L161.721693,11.9188769 L166.682858,11.9188769 L166.682858,11.9793824 Z M221.195085,23.414251 L213.027334,11.6163673 L220.832016,0.363011622 L215.023899,0.363011622 L210.123231,7.44173732 L205.222563,0.363011622 L199.232867,0.363011622 L207.098135,11.7373782 L198.930384,23.414251 L204.738501,23.414251 L210.002238,15.8515107 L215.205389,23.414251 L221.195085,23.414251 Z M193.243172,23.414251 L198.385826,23.414251 L188.523993,0.242007778 L183.8654,0.242007778 L174.003567,23.414251 L179.146222,23.414251 L181.324277,18.0900801 L191.065117,18.0900801 L193.243172,23.414251 L193.243172,23.414251 Z M183.139352,13.6129325 L186.224945,6.41320465 L189.310538,13.6129325 L183.139352,13.6129325 L183.139352,13.6129325 Z M102.550785,19.118611 C98.4971578,19.118611 95.6535515,16.335519 95.6535515,11.9188769 C95.6535515,7.44173732 98.4971578,4.71915082 102.550785,4.71915082 C104.668343,4.71915082 106.422922,5.32417005 107.935426,6.59471041 L111.081515,3.44861046 C108.963957,1.39154421 106.12035,0.0605019311 102.611281,0.0605019311 L102.490288,0.0605019311 C95.4720617,0.121003845 90.3899038,4.96115851 90.3899038,11.9188769 C90.3899038,18.9371034 95.4720617,23.7167606 102.490288,23.7772572 L102.611281,23.7772572 C106.059854,23.7167606 108.90346,22.3857112 111.081515,20.389146 L107.935426,17.2430478 C106.422922,18.5135918 104.668343,19.118611 102.550785,19.118611 M123.665961,19.118611 C119.612334,19.118611 116.768728,16.335519 116.768728,11.9188769 C116.768728,7.44173732 119.612334,4.71915082 123.665961,4.71915082 C125.783519,4.71915082 127.538098,5.32417005 129.050602,6.59471041 L132.196691,3.44861046 C130.079133,1.39154421 127.235527,0.0605019311 123.726458,0.0605019311 L123.605464,0.0605019311 C116.587238,0.121003845 111.50508,4.96115851 111.50508,11.9188769 C111.50508,18.9371034 116.587238,23.7167606 123.605464,23.7772572 L123.726458,23.7772572 C127.17503,23.7167606 130.018636,22.3857112 132.196691,20.389146 L129.050602,17.2430478 C127.538098,18.5135918 125.783519,19.118611 123.665961,19.118611" id="Shape"></path>
            </g>
        </g>
    </g>
</svg>