<?xml version="1.0" encoding="UTF-8"?>
<svg width="216px" height="32px" viewBox="0 0 216 32" version="1.1" xmlns="http://www.w3.org/2000/svg" xmlns:xlink="http://www.w3.org/1999/xlink">
    <!-- Generator: sketchtool 58 (101010) - https://sketch.com -->
    <title>440E3C6E-4917-48CC-9932-777274D41593</title>
    <desc>Created with sketchtool.</desc>
    <g id="Page-1" stroke="none" stroke-width="1" fill="none" fill-rule="evenodd">
        <g id="Иконки" transform="translate(-801.000000, -365.000000)" fill-rule="nonzero">
            <g id="Logo-/-интач" transform="translate(801.000000, 365.000000)">
                <path d="M215.02013,3.15254661 C214.99768,1.18946365 213.400191,0.202302407 211.424059,0.202302407 C209.45868,0.202302407 207.861965,1.18946365 207.839859,3.15254661 L207.839859,12.3243381 L197.132157,12.3243381 L197.132157,3.15254661 L197.124243,3.15254661 C197.109621,1.18946365 195.512906,0.202302407 193.540129,0.202302407 C191.567696,0.202302407 189.967196,1.18946365 189.948101,3.15254661 L189.948101,28.2163188 C189.967196,30.1816467 191.567696,31.1695577 193.540129,31.1695577 C195.512906,31.1695577 197.109621,30.1816467 197.124243,28.2163188 L197.132157,28.2163188 L197.132157,19.0486475 L207.839859,19.0486475 L207.839859,28.2163188 C207.861965,30.1816467 209.45868,31.1695577 211.424059,31.1695577 C213.400191,31.1695577 214.99768,30.1816467 215.02013,28.2163188 L215.024603,28.2163188 L215.024603,3.15254661 L215.02013,3.15254661 Z M16.4932669,7.68187306 L16.4932669,23.6869915 L22.5027748,23.6869915 C24.4523704,23.6869915 25.4432748,25.1933983 25.4432748,27.0470861 C25.4432748,28.8996557 24.4523704,30.4090558 22.5027748,30.4090558 L3.30464784,30.4090558 C1.35018111,30.4090558 0.364144349,28.8996557 0.364144349,27.0470861 C0.364144349,25.1933983 1.35018111,23.6869915 3.30464784,23.6869915 L9.31003638,23.6869915 L9.31003638,7.68187306 L3.30464784,7.68187306 C1.35018111,7.68187306 0.364144349,6.17584386 0.364144349,4.32927216 C0.364144349,2.46546715 1.35018111,0.971425997 3.30464784,0.971425997 L22.5027748,0.971425997 C24.4523704,0.971425997 25.4432748,2.46546715 25.4432748,4.32927216 C25.4432748,6.17584386 24.4523704,7.68187306 22.5027748,7.68187306 L16.4932669,7.68187306 Z" id="Fill-2" fill="#83AC50"></path>
                <path d="M151.198581,20.5404402 L151.198581,20.6217339 C151.145767,27.4970186 145.551372,31.1714329 138.661491,31.1714329 C131.756212,31.1714329 126.161043,27.4970186 126.115713,20.6217339 L126.111928,20.6217339 L126.111928,3.15404501 L126.115713,3.15404501 C126.138937,1.19171125 127.734104,0.204550263 129.708429,0.204550263 C131.680948,0.204550263 133.281362,1.19171125 133.303812,3.15404501 L133.303812,20.5404402 C133.303812,23.7645435 135.430214,24.4737282 138.661491,24.4737282 C141.877285,24.4737282 143.999214,23.7675368 144.007901,20.5602927 L144.007901,3.2038715 L144.007901,3.19188259 L144.007901,3.17727191 L144.007901,3.15404501 C144.030007,1.19171125 145.625948,0.204550263 147.595715,0.204550263 C149.568922,0.204550263 151.171658,1.19171125 151.191097,3.15404501 L151.198581,3.15404501 L151.198581,20.5404402 Z M57.4981005,10.8141896 L57.4981005,28.2140738 L57.4939804,28.2140738 C57.4756246,30.1794017 55.8800536,31.1714329 53.902735,31.1714329 C51.9370285,31.1714329 50.3332172,30.1794017 50.3107412,28.2140738 L50.3107412,10.8216816 C50.3107412,7.60657121 48.183944,6.90038673 44.9643393,6.90038673 C41.7417327,6.90038673 39.6104454,7.60657121 39.6104454,10.829552 L39.6104454,28.2140738 C39.5883393,30.1794017 37.9923984,31.1714329 36.0184517,31.1714329 C34.0456231,31.1714329 32.4455621,30.1794017 32.4272062,28.2140738 L32.4272062,10.7995754 C32.4455621,3.8902009 38.0523344,0.204550263 44.9643393,0.204550263 C51.8733423,0.204550263 57.4797447,3.8902009 57.4981005,10.7995754 L57.4981005,10.8141896 Z M178.367422,23.3914061 C180.08327,22.7549049 181.462708,23.8259847 182.095012,25.5470531 C182.727057,27.2538857 182.380929,28.9543533 180.693553,29.5938478 C179.994071,29.9482509 178.74357,30.2532035 177.938117,30.4465158 C176.322306,30.8387574 174.297059,31.1714329 172.109156,31.1714329 C165.122249,31.1714329 159.391433,27.3928704 158.856499,19.7319844 C158.822781,19.3419878 158.713025,17.3073482 158.713025,15.6844327 C158.713025,14.0697575 158.822781,12.0253809 158.856499,11.6387561 C158.916452,10.7950854 159.034466,9.99748485 159.21424,9.24259983 C159.752958,7.00191228 160.806482,5.18231433 162.241315,3.77968411 C164.685459,1.38914378 168.19388,0.204550263 172.109156,0.204550263 C174.297059,0.204550263 176.322306,0.53947317 177.938117,0.925346365 C178.74357,1.12502649 179.813523,1.47043922 180.693553,1.77838854 C182.380929,2.42238431 182.727057,4.12209918 182.095012,5.82968193 C181.462708,7.54438164 180.08327,8.62220083 178.367422,7.99282004 C178.137072,7.89991072 174.945534,6.81609363 172.787651,6.81609363 C170.836894,6.81609363 168.879428,7.35968809 167.577231,8.76119409 C166.895038,9.48161249 166.393737,10.4286917 166.154011,11.6387561 C166.052082,12.1606238 165.953593,13.8052669 165.953593,15.6844327 C165.953593,17.5654736 166.052082,19.223604 166.154011,19.7319844 C166.853407,23.2932532 169.835151,24.5538951 172.787651,24.5538951 L172.787651,24.5512716 C174.945534,24.5512716 178.137072,23.4689581 178.367422,23.3914061 Z M85.1670823,0.968429199 C87.1256924,0.968429199 88.1116938,2.46696554 88.1116938,4.32552616 C88.1116938,6.17584386 87.1256924,7.68412066 85.1670823,7.68412066 L79.169935,7.68412066 L79.169935,28.2140738 L79.1658148,28.2140738 C79.147459,30.1794017 77.5473979,31.1714329 75.5745694,31.1714329 C73.6006226,31.1714329 72.0050602,30.1794017 71.9825756,28.2140738 L71.9784554,28.2140738 L71.9784554,7.68412066 L65.9768181,7.68412066 C64.0234721,7.68412066 63.036688,6.17584386 63.036688,4.32552616 C63.036688,2.46696554 64.0234721,0.968429199 65.9768181,0.968429199 L85.1670823,0.968429199 Z M118.276903,10.7917136 C118.251356,3.89432193 112.652145,0.204550263 105.739383,0.204550263 C98.826965,0.204550263 93.2243128,3.89432193 93.2022067,10.7917136 L93.1939492,10.7917136 L93.1939492,20.7221404 L93.209346,20.7221404 C93.3037916,27.5307368 98.8797788,31.1714329 105.739383,31.1714329 C112.603804,31.1714329 118.168609,27.5307368 118.270108,20.7221404 L118.276903,20.7221404 L118.276903,10.7917136 Z M111.085793,20.5404402 C111.085793,23.7675368 108.96309,24.4778484 105.739383,24.4778484 C102.516363,24.4778484 100.385833,23.7675368 100.385833,20.5404402 L100.385833,10.829552 C100.385833,7.60657121 102.516363,6.90038673 105.739383,6.90038673 C108.96309,6.90038673 111.085793,7.60657121 111.085793,10.829552 L111.085793,20.5404402 Z" id="Fill-3" fill="#5F5F5E"></path>
            </g>
        </g>
    </g>
</svg>