<?xml version="1.0" encoding="UTF-8"?>
<svg width="214px" height="48px" viewBox="0 0 214 48" version="1.1" xmlns="http://www.w3.org/2000/svg" xmlns:xlink="http://www.w3.org/1999/xlink">
    <!-- Generator: sketchtool 58 (101010) - https://sketch.com -->
    <title>F24D4E26-B4EA-49C3-AB11-0ABAE83F6A4B</title>
    <desc>Created with sketchtool.</desc>
    <g id="Page-1" stroke="none" stroke-width="1" fill="none" fill-rule="evenodd">
        <g id="Иконки" transform="translate(-801.000000, -245.000000)" fill="#EB5F0A" fill-rule="nonzero">
            <g id="Logo-/-согласие" transform="translate(801.000000, 245.000000)">
                <g id="g3790">
                    <path d="M126.301841,28.9978076 L131.223775,28.9978076 L131.223775,8.3277137 L116.791663,8.3277137 L116.791663,10.8223802 C116.791663,19.8209987 115.707169,23.2066175 112.370264,24.4539507 L112.370264,28.9087123 C113.621603,28.7305219 121.296484,27.3940934 121.379907,14.0298086 L121.379907,12.6933801 L126.468686,12.6933801 L126.468686,28.9978076 L126.301841,28.9978076 Z" id="path3752"></path>
                    <polygon id="polygon3754" points="98.7723776 28.9978076 103.694312 28.9978076 103.694312 12.8715705 112.620532 12.8715705 112.620532 8.3277137 98.7723776 8.3277137"></polygon>
                    <path d="M146.156424,8.14952323 L141.317912,8.14952323 L133.225918,28.9978076 L138.39812,28.9978076 L139.899727,25.1667126 L147.491186,25.1667126 L148.992793,28.9978076 L154.248417,28.9978076 L146.156424,8.14952323 Z M141.317912,21.1574271 L143.737168,14.6534752 L146.156424,21.1574271 L141.317912,21.1574271 Z" id="path3756"></path>
                    <polygon id="polygon3758" points="179.859161 8.3277137 174.937226 8.3277137 174.937226 28.9978076 179.608893 28.9978076 188.201422 16.9699512 188.201422 28.9978076 193.039934 28.9978076 193.039934 8.3277137 188.368268 8.3277137 179.859161 20.6228557"></polygon>
                    <polygon id="polygon3760" points="212.477404 20.711951 212.477404 16.7026655 202.383267 16.7026655 202.383267 13.2279515 213.395052 13.2279515 213.395052 8.3277137 197.544755 8.3277137 197.544755 28.9978076 213.561898 28.9978076 213.561898 24.543046 202.383267 24.543046 202.383267 20.711951"></polygon>
                    <path d="M86.0087174,7.97133277 C82.5883901,7.97133277 79.5851759,9.75323741 77.6664557,12.5151896 C77.6664557,12.5151896 77.6664557,12.5151896 77.6664557,12.5151896 C75.4974677,15.6335227 72.6610988,24.186665 66.8215156,24.186665 C63.1509205,24.186665 61.1487777,21.2465224 61.3990456,18.2172845 C61.6493134,15.0989513 64.1519919,12.7824753 66.9883609,13.049761 C68.5733906,13.1388562 69.9081524,14.0298086 70.8258012,15.366237 L73.7455928,11.0896659 C72.0771404,9.30776125 69.9081524,8.14952323 67.4054739,7.97133277 C61.8161586,7.52585661 57.0610695,11.9806182 56.6439564,17.9499988 C56.2268434,23.9193793 60.3979742,28.9978076 65.9872895,29.4432837 C66.3209799,29.4432837 66.738093,29.4432837 67.0717835,29.4432837 L67.1552061,29.4432837 C69.4910393,29.4432837 72.1605631,28.3741409 73.912438,26.9486172 C75.2471999,25.8794744 76.2482713,24.7212364 77.0824974,23.5629984 C78.7509497,27.0377125 82.2546996,29.4432837 86.1755626,29.4432837 C91.7648779,29.4432837 96.2696992,24.6321412 96.2696992,18.6627606 C96.1028539,12.7824753 91.5980326,7.97133277 86.0087174,7.97133277 M87.5103245,24.0084746 C87.0097888,24.186665 86.5092531,24.2757603 85.9252947,24.2757603 C83.7563067,24.2757603 81.9210092,22.8502365 81.086783,20.8901414 C80.8365152,20.1773796 80.6696699,19.4646177 80.6696699,18.7518559 C80.6696699,17.9499988 80.8365152,17.2372369 81.086783,16.6135703 C81.9210092,14.56438 83.7563067,13.2279515 85.9252947,13.2279515 C86.4258304,13.2279515 87.0097888,13.3170467 87.5103245,13.4952372 C89.6793125,14.207999 91.1809196,16.2571894 91.1809196,18.8409511 C91.2643422,21.2465224 89.6793125,23.2957127 87.5103245,24.0084746" id="path3762"></path>
                    <path d="M168.597107,22.5829509 L168.179994,23.028427 L168.179994,23.028427 C167.178923,24.0084746 165.927584,24.4539507 164.592822,24.4539507 C161.589608,24.4539507 159.170352,21.870189 159.170352,18.6627606 C159.170352,15.4553323 161.589608,12.8715705 164.592822,12.8715705 C166.094429,12.8715705 167.596036,13.5843324 168.597107,14.8316656 L168.763953,14.6534752 L171.183209,11.0896659 C169.347911,9.12957079 166.845233,8.060428 164.342554,8.060428 C158.836661,8.060428 154.415263,12.8715705 154.415263,18.6627606 C154.415263,24.543046 158.920084,29.2650933 164.342554,29.2650933 C167.0955,29.2650933 169.765024,28.01776 171.683744,25.701284 L168.597107,22.5829509 Z" id="path3764"></path>
                    <path d="M129.555323,44.0549018 C128.053716,44.0549018 126.969222,42.7184733 126.969222,41.1147592 C126.969222,39.511045 128.053716,38.1746165 129.4719,38.1746165 C130.389549,38.1746165 131.05693,38.6200927 131.640888,39.2437593 L132.308269,38.4419022 C131.640888,37.7291403 130.806662,37.1054737 129.4719,37.1054737 C127.386335,37.1054737 125.884728,38.8873783 125.884728,41.0256639 C125.884728,43.1639495 127.469758,44.9458541 129.4719,44.9458541 C130.806662,44.9458541 131.640888,44.3221875 132.391692,43.5203304 L131.724311,42.8075686 C131.140353,43.5203304 130.472972,44.0549018 129.555323,44.0549018" id="path3766"></path>
                    <polygon id="polygon3768" points="139.399192 37.2836642 133.309341 37.2836642 133.309341 38.352807 135.812019 38.352807 135.812019 44.8567589 136.896513 44.8567589 136.896513 38.352807 139.399192 38.352807"></polygon>
                    <path d="M144.738239,37.1945689 C143.403477,37.1945689 142.569251,37.996426 142.068715,38.8873783 L142.068715,37.3727594 L140.984221,37.3727594 L140.984221,47.2623302 L142.068715,47.2623302 L142.068715,43.5203304 C142.652674,44.3221875 143.4869,45.1240446 144.738239,45.1240446 C146.406692,45.1240446 148.075144,43.6985209 148.075144,41.2038544 C148.075144,38.6200927 146.406692,37.1945689 144.738239,37.1945689 M144.487971,43.9658066 C143.153209,43.9658066 141.90187,42.8075686 141.90187,41.0256639 C141.90187,39.2437593 143.153209,38.0855213 144.487971,38.0855213 C145.822733,38.0855213 146.99065,39.2437593 146.99065,41.0256639 C146.99065,42.8966638 145.906156,43.9658066 144.487971,43.9658066" id="path3770"></path>
                    <path d="M152.913656,37.1945689 C151.912584,37.1945689 151.161781,37.4618546 150.327554,37.8182356 L150.661245,38.7091879 C151.328626,38.352807 151.996007,38.1746165 152.830233,38.1746165 C154.164995,38.1746165 154.915798,38.8873783 154.915798,40.2238068 L154.915798,40.4910925 C154.248417,40.3129021 153.664459,40.1347116 152.74681,40.1347116 C150.994935,40.1347116 149.743596,40.9365687 149.743596,42.6293781 C149.743596,44.2330923 151.078358,45.0349494 152.41312,45.0349494 C153.664459,45.0349494 154.498685,44.4112827 154.915798,43.7876161 L154.915798,44.9458541 L155.91687,44.9458541 L155.91687,40.2238068 C155.91687,39.2437593 155.666602,38.5309974 155.166066,37.996426 C154.665531,37.4618546 153.914727,37.1945689 152.913656,37.1945689 M154.915798,42.0948067 C154.915798,43.2530447 153.831304,44.143997 152.579965,44.143997 C151.662316,44.143997 150.82809,43.6094257 150.82809,42.6293781 C150.82809,41.7384258 151.578894,41.1147592 152.913656,41.1147592 C153.747882,41.1147592 154.415263,41.2929496 154.999221,41.4711401 L154.999221,42.0948067 L154.915798,42.0948067 Z" id="path3772"></path>
                    <polygon id="polygon3774" points="160.922227 40.2238068 158.836661 37.2836642 157.668745 37.2836642 160.338268 41.0256639 157.501899 44.8567589 158.753239 44.8567589 160.922227 41.7384258 163.091215 44.8567589 164.342554 44.8567589 161.506185 41.0256639 164.175709 37.2836642 163.007792 37.2836642"></polygon>
                    <path d="M168.763953,37.1945689 C166.594965,37.1945689 165.093358,38.9764736 165.093358,41.1147592 C165.093358,43.2530447 166.594965,45.0349494 168.763953,45.0349494 C170.932941,45.0349494 172.434548,43.2530447 172.434548,41.1147592 C172.434548,38.9764736 170.849518,37.1945689 168.763953,37.1945689 M168.763953,44.0549018 C167.262346,44.0549018 166.177852,42.7184733 166.177852,41.1147592 C166.177852,39.511045 167.262346,38.1746165 168.763953,38.1746165 C170.26556,38.1746165 171.350054,39.511045 171.350054,41.1147592 C171.350054,42.7184733 170.26556,44.0549018 168.763953,44.0549018" id="path3776"></path>
                    <path d="M178.858089,40.9365687 C179.442048,40.669283 180.026006,40.2238068 180.026006,39.2437593 C180.026006,38.0855213 179.108357,37.3727594 177.690173,37.3727594 L174.269845,37.3727594 L174.269845,44.9458541 L177.773595,44.9458541 C179.358625,44.9458541 180.359696,44.143997 180.359696,42.8966638 C180.359696,41.7384258 179.692315,41.2038544 178.858089,40.9365687 M175.354339,38.2637117 L177.523327,38.2637117 C178.440976,38.2637117 178.941512,38.7091879 178.941512,39.3328545 C178.941512,40.1347116 178.357554,40.5801878 177.523327,40.5801878 L175.354339,40.5801878 L175.354339,38.2637117 Z M177.690173,43.8767114 L175.354339,43.8767114 L175.354339,41.4711401 L177.60675,41.4711401 C178.774667,41.4711401 179.358625,41.9166162 179.358625,42.6293781 C179.275202,43.4312352 178.691244,43.8767114 177.690173,43.8767114" id="path3778"></path>
                    <path d="M184.94794,37.1945689 C183.946869,37.1945689 183.196065,37.4618546 182.361839,37.8182356 L182.69553,38.7091879 C183.362911,38.352807 184.030291,38.1746165 184.864518,38.1746165 C186.199279,38.1746165 186.950083,38.8873783 186.950083,40.2238068 L186.950083,40.4910925 C186.282702,40.3129021 185.698744,40.1347116 184.781095,40.1347116 C183.02922,40.1347116 181.777881,40.9365687 181.777881,42.6293781 C181.777881,44.2330923 183.112643,45.0349494 184.447405,45.0349494 C185.698744,45.0349494 186.53297,44.4112827 186.950083,43.7876161 L186.950083,44.9458541 L187.951154,44.9458541 L187.951154,40.2238068 C187.951154,39.2437593 187.700887,38.5309974 187.200351,37.996426 C186.699815,37.4618546 185.949012,37.1945689 184.94794,37.1945689 M186.950083,42.0948067 C186.950083,43.2530447 185.865589,44.143997 184.61425,44.143997 C183.696601,44.143997 182.862375,43.6094257 182.862375,42.6293781 C182.862375,41.7384258 183.613178,41.1147592 184.94794,41.1147592 C185.782166,41.1147592 186.449547,41.2929496 187.033506,41.4711401 L187.033506,42.0948067 L186.950083,42.0948067 Z" id="path3780"></path>
                    <polygon id="polygon3782" points="191.204636 37.2836642 190.203565 37.2836642 190.203565 44.8567589 191.204636 44.8567589 191.204636 41.5602353 195.292345 41.5602353 195.292345 44.8567589 196.376839 44.8567589 196.376839 37.2836642 195.292345 37.2836642 195.292345 40.5801878 191.204636 40.5801878"></polygon>
                    <polygon id="polygon3784" points="199.713743 44.8567589 203.884874 38.8873783 203.884874 44.8567589 204.969368 44.8567589 204.969368 37.2836642 203.968297 37.2836642 199.713743 43.2530447 199.713743 37.2836642 198.712672 37.2836642 198.712672 44.8567589"></polygon>
                    <path d="M210.224993,37.1945689 C208.306273,37.1945689 206.804666,38.9764736 206.804666,41.1147592 C206.804666,43.4312352 208.389695,45.0349494 210.308416,45.0349494 C211.643177,45.0349494 212.477404,44.500378 213.228207,43.6094257 L212.560826,42.985759 C211.976868,43.6094257 211.309487,44.0549018 210.308416,44.0549018 C209.057076,44.0549018 207.972582,43.1639495 207.805737,41.5602353 L213.395052,41.5602353 C213.395052,41.3820448 213.395052,41.2929496 213.395052,41.2038544 C213.561898,38.9764736 212.310558,37.1945689 210.224993,37.1945689 M207.972582,40.669283 C208.139428,39.2437593 209.057076,38.1746165 210.224993,38.1746165 C211.643177,38.1746165 212.393981,39.3328545 212.477404,40.669283 L207.972582,40.669283 Z" id="path3786"></path>
                    <path d="M34.5369631,0.130952332 C31.5337489,0.130952332 28.5305348,0.932809422 25.9444337,2.5365236 C23.3583326,0.932809422 20.3551184,0.0418570995 17.3519042,0.0418570995 C7.84172593,0.0418570995 0.0834226163,8.3277137 0.0834226163,18.4845702 C0.0834226163,28.6414266 7.84172593,36.9272832 17.3519042,36.9272832 C20.3551184,36.9272832 23.3583326,36.0363309 25.9444337,34.4326167 C28.5305348,36.0363309 31.5337489,36.838188 34.5369631,36.838188 C44.0471414,36.838188 51.8054447,28.5523314 51.8054447,18.3954749 C51.8054447,8.3277137 44.0471414,0.130952332 34.5369631,0.130952332 M11.9294341,18.4845702 L11.9294341,18.4845702 C11.6791663,19.2864273 11.5957437,20.0882843 11.5957437,20.8901414 C11.5957437,25.2558078 14.9326483,28.8196171 19.0203565,28.8196171 C21.6898802,28.8196171 24.1091361,27.3049982 25.443898,24.8994269 L25.443898,24.8994269 L25.5273206,24.8103317 C25.6107432,24.6321412 25.6941658,24.4539507 25.7775884,24.2757603 L30.2824097,14.9207609 L30.3658323,14.7425704 L30.3658323,14.7425704 L30.3658323,14.7425704 C30.866368,13.7625229 31.7840168,13.1388562 32.8685108,13.1388562 C34.3701179,13.1388562 35.6214571,14.4752847 35.6214571,16.0789989 C35.6214571,16.0789989 35.6214571,16.1680941 35.6214571,16.1680941 L35.6214571,16.2571894 L35.6214571,16.2571894 C35.6214571,17.5045226 35.0374988,20.1773796 31.2834811,24.186665 C26.528392,29.3541885 22.1069933,30.9579027 22.1069933,31.0469979 L22.1069933,31.0469979 C20.6053862,31.7597598 18.9369339,32.0270455 17.2684816,32.0270455 C10.2609818,32.0270455 4.58824389,25.9685697 4.58824389,18.4845702 C4.58824389,11.0005707 10.2609818,4.94209487 17.2684816,4.94209487 C18.6032434,4.94209487 19.8545827,5.12028534 21.1059219,5.5657615 C16.3508328,9.66414218 13.264196,14.0298086 11.9294341,18.4845702 M39.8760106,18.5736654 L39.8760106,18.5736654 C40.1262784,17.7718083 40.209701,16.9699512 40.209701,16.0789989 C40.209701,11.7133325 36.8727964,8.14952323 32.7850882,8.14952323 C30.1989871,8.14952323 27.6963086,9.66414218 26.3615467,12.0697134 L26.3615467,12.0697134 L26.2781241,12.3369991 C26.1947015,12.4260944 26.1112789,12.6042848 26.1112789,12.6933801 L21.4396124,22.4047604 C20.9390767,23.3848079 20.0214279,23.9193793 19.0203565,23.9193793 C17.5187494,23.9193793 16.2674102,22.5829509 16.2674102,20.9792367 L16.2674102,20.9792367 L16.2674102,20.8901414 C16.2674102,19.6428082 16.9347911,16.9699512 20.6053862,12.8715705 C25.3604753,7.70404707 29.6984514,6.18942812 29.781874,6.18942812 C31.3669037,5.47666626 32.9519334,5.12028534 34.7038084,5.12028534 C41.7113081,5.12028534 47.384046,11.1787611 47.384046,18.6627606 C47.384046,26.1467601 41.7113081,32.2052359 34.7038084,32.2052359 C33.3690465,32.2052359 32.0342846,32.0270455 30.7829454,31.5815693 C35.5380345,27.3940934 38.6246713,23.1175222 39.8760106,18.5736654" id="path3788"></path>
                </g>
            </g>
        </g>
    </g>
</svg>