<?xml version="1.0" encoding="UTF-8"?>
<svg width="22px" height="22px" viewBox="0 0 22 22" version="1.1" xmlns="http://www.w3.org/2000/svg" xmlns:xlink="http://www.w3.org/1999/xlink">
    <g id="Page-1" stroke="none" stroke-width="1" fill="none" fill-rule="evenodd">
        <g id="Иконки" transform="translate(-589.000000, -587.000000)" fill="#757575">
            <g id="ic/smile-pofig" transform="translate(588.000000, 586.000000)">
                <path d="M12,1 C18.0742847,1 23,5.92571525 23,12 C23,18.0742847 18.0742847,23 12,23 C5.92571525,23 1,18.0742847 1,12 C1,5.92571525 5.92571525,1 12,1 Z M12,3 C7.03028475,3 3,7.03028475 3,12 C3,16.9697153 7.03028475,21 12,21 C16.9697153,21 21,16.9697153 21,12 C21,7.03028475 16.9697153,3 12,3 Z M16,15 C16.5522847,15 17,15.4477153 17,16 C17,16.5522847 16.5522847,17 16,17 L16,17 L8,17 C7.44771525,17 7,16.5522847 7,16 C7,15.4477153 7.44771525,15 8,15 L8,15 Z M9,8 C9.553,8 10,8.447 10,9 C10,9.553 9.553,10 9,10 C8.447,10 8,9.553 8,9 C8,8.447 8.447,8 9,8 Z M15,8 C15.553,8 16,8.447 16,9 C16,9.553 15.553,10 15,10 C14.447,10 14,9.553 14,9 C14,8.447 14.447,8 15,8 Z" id="Combined-Shape"></path>
            </g>
        </g>
    </g>
</svg>