<?xml version="1.0" encoding="UTF-8"?>
<svg width="22px" height="22px" viewBox="0 0 22 22" version="1.1" xmlns="http://www.w3.org/2000/svg" xmlns:xlink="http://www.w3.org/1999/xlink">
    <!-- Generator: sketchtool 58 (101010) - https://sketch.com -->
    <title>8A1B2331-A70A-45BA-A93B-F480BDF229AA</title>
    <desc>Created with sketchtool.</desc>
    <g id="Page-1" stroke="none" stroke-width="1" fill="none" fill-rule="evenodd">
        <g id="1-Desk" transform="translate(-629.000000, -1234.000000)" fill="#EF5350">
            <g id="Group-11" transform="translate(0.000000, 444.000000)">
                <g id="Group-10" transform="translate(180.000000, 621.000000)">
                    <g id="Group-6" transform="translate(168.000000, 80.000000)">
                        <g id="Group-14" transform="translate(280.000000, 88.000000)">
                            <g id="ic/smile-ok-ic/smile-bad">
                                <path d="M12,1 C18.0742847,1 23,5.92571525 23,12 C23,18.0742847 18.0742847,23 12,23 C5.92571525,23 1,18.0742847 1,12 C1,5.92571525 5.92571525,1 12,1 Z M12,3 C7.03028475,3 3,7.03028475 3,12 C3,16.9697153 7.03028475,21 12,21 C16.9697153,21 21,16.9697153 21,12 C21,7.03028475 16.9697153,3 12,3 Z M7.85634347,14.9600156 C10.5878681,13.7065708 13.7466957,13.7547778 16.4452136,15.1045728 L16.4452136,15.1045728 L16.548514,15.1637448 C16.9675139,15.4378281 17.1237744,15.9885193 16.8944272,16.4472136 C16.6474379,16.9411921 16.0467649,17.1414164 15.5527864,16.8944272 L15.5527864,16.8944272 L15.2692192,16.7594121 C13.0967269,15.777156 10.5916032,15.8218068 8.4472136,16.8944272 C7.9532351,17.1414164 7.35256206,16.9411921 7.10557281,16.4472136 C6.85858356,15.9532351 7.05880791,15.3525621 7.5527864,15.1055728 L7.5527864,15.1055728 Z M9,8 C9.553,8 10,8.447 10,9 C10,9.553 9.553,10 9,10 C8.447,10 8,9.553 8,9 C8,8.447 8.447,8 9,8 Z M15,8 C15.553,8 16,8.447 16,9 C16,9.553 15.553,10 15,10 C14.447,10 14,9.553 14,9 C14,8.447 14.447,8 15,8 Z" id="Combined-Shape"></path>
                            </g>
                        </g>
                    </g>
                </g>
            </g>
        </g>
    </g>
</svg>