<?xml version="1.0" encoding="UTF-8"?>
<svg width="22px" height="22px" viewBox="0 0 22 22" version="1.1" xmlns="http://www.w3.org/2000/svg" xmlns:xlink="http://www.w3.org/1999/xlink">
    <g id="Page-1" stroke="none" stroke-width="1" fill="none" fill-rule="evenodd">
        <g id="Иконки" transform="translate(-541.000000, -587.000000)" fill="#01B49F">
            <g id="ic/smile-ok" transform="translate(540.000000, 586.000000)">
                <path d="M12,1 C18.0742847,1 23,5.92571525 23,12 C23,18.0742847 18.0742847,23 12,23 C5.92571525,23 1,18.0742847 1,12 C1,5.92571525 5.92571525,1 12,1 Z M12,3 C7.03028475,3 3,7.03028475 3,12 C3,16.9697153 7.03028475,21 12,21 C16.9697153,21 21,16.9697153 21,12 C21,7.03028475 16.9697153,3 12,3 Z M18,14 C18,14 17,18 12,18 C7,18 6,14 6,14 L18,14 Z M9,8 C9.553,8 10,8.447 10,9 C10,9.553 9.553,10 9,10 C8.447,10 8,9.553 8,9 C8,8.447 8.447,8 9,8 Z M15,8 C15.553,8 16,8.447 16,9 C16,9.553 15.553,10 15,10 C14.447,10 14,9.553 14,9 C14,8.447 14.447,8 15,8 Z" id="Combined-Shape"></path>
            </g>
        </g>
    </g>
</svg>