<?xml version="1.0" encoding="UTF-8"?>
<svg width="128px" height="128px" viewBox="0 0 128 128" version="1.1" xmlns="http://www.w3.org/2000/svg" xmlns:xlink="http://www.w3.org/1999/xlink">
    <defs>
        <polygon id="path-1" points="0.0002 0 128 0 128 56.0004 0.0002 56.0004"></polygon>
        <polygon id="path-3" points="0.0003 0 128 0 128 72 0.0003 72"></polygon>
    </defs>
    <g id="Page-1" stroke="none" stroke-width="1" fill="none" fill-rule="evenodd">
        <g id="Иконки" transform="translate(-164.000000, -240.000000)">
            <g id="Group" transform="translate(156.000000, 232.000000)">
                <rect id="Rectangle" x="0" y="0" width="144" height="144"></rect>
                <g id="Group-3" transform="translate(8.000000, 8.000000)">
                    <mask id="mask-2" fill="white">
                        <use xlink:href="#path-1"></use>
                    </mask>
                    <g id="Clip-2"></g>
                    <path d="M54.0532,4.2744 L0.0002,56.0004 L128.0002,56.0004 L74.8692,4.3634 C68.9192,-1.4206 60.0432,-1.4586 54.0532,4.2744" id="Fill-1" fill="#01B49F" mask="url(#mask-2)"></path>
                </g>
                <g id="Group-6" transform="translate(8.000000, 64.000000)">
                    <mask id="mask-4" fill="white">
                        <use xlink:href="#path-3"></use>
                    </mask>
                    <g id="Clip-5"></g>
                    <path d="M120.0313,72 L7.9683,72 C3.5683,72 0.0003,68.432 0.0003,64.031 L0.0003,0 L128.0003,0 L128.0003,64.031 C128.0003,68.432 124.4323,72 120.0313,72" id="Fill-4" fill="#01B49F" mask="url(#mask-4)"></path>
                </g>
                <path d="M120,118 L24,118 L24,28 C24,25.791 25.791,24 28,24 L116,24 C118.209,24 120,25.791 120,28 L120,118 Z" id="Fill-7" fill="#F8F2F2"></path>
                <path d="M43.5,46 L101.5,46 C103.432997,46 105,44.4329966 105,42.5 C105,40.5670034 103.432997,39 101.5,39 L43.5,39 C41.5670034,39 40,40.5670034 40,42.5 C40,44.4329966 41.5670034,46 43.5,46 Z" id="Fill-9" fill="#BDBDBD"></path>
                <path d="M43.5,60 L101.5,60 C103.432997,60 105,58.4329966 105,56.5 C105,54.5670034 103.432997,53 101.5,53 L43.5,53 C41.5670034,53 40,54.5670034 40,56.5 C40,58.4329966 41.5670034,60 43.5,60 Z" id="Fill-11" fill="#BDBDBD"></path>
                <path d="M43.5,74 L101.5,74 C103.432997,74 105,72.4329966 105,70.5 C105,68.5670034 103.432997,67 101.5,67 L43.5,67 C41.5670034,67 40,68.5670034 40,70.5 C40,72.4329966 41.5670034,74 43.5,74 Z" id="Fill-12" fill="#BDBDBD"></path>
                <polygon id="Fill-13" fill="#BDBDBD" points="40 88 105 88 105 81 40 81"></polygon>
                <polygon id="Fill-14" fill="#BDBDBD" points="40 102 105 102 105 95 40 95"></polygon>
                <path d="M135.9883,128.9941 C135.9903,128.9171 136.0003,128.8411 136.0003,128.7641 C136.0003,132.7601 132.7853,136.0001 128.8203,136.0001 L15.1803,136.0001 C11.2153,136.0001 8.0003,132.7601 8.0003,128.7641 L8.0003,64.0001 L135.9883,128.9941 Z" id="Fill-15" fill="#01B49F"></path>
                <path d="M8.0117,128.9941 C8.0097,128.9171 7.9997,128.8411 7.9997,128.7641 C7.9997,132.7601 11.2147,136.0001 15.1797,136.0001 L128.8197,136.0001 C132.7847,136.0001 135.9997,132.7601 135.9997,128.7641 L135.9997,64.0001 L8.0117,128.9941 Z" id="Fill-16" fill="#009688"></path>
            </g>
        </g>
    </g>
</svg>