<?xml version="1.0" encoding="UTF-8"?>
<svg width="60px" height="56px" viewBox="0 0 60 56" version="1.1" xmlns="http://www.w3.org/2000/svg" xmlns:xlink="http://www.w3.org/1999/xlink">
    <!-- Generator: sketchtool 58 (101010) - https://sketch.com -->
    <title>415CEF4A-277B-472F-BF5E-E93641FBCB12</title>
    <desc>Created with sketchtool.</desc>
    <g id="Page-1" stroke="none" stroke-width="1" fill="none" fill-rule="evenodd">
        <g id="Иконки" transform="translate(-246.000000, -438.000000)">
            <g id="Group-7" transform="translate(244.000000, 434.000000)">
                <path d="M27.3369,5.7861 L1.9999,28.0001 L61.9999,28.0001 L37.0919,5.8211 C34.3799,3.4061 30.0689,3.3911 27.3369,5.7861" id="Fill-1" fill="#01B49F"></path>
                <path d="M58.3623,60 L5.6373,60 C3.6293,60 2.0003,58.371 2.0003,56.362 L2.0003,28 L62.0003,28 L62.0003,56.362 C62.0003,58.371 60.3713,60 58.3623,60" id="Fill-4" fill="#01B49F"></path>
                <path d="M55,54 L10,54 L10,11.874 C10,10.839 10.839,10 11.874,10 L53.126,10 C54.161,10 55,10.839 55,11.874 L55,54 Z" id="Fill-7" fill="#EFEFEF"></path>
                <polygon id="Fill-9" fill="#AFC5C2" points="17 20 47 20 47 17 17 17"></polygon>
                <polygon id="Fill-11" fill="#AFC5C2" points="17 26 47 26 47 23 17 23"></polygon>
                <polygon id="Fill-12" fill="#AFC5C2" points="17 32 47 32 47 29 17 29"></polygon>
                <polygon id="Fill-13" fill="#AFC5C2" points="17 38 47 38 47 35 17 35"></polygon>
                <path d="M61.9941,56.9092 C61.9961,56.8752 62.0001,56.8422 62.0001,56.8072 C62.0001,58.5702 60.4931,60.0002 58.6351,60.0002 L5.3651,60.0002 C3.5071,60.0002 2.0001,58.5702 2.0001,56.8072 L2.0001,28.2352 L61.9941,56.9092 Z" id="Fill-15" fill="#01B49F"></path>
                <path d="M2.0059,56.9092 C2.0039,56.8752 1.9999,56.8422 1.9999,56.8072 C1.9999,58.5702 3.5069,60.0002 5.3649,60.0002 L58.6349,60.0002 C60.4929,60.0002 61.9999,58.5702 61.9999,56.8072 L61.9999,28.2352 L2.0059,56.9092 Z" id="Fill-16" fill="#01A491"></path>
            </g>
        </g>
    </g>
</svg>