<?xml version="1.0" encoding="UTF-8"?>
<svg width="60px" height="56px" viewBox="0 0 60 56" version="1.1" xmlns="http://www.w3.org/2000/svg" xmlns:xlink="http://www.w3.org/1999/xlink">
    <!-- Generator: sketchtool 58 (101010) - https://sketch.com -->
    <title>25EA2968-2CD2-4396-8848-2D88264D61AA</title>
    <desc>Created with sketchtool.</desc>
    <g id="Page-1" stroke="none" stroke-width="1" fill="none" fill-rule="evenodd">
        <g id="Иконки" transform="translate(-334.000000, -438.000000)">
            <g id="Group-9" transform="translate(332.000000, 434.000000)">
                <polygon id="Fill-2" fill="#D5D5D5" points="38.3366 4.0002 4.8976 24.3722 15.2026 41.9742 48.6416 21.6012"></polygon>
                <polygon id="Fill-1" fill="#ECECEC" points="53 24.3994 17.303 40.3014 9.231 21.5284 44.929 5.6254"></polygon>
                <path d="M51.7129,60 L3.9999,60 C2.8959,60 1.9999,59.104 1.9999,58 L1.9999,22 C1.9999,20.896 2.8959,20 3.9999,20 L51.7129,20 C55.1859,20 57.9999,22.814 57.9999,26.287 L57.9999,53.713 C57.9999,57.186 55.1859,60 51.7129,60" id="Fill-3" fill="#01B49F"></path>
                <rect id="Rectangle" fill="#01D9C0" opacity="0.573149182" x="7" y="24" width="4" height="32"></rect>
                <path d="M50.6758,46 L59.9998,46 C61.1048,46 61.9998,45.104 61.9998,44 L61.9998,36 C61.9998,34.896 61.1048,34 59.9998,34 L50.6758,34 C47.5408,34 44.9998,36.541 44.9998,39.676 L44.9998,40.324 C44.9998,43.459 47.5408,46 50.6758,46" id="Fill-6" fill="#00CBB3"></path>
                <path d="M54,40 C54,41.657 52.657,43 51,43 C49.343,43 48,41.657 48,40 C48,38.343 49.343,37 51,37 C52.657,37 54,38.343 54,40" id="Fill-8" fill="#078475"></path>
            </g>
        </g>
    </g>
</svg>