<?xml version="1.0" encoding="UTF-8"?>
<svg width="60px" height="56px" viewBox="0 0 60 56" version="1.1" xmlns="http://www.w3.org/2000/svg" xmlns:xlink="http://www.w3.org/1999/xlink">
    <!-- Generator: sketchtool 58 (101010) - https://sketch.com -->
    <title>463AB6FD-D39C-4980-B054-7AB5CC1F391F</title>
    <desc>Created with sketchtool.</desc>
    <g id="Page-1" stroke="none" stroke-width="1" fill="none" fill-rule="evenodd">
        <g id="Иконки" transform="translate(-158.000000, -438.000000)">
            <g id="Group-4" transform="translate(156.000000, 434.000000)">
                <polygon id="Fill-1" fill="#019785" points="24 56.945 40 56.945 40 44.727 24 44.727"></polygon>
                <path d="M46.4727,60 L17.5277,60 C16.6837,60 15.9997,59.316 15.9997,58.473 C15.9997,57.629 16.6837,56.945 17.5277,56.945 L46.4727,56.945 C47.3167,56.945 47.9997,57.629 47.9997,58.473 C47.9997,59.316 47.3167,60 46.4727,60" id="Fill-2" fill="#01B49F"></path>
                <path d="M57.8428,48 L6.1568,48 C3.8618,48 1.9998,46.139 1.9998,43.843 L1.9998,8.157 C1.9998,5.861 3.8618,4 6.1568,4 L57.8428,4 C60.1388,4 61.9998,5.861 61.9998,8.157 L61.9998,43.843 C61.9998,46.139 60.1388,48 57.8428,48" id="Fill-4" fill="#01B49F"></path>
                <path d="M58,48 L6,48 C3.791,48 2,46.209 2,44 L2,39 L62,39 L62,44 C62,46.209 60.209,48 58,48" id="Fill-7" fill="#ECECEC"></path>
                <polyline id="Stroke-9" stroke="#ECECEC" stroke-width="2" stroke-linecap="round" stroke-linejoin="round" points="16 12 18 14 22 10"></polyline>
                <path d="M27,12 L50,12" id="Stroke-11" stroke="#ECECEC" stroke-width="2" stroke-linecap="round" stroke-linejoin="round"></path>
                <path d="M27,22 L50,22" id="Stroke-13" stroke="#ECECEC" stroke-width="2" stroke-linecap="round" stroke-linejoin="round"></path>
                <polyline id="Stroke-15" stroke="#ECECEC" stroke-width="2" stroke-linecap="round" stroke-linejoin="round" points="16 22 18 24 22 20"></polyline>
                <polyline id="Stroke-17" stroke="#ECECEC" stroke-width="2" stroke-linecap="round" stroke-linejoin="round" points="16 32 18 34 22 30"></polyline>
                <path d="M27,32 L50,32" id="Stroke-19" stroke="#ECECEC" stroke-width="2" stroke-linecap="round" stroke-linejoin="round"></path>
            </g>
        </g>
    </g>
</svg>